<svg xmlns="http://www.w3.org/2000/svg" id="Calque_1" x="0" y="0" version="1.1" viewBox="0 0 200 200" xml:space="preserve">
  <defs/>
  <g id="annuaire_reseau" transform="translate(-20.5 -.04)">
    <path id="Tracé_260" d="M66.6 162.2V161c0-4.2-3.4-7.7-7.7-7.7h-22c-4.2 0-7.7 3.4-7.7 7.7v1.2c0 4.2 3.4 7.7 7.7 7.7h22c4.2 0 7.7-3.4 7.7-7.7z" class="st0"/>
    <path id="Tracé_261" d="M37.4 83.8h20.8c4.6 0 8.3-3.7 8.3-8.3 0-4.6-3.7-8.3-8.3-8.3H37.4c-4.6 0-8.3 3.7-8.3 8.3.1 4.6 3.8 8.3 8.3 8.3z" class="st0"/>
    <path id="Tracé_262" d="M37.4 126.9h20.8c4.6 0 8.3-3.7 8.3-8.3 0-4.6-3.7-8.3-8.3-8.3H37.4c-4.6 0-8.3 3.7-8.3 8.3.1 4.6 3.8 8.3 8.3 8.3z" class="st0"/>
    <path id="Tracé_263" d="M37.4 39.8h20.8c4.6 0 8.3-3.7 8.3-8.3 0-4.6-3.7-8.3-8.3-8.3H37.4c-4.6 0-8.3 3.7-8.3 8.3.1 4.5 3.8 8.3 8.3 8.3z" class="st0"/>
    <path id="Tracé_264" d="M211.8 175.8V31.5C212-2 188.4.1 188.4.1H66.6C55.2-.1 45.1 7.4 42.1 18.4v.2h15c7.2.2 13 6.2 12.8 13.4-.2 7-5.8 12.7-12.8 12.8H41.9L41.8 62H57c7.2 0 13.1 5.9 13.1 13.1 0 7.2-5.9 13.1-13.1 13.1H41.7l-.1 17.3h15.5c7.2.2 13 6.2 12.8 13.4-.2 7-5.8 12.7-12.8 12.8H41.4l-.1 16.9H57c7.2 0 13.1 5.9 13.1 13.1 0 7.2-5.9 13.1-13.1 13.1H41.1v.1c-.5 13.3 9.8 24.5 23.1 25.1h117.6c32.6.1 30-24.2 30-24.2zM135.7 22.4c11-1.3 20.9 6.6 22.2 17.5.2 1.7.2 3.4-.1 5.1-1.7 28.9-22.1 26.6-22.1 26.6-18.3-.2-20.4-22.2-20.4-22.2s-4.1-26.4 20.4-27zm-14.5 55.4s12.4 8.2 32.3 0c0 0 19.6-4 20.9 35.1l-38.6 8.7-38.6-10.2c-.1.1-.8-34.1 24-33.6zm64.6 99.3H88.2c-2.7 0-4.9-2.2-4.9-4.9s2.2-4.9 4.9-4.9h97.5c2.7 0 4.9 2.2 4.9 4.9.1 2.7-2.1 4.9-4.8 4.9zm0-28.2H88.2c-2.7 0-4.9-2.2-4.9-4.9s2.2-4.9 4.9-4.9h97.5c2.7 0 4.9 2.2 4.9 4.9s-2.1 4.9-4.8 4.9z" class="st0"/>
  </g>
</svg>
