<svg xmlns="http://www.w3.org/2000/svg" viewBox="0 0 200 200">
  <defs/>
  <path fill="#1d1d1b" d="M200.2 111.5V86l-27.4-11.8-2.5-9.7 9-26.5-18.7-18.6-27.2 11.8-8.6-4.5L113.3 0H87.1L76.3 27.8l-10 3.4-27-10.7-18.7 18.4 11.3 27.6-4.5 8.2L-.2 87.3v24.9l27.8 12.2 3.6 10.2L20.6 162l18.6 17.9 26.5-11.5 9.7 3.8L88.2 200H114l11.3-27.4 9.7-3.2 27.2 10.4 18.1-18.3-10.8-28.5 4.3-9.3 26.4-12.2zM100 138.2c-21.1 0-38.2-17.1-38.2-38.2S78.9 61.7 100 61.7s38.2 17.1 38.2 38.2c0 21.2-17.1 38.3-38.2 38.3z"/>
</svg>
