<svg xmlns="http://www.w3.org/2000/svg" width="244.237" height="263" viewBox="0 0 244.237 263">
  <g id="Groupe_1430" data-name="Groupe 1430" transform="translate(-65.382 -143)">
    <g id="Groupe_1425" data-name="Groupe 1425" transform="translate(-3477.618 -301.5)">
      <g id="Groupe_1422" data-name="Groupe 1422" transform="translate(3558.181 444.5)">
        <g id="Groupe_1409" data-name="Groupe 1409" transform="translate(37.421 44.879)">
          <path id="Tracé_383" data-name="Tracé 383" d="M4100.22,693.049a1.8,1.8,0,0,1-1.621-2.582l11.928-24.767a6.7,6.7,0,0,0-3.131-8.932l-43.729-21.033a6.693,6.693,0,0,0-8.933,3.131l-19.689,40.353a1.8,1.8,0,1,1-3.236-1.579l19.685-40.344a10.293,10.293,0,0,1,13.734-4.806l43.729,21.033a10.306,10.306,0,0,1,4.815,13.739l-11.929,24.767A1.8,1.8,0,0,1,4100.22,693.049Z" transform="translate(-3966.941 -631.468)" fill="#fff"/>
          <path id="Tracé_384" data-name="Tracé 384" d="M4042.616,1135.234a10.233,10.233,0,0,1-4.446-1.017l-21.951-10.558a1.8,1.8,0,0,1,1.561-3.245l21.951,10.558a6.7,6.7,0,0,0,8.933-3.131l10.409-21.568a1.8,1.8,0,0,1,3.243,1.565l-10.409,21.566A10.305,10.305,0,0,1,4042.616,1135.234Z" transform="translate(-3954.456 -991.529)" fill="#fff"/>
          <path id="Tracé_385" data-name="Tracé 385" d="M4069.692,1110.988a1.793,1.793,0,0,1-.779-.178l-32.015-15.4a1.8,1.8,0,0,1,1.561-3.245l32.015,15.4a1.8,1.8,0,0,1-.781,3.423Z" transform="translate(-3970.172 -981.446)" fill="#fff"/>
          <path id="Tracé_386" data-name="Tracé 386" d="M4175.629,693.284a1.793,1.793,0,0,1-.779-.178l-56.675-27.26a1.8,1.8,0,0,1,1.561-3.245l56.675,27.259a1.8,1.8,0,0,1-.781,3.423Z" transform="translate(-4031.939 -654.993)" fill="#fff"/>
          <path id="Tracé_387" data-name="Tracé 387" d="M4038.476,1134.812a1.789,1.789,0,0,1-.779-.179l-6.057-2.913a1.8,1.8,0,0,1,1.561-3.245l6.057,2.913a1.8,1.8,0,0,1-.781,3.423Z" transform="translate(-3966.176 -1009.04)" fill="#fff"/>
          <path id="Tracé_388" data-name="Tracé 388" d="M3763.944,924.658a1.8,1.8,0,0,1-1.622-2.581l17.118-35.588,6.872-38.293a21.033,21.033,0,0,1,8.937-16.688l36.366-25.218a10.429,10.429,0,0,1,12.2,16.913l-26.254,19.609a55.459,55.459,0,0,1,10.108,16.606,41.688,41.688,0,0,1,2.7,19.328c-.835,7.946-4.136,15.665-9.811,22.942a1.8,1.8,0,0,1-2.839-2.214c5.254-6.737,8.306-13.838,9.069-21.1a38.117,38.117,0,0,0-2.483-17.669,51.2,51.2,0,0,0-10.689-16.828,1.8,1.8,0,0,1,.174-2.737l27.871-20.818a6.828,6.828,0,0,0-7.991-11.072l-36.363,25.216a17.418,17.418,0,0,0-7.4,13.941,1.816,1.816,0,0,1-.028.289l-6.941,38.674a1.793,1.793,0,0,1-.149.462l-17.224,35.809A1.8,1.8,0,0,1,3763.944,924.658Z" transform="translate(-3762.144 -762.902)" fill="#fff"/>
          <path id="Tracé_389" data-name="Tracé 389" d="M4246.9,895.416a9.692,9.692,0,0,1-9.311-7.092h0a9.691,9.691,0,0,1,6.735-11.917l15.914-4.422a9.679,9.679,0,0,1,5.183,18.652l-15.914,4.422A9.729,9.729,0,0,1,4246.9,895.416Zm-5.842-8.056a6.079,6.079,0,0,0,7.484,4.229l15.914-4.422a6.079,6.079,0,1,0-3.254-11.714l-15.915,4.422a6.085,6.085,0,0,0-4.229,7.484Z" transform="translate(-4123.198 -813.98)" fill="#fff"/>
          <path id="Tracé_390" data-name="Tracé 390" d="M4232.2,968.607a9.68,9.68,0,0,1-2.594-19.006l15.914-4.422a9.679,9.679,0,1,1,5.183,18.651l-15.914,4.423A9.66,9.66,0,0,1,4232.2,968.607Zm15.91-20.182a6.062,6.062,0,0,0-1.626.223l-15.915,4.422a6.079,6.079,0,1,0,3.256,11.714l15.914-4.423a6.079,6.079,0,0,0-1.629-11.936Z" transform="translate(-4112.012 -869.607)" fill="#fff"/>
          <path id="Tracé_391" data-name="Tracé 391" d="M4194.139,1047.677a9.682,9.682,0,0,1-2.577-19.009l15.914-4.423a9.679,9.679,0,1,1,5.183,18.652l-15.915,4.422A9.723,9.723,0,0,1,4194.139,1047.677Zm15.938-20.187a6.11,6.11,0,0,0-1.636.225l-15.915,4.422a6.078,6.078,0,0,0-4.229,7.484h0a6.079,6.079,0,0,0,7.484,4.229l15.914-4.422a6.081,6.081,0,0,0-1.619-11.938Z" transform="translate(-4083.096 -929.692)" fill="#fff"/>
          <path id="Tracé_392" data-name="Tracé 392" d="M3931.285,1260.686a1.8,1.8,0,0,1-1.621-2.581l16.14-33.556a1.81,1.81,0,0,1,1.662-1.019c.274.006.548.009.817.009,16.415,0,23.928-11.292,24-11.408a1.8,1.8,0,0,1,3.021,1.959,28.191,28.191,0,0,1-6.827,6.746,34.17,34.17,0,0,1-19.927,6.3l-15.645,32.527A1.8,1.8,0,0,1,3931.285,1260.686Z" transform="translate(-3889.318 -1072.126)" fill="#fff"/>
        </g>
        <path id="Tracé_393" data-name="Tracé 393" d="M3610.932,1030.882a1.8,1.8,0,0,1-1.751-1.389,111.782,111.782,0,0,1-2.056-39.435,1.8,1.8,0,1,1,3.572.451,108.226,108.226,0,0,0,1.989,38.16,1.8,1.8,0,0,1-1.754,2.213Z" transform="translate(-3606.246 -857.907)" fill="#fff" opacity="0.3"/>
        <path id="Tracé_394" data-name="Tracé 394" d="M3787.514,1367.418a109.511,109.511,0,0,1-49.871-11.847,111.7,111.7,0,0,1-38.122-31.7,1.8,1.8,0,0,1,2.861-2.186,108.072,108.072,0,0,0,36.886,30.669,105.935,105.935,0,0,0,48.246,11.46,108.055,108.055,0,0,0,19.323-1.739,1.8,1.8,0,1,1,.646,3.542A111.674,111.674,0,0,1,3787.514,1367.418Z" transform="translate(-3676.851 -1110.593)" fill="#fff" opacity="0.3"/>
        <path id="Tracé_395" data-name="Tracé 395" d="M4495.912,1150.185a1.8,1.8,0,0,1-1.737-2.278c.893-3.245,1.639-6.572,2.218-9.888a1.8,1.8,0,0,1,3.547.62c-.6,3.428-1.371,6.868-2.293,10.223A1.8,1.8,0,0,1,4495.912,1150.185Z" transform="translate(-4280.991 -970.416)" fill="#fff" opacity="0.3"/>
        <path id="Tracé_396" data-name="Tracé 396" d="M4446.817,824.025a1.8,1.8,0,0,1-1.758-1.426,105.941,105.941,0,0,0-18.122-40.576,1.8,1.8,0,0,1,2.911-2.12,109.5,109.5,0,0,1,18.733,41.946,1.8,1.8,0,0,1-1.386,2.136A1.824,1.824,0,0,1,4446.817,824.025Z" transform="translate(-4229.679 -698.832)" fill="#fff" opacity="0.3"/>
        <g id="Groupe_1412" data-name="Groupe 1412" transform="translate(2.221 180.268)">
          <g id="Groupe_1410" data-name="Groupe 1410" transform="translate(0 9.241)" opacity="0.3">
            <path id="Tracé_397" data-name="Tracé 397" d="M3621.14,1237.6h-3.84a1.8,1.8,0,0,1,0-3.6h3.84a1.8,1.8,0,1,1,0,3.6Z" transform="translate(-3615.5 -1234)" fill="#fff"/>
            <path id="Tracé_398" data-name="Tracé 398" d="M3681.621,1237.6H3677.3a1.8,1.8,0,0,1,0-3.6h4.321a1.8,1.8,0,1,1,0,3.6Z" transform="translate(-3661.098 -1234)" fill="#fff"/>
          </g>
          <g id="Groupe_1411" data-name="Groupe 1411" transform="translate(9.241)">
            <path id="Tracé_399" data-name="Tracé 399" d="M3655.8,1264.941a1.8,1.8,0,0,1-1.8-1.8v-3.84a1.8,1.8,0,1,1,3.6,0v3.84A1.8,1.8,0,0,1,3655.8,1264.941Z" transform="translate(-3654 -1242.618)" fill="#fff" opacity="0.3"/>
            <path id="Tracé_400" data-name="Tracé 400" d="M3655.8,1203.421a1.8,1.8,0,0,1-1.8-1.8v-4.32a1.8,1.8,0,0,1,3.6,0v4.32A1.8,1.8,0,0,1,3655.8,1203.421Z" transform="translate(-3654 -1195.5)" fill="#fff" opacity="0.3"/>
          </g>
        </g>
        <g id="Groupe_1415" data-name="Groupe 1415" transform="translate(206.733 133.941)" opacity="0.3">
          <g id="Groupe_1413" data-name="Groupe 1413" transform="translate(0 9.241)">
            <path id="Tracé_401" data-name="Tracé 401" d="M4473.141,1044.6h-3.84a1.8,1.8,0,0,1,0-3.6h3.84a1.8,1.8,0,1,1,0,3.6Z" transform="translate(-4467.5 -1041)" fill="#fff"/>
            <path id="Tracé_402" data-name="Tracé 402" d="M4533.621,1044.6h-4.32a1.8,1.8,0,0,1,0-3.6h4.32a1.8,1.8,0,0,1,0,3.6Z" transform="translate(-4513.098 -1041)" fill="#fff"/>
          </g>
          <g id="Groupe_1414" data-name="Groupe 1414" transform="translate(9.241)">
            <path id="Tracé_403" data-name="Tracé 403" d="M4507.8,1071.941a1.8,1.8,0,0,1-1.8-1.8V1066.3a1.8,1.8,0,0,1,3.6,0v3.841A1.8,1.8,0,0,1,4507.8,1071.941Z" transform="translate(-4506 -1049.618)" fill="#fff"/>
            <path id="Tracé_404" data-name="Tracé 404" d="M4507.8,1010.421a1.8,1.8,0,0,1-1.8-1.8V1004.3a1.8,1.8,0,0,1,3.6,0v4.321A1.8,1.8,0,0,1,4507.8,1010.421Z" transform="translate(-4506 -1002.5)" fill="#fff"/>
          </g>
        </g>
        <g id="Groupe_1418" data-name="Groupe 1418" transform="translate(75.432 0)" opacity="0.3">
          <g id="Groupe_1416" data-name="Groupe 1416" transform="translate(0 9.241)">
            <path id="Tracé_405" data-name="Tracé 405" d="M3926.141,486.6H3922.3a1.8,1.8,0,1,1,0-3.6h3.841a1.8,1.8,0,0,1,0,3.6Z" transform="translate(-3920.5 -483)" fill="#fff"/>
            <path id="Tracé_406" data-name="Tracé 406" d="M3986.621,486.6h-4.32a1.8,1.8,0,0,1,0-3.6h4.32a1.8,1.8,0,1,1,0,3.6Z" transform="translate(-3966.098 -483)" fill="#fff"/>
          </g>
          <g id="Groupe_1417" data-name="Groupe 1417" transform="translate(9.241)">
            <path id="Tracé_407" data-name="Tracé 407" d="M3960.8,513.941a1.8,1.8,0,0,1-1.8-1.8V508.3a1.8,1.8,0,1,1,3.6,0v3.841A1.8,1.8,0,0,1,3960.8,513.941Z" transform="translate(-3959 -491.618)" fill="#fff"/>
            <path id="Tracé_408" data-name="Tracé 408" d="M3960.8,452.421a1.8,1.8,0,0,1-1.8-1.8V446.3a1.8,1.8,0,1,1,3.6,0v4.321A1.8,1.8,0,0,1,3960.8,452.421Z" transform="translate(-3959 -444.5)" fill="#fff"/>
          </g>
        </g>
        <g id="Groupe_1421" data-name="Groupe 1421" transform="translate(201.212 193.95)" opacity="0.3">
          <g id="Groupe_1419" data-name="Groupe 1419" transform="translate(0 9.241)">
            <path id="Tracé_409" data-name="Tracé 409" d="M4450.141,1294.6H4446.3a1.8,1.8,0,1,1,0-3.6h3.841a1.8,1.8,0,0,1,0,3.6Z" transform="translate(-4444.5 -1291)" fill="#fff"/>
            <path id="Tracé_410" data-name="Tracé 410" d="M4510.621,1294.6H4506.3a1.8,1.8,0,1,1,0-3.6h4.321a1.8,1.8,0,0,1,0,3.6Z" transform="translate(-4490.098 -1291)" fill="#fff"/>
          </g>
          <g id="Groupe_1420" data-name="Groupe 1420" transform="translate(9.241)">
            <path id="Tracé_411" data-name="Tracé 411" d="M4484.8,1321.941a1.8,1.8,0,0,1-1.8-1.8V1316.3a1.8,1.8,0,0,1,3.6,0v3.841A1.8,1.8,0,0,1,4484.8,1321.941Z" transform="translate(-4483 -1299.618)" fill="#fff"/>
            <path id="Tracé_412" data-name="Tracé 412" d="M4484.8,1260.421a1.8,1.8,0,0,1-1.8-1.8V1254.3a1.8,1.8,0,0,1,3.6,0v4.321A1.8,1.8,0,0,1,4484.8,1260.421Z" transform="translate(-4483 -1252.5)" fill="#fff"/>
          </g>
        </g>
        <path id="Tracé_413" data-name="Tracé 413" d="M3713.535,1069.361a5.835,5.835,0,1,1,5.835-5.835A5.842,5.842,0,0,1,3713.535,1069.361Zm0-8.07a2.234,2.234,0,1,0,2.234,2.234A2.237,2.237,0,0,0,3713.535,1061.292Z" transform="translate(-3683.348 -910.503)" fill="#fff" opacity="0.3"/>
        <path id="Tracé_414" data-name="Tracé 414" d="M4029.813,582.852a5.835,5.835,0,1,1,5.835-5.835A5.842,5.842,0,0,1,4029.813,582.852Zm0-8.07a2.234,2.234,0,1,0,2.234,2.234A2.237,2.237,0,0,0,4029.813,574.783Z" transform="translate(-3923.707 -540.774)" fill="#fff" opacity="0.3"/>
        <path id="Tracé_415" data-name="Tracé 415" d="M4375.813,1212.852a5.835,5.835,0,1,1,5.836-5.835A5.842,5.842,0,0,1,4375.813,1212.852Zm0-8.07a2.234,2.234,0,1,0,2.234,2.234A2.237,2.237,0,0,0,4375.813,1204.783Z" transform="translate(-4186.654 -1019.551)" fill="#fff" opacity="0.3"/>
      </g>
      <path id="Tracé_416" data-name="Tracé 416" d="M3693.067,492.781a1.8,1.8,0,0,1,1.37,2.146l-6.615,29.944a1.8,1.8,0,1,1-3.516-.776l6.226-28.186-65.383-14.443-6.59,30.749a1.8,1.8,0,1,1-3.52-.755l6.97-32.521a1.8,1.8,0,0,1,2.149-1.381" transform="translate(-54.717 -25.091)" fill="#fff"/>
      <g id="Groupe_1423" data-name="Groupe 1423" transform="translate(3543 491.907)">
        <path id="Tracé_417" data-name="Tracé 417" d="M3603.66,706.755h-.012l-23.606-.149a1.8,1.8,0,0,1,.011-3.6h.012l23.605.149a1.8,1.8,0,0,1-.011,3.6Z" transform="translate(-3569.791 -688.362)" fill="#fff"/>
        <path id="Tracé_418" data-name="Tracé 418" d="M3603.464,764.81h-.011l-23.605-.149a1.8,1.8,0,0,1,.022-3.6l23.606.149a1.8,1.8,0,0,1-.011,3.6Z" transform="translate(-3569.643 -732.481)" fill="#fff"/>
        <path id="Tracé_419" data-name="Tracé 419" d="M3724.573,765.519h-.011l-16.023-.1a1.8,1.8,0,0,1,.011-3.6h.012l16.023.1a1.8,1.8,0,0,1-.012,3.6Z" transform="translate(-3667.444 -733.057)" fill="#fff"/>
        <path id="Tracé_420" data-name="Tracé 420" d="M3603.464,797.81h-.011l-23.605-.149a1.8,1.8,0,0,1,.022-3.6l23.606.149a1.8,1.8,0,0,1-.011,3.6Z" transform="translate(-3569.643 -757.56)" fill="#fff"/>
        <path id="Tracé_421" data-name="Tracé 421" d="M3724.573,798.519h-.011l-16.023-.1a1.8,1.8,0,0,1,.011-3.6h.012l16.023.1a1.8,1.8,0,0,1-.012,3.6Z" transform="translate(-3667.444 -758.135)" fill="#fff"/>
        <path id="Tracé_422" data-name="Tracé 422" d="M3603.464,834.81h-.011l-23.605-.149a1.8,1.8,0,0,1,.022-3.6l23.606.149a1.8,1.8,0,0,1-.011,3.6Z" transform="translate(-3569.643 -785.678)" fill="#fff"/>
        <path id="Tracé_423" data-name="Tracé 423" d="M3724.573,835.519h-.011l-16.023-.1a1.8,1.8,0,0,1,.011-3.6h.012l16.023.1a1.8,1.8,0,0,1-.012,3.6Z" transform="translate(-3667.444 -786.254)" fill="#fff"/>
        <path id="Tracé_424" data-name="Tracé 424" d="M3603.464,870.81h-.011l-23.605-.149a1.8,1.8,0,0,1,.022-3.6l23.606.149a1.8,1.8,0,0,1-.011,3.6Z" transform="translate(-3569.643 -813.037)" fill="#fff"/>
        <path id="Tracé_425" data-name="Tracé 425" d="M3724.573,871.519h-.011l-16.023-.1a1.8,1.8,0,0,1,.011-3.6h.012l16.023.1a1.8,1.8,0,0,1-.012,3.6Z" transform="translate(-3667.444 -813.613)" fill="#fff"/>
        <path id="Tracé_426" data-name="Tracé 426" d="M3607.327,715.211h-57.842a6.491,6.491,0,0,1-6.484-6.484V648.484a6.491,6.491,0,0,1,6.484-6.484h57.842a6.491,6.491,0,0,1,6.484,6.484v60.243A6.492,6.492,0,0,1,3607.327,715.211ZM3549.484,645.6a2.887,2.887,0,0,0-2.884,2.884v60.243a2.887,2.887,0,0,0,2.884,2.884h57.842a2.887,2.887,0,0,0,2.884-2.884V648.484a2.887,2.887,0,0,0-2.884-2.884Z" transform="translate(-3543 -642)" fill="#fff"/>
      </g>
      <g id="Groupe_1424" data-name="Groupe 1424" transform="translate(3695.694 649.491)">
        <path id="Tracé_427" data-name="Tracé 427" d="M4208.13,1356.509a29,29,0,1,1,29-29A29.038,29.038,0,0,1,4208.13,1356.509Zm0-54.408a25.4,25.4,0,1,0,25.4,25.4A25.433,25.433,0,0,0,4208.13,1302.1Z" transform="translate(-4179.126 -1298.5)" fill="#fff"/>
        <path id="Tracé_428" data-name="Tracé 428" d="M4279,1363.544v26.819l17.4-13.387Z" transform="translate(-4255.026 -1347.931)" fill="#fff" stroke="#fff" stroke-linecap="round" stroke-linejoin="round" stroke-width="2"/>
      </g>
    </g>
  </g>
</svg>
