<svg xmlns="http://www.w3.org/2000/svg" viewBox="0 0 243.12 249.96"><g opacity="0.3"><path d="M5.89,172.69h-4a1.88,1.88,0,1,1,0-3.76h4a1.88,1.88,0,0,1,0,3.76Z" fill="#fff"/><path d="M21.41,172.69h-4.5a1.88,1.88,0,0,1,0-3.76h4.5a1.88,1.88,0,1,1,0,3.76Z" fill="#fff"/><path d="M11.52,182.58a1.88,1.88,0,0,1-1.88-1.88h0v-4a1.88,1.88,0,0,1,3.76,0v4a1.88,1.88,0,0,1-1.88,1.88Z" fill="#fff"/><path d="M11.52,167.55a1.87,1.87,0,0,1-1.88-1.87h0v-4.51a1.88,1.88,0,0,1,3.76,0v4.51a1.88,1.88,0,0,1-1.88,1.87Z" fill="#fff"/><path d="M82.27,13.4h-4a1.88,1.88,0,1,1,0-3.76h4a1.88,1.88,0,1,1,0,3.76Z" fill="#fff"/><path d="M97.8,13.4H93.29a1.88,1.88,0,0,1,0-3.76H97.8a1.88,1.88,0,1,1,0,3.76Z" fill="#fff"/><path d="M87.91,23.29A1.88,1.88,0,0,1,86,21.41v-4a1.88,1.88,0,0,1,3.76,0v4a1.88,1.88,0,0,1-1.88,1.88Z" fill="#fff"/><path d="M87.91,8.26A1.88,1.88,0,0,1,86,6.39V1.88a1.88,1.88,0,0,1,3.76,0h0V6.39a1.88,1.88,0,0,1-1.88,1.87Z" fill="#fff"/><path d="M223,46h-4a1.88,1.88,0,0,1,0-3.76h4A1.88,1.88,0,0,1,223,46Z" fill="#fff"/><path d="M238.56,46h-4.51a1.88,1.88,0,1,1,0-3.76h4.51a1.88,1.88,0,0,1,0,3.76Z" fill="#fff"/><path d="M228.67,55.85A1.88,1.88,0,0,1,226.79,54V50a1.88,1.88,0,1,1,3.75,0h0v4a1.88,1.88,0,0,1-1.87,1.88Z" fill="#fff"/><path d="M228.67,40.82A1.88,1.88,0,0,1,226.79,39V34.44a1.88,1.88,0,1,1,3.75,0V39a1.87,1.87,0,0,1-1.87,1.87Z" fill="#fff"/><path d="M33.7,216a6.09,6.09,0,1,1,6.09-6.08h0A6.09,6.09,0,0,1,33.7,216Zm0-8.42A2.34,2.34,0,1,0,36,209.92a2.33,2.33,0,0,0-2.33-2.33Z" fill="#fff"/><path d="M234.05,98.21a6.09,6.09,0,1,1,6.09-6.09h0A6.11,6.11,0,0,1,234.05,98.21Zm0-8.42a2.33,2.33,0,1,0,2.33,2.33A2.33,2.33,0,0,0,234.05,89.79Z" fill="#fff"/></g><g opacity="0.3"><path d="M184.21,32.69a1.81,1.81,0,0,1-1-.27c-.83-.5-1.68-1-2.52-1.45a1.88,1.88,0,0,1,1.85-3.28c.86.49,1.74,1,2.59,1.51a1.88,1.88,0,0,1-1,3.49Z" fill="#fff"/><path d="M8.44,148a1.88,1.88,0,0,1-1.86-1.64,120.08,120.08,0,0,1,0-30.13A117.36,117.36,0,0,1,21,72.73a1.88,1.88,0,0,1,3.27,1.85,113.74,113.74,0,0,0-14,42.08,117.26,117.26,0,0,0,0,29.18,1.87,1.87,0,0,1-1.62,2.1Z" fill="#fff"/><path d="M66,234.36a1.84,1.84,0,0,1-.94-.25,119.62,119.62,0,0,1-13.15-8.81,1.88,1.88,0,0,1,2.29-3,115.53,115.53,0,0,0,12.74,8.54,1.87,1.87,0,0,1,.69,2.56,1.85,1.85,0,0,1-1.63.94Z" fill="#fff"/><path d="M124.37,250a119.23,119.23,0,0,1-31.21-4.14,1.88,1.88,0,0,1,1-3.63h0A115.91,115.91,0,0,0,149,243.57a1.88,1.88,0,0,1,.8,3.67A119.86,119.86,0,0,1,124.37,250Z" fill="#fff"/><path d="M181.66,235a1.88,1.88,0,0,1-.93-3.52c2.81-1.58,5.59-3.3,8.26-5.12a1.88,1.88,0,0,1,2.11,3.11c-2.75,1.87-5.62,3.65-8.52,5.29A2,2,0,0,1,181.66,235Z" fill="#fff"/><path d="M211.08,211.45a1.88,1.88,0,0,1-1.39-3.14,115.13,115.13,0,0,0,26.44-49.93,1.88,1.88,0,1,1,3.65.89h0a118.72,118.72,0,0,1-27.31,51.56A1.84,1.84,0,0,1,211.08,211.45Z" fill="#fff"/><path d="M241.24,133.1a1.89,1.89,0,0,1-1.88-1.88c0-3.46-.16-7-.46-10.38-.25-2.8-.61-5.63-1.06-8.4a1.87,1.87,0,1,1,3.7-.61h0c.47,2.86.84,5.78,1.1,8.68.32,3.53.48,7.13.48,10.71a1.88,1.88,0,0,1-1.88,1.88Z" fill="#fff"/></g><g opacity="0.3"><path d="M168.18,24.63a1.86,1.86,0,0,1-.7-.14,115.06,115.06,0,0,0-56-7.43,1.88,1.88,0,1,1-.44-3.73A118.81,118.81,0,0,1,168.88,21a1.88,1.88,0,0,1-.7,3.62Z" fill="#fff"/></g><path d="M75.13,83a2.27,2.27,0,0,0,2.27-2.27V69.36A13.43,13.43,0,0,1,90.81,56h57.93a13.43,13.43,0,0,1,13.41,13.41V84.22a2.27,2.27,0,0,0,4.54,0V69.36a18,18,0,0,0-17.95-18H90.81a18,18,0,0,0-18,18V80.69A2.26,2.26,0,0,0,75.13,83Z" fill="#fff"/><path d="M164.43,158.67a2.28,2.28,0,0,0-2.28,2.27v27.95a13.41,13.41,0,0,1-13.4,13.41H90.81A13.42,13.42,0,0,1,77.4,188.89V90.37a2.28,2.28,0,0,0-4.55,0v98.52a18,18,0,0,0,18,18h57.93a18,18,0,0,0,17.95-18V161a2.27,2.27,0,0,0-2.27-2.28Z" fill="#fff"/><path d="M155.34,87.59a2.27,2.27,0,0,0,2.27-2.27v-16a8.87,8.87,0,0,0-8.86-8.87H145a4.25,4.25,0,0,0-3.95,2.74l-.9,2.38A4.46,4.46,0,0,1,136,68.49H103.57a4.48,4.48,0,0,1-4.17-2.88l-.89-2.38a4.25,4.25,0,0,0-4-2.74H90.81a8.89,8.89,0,0,0-8.87,8.87V188.89a8.89,8.89,0,0,0,8.87,8.87h40.85a2.27,2.27,0,0,0,0-4.54H90.81a4.33,4.33,0,0,1-4.32-4.33V69.36A4.33,4.33,0,0,1,90.81,65h3.53l.81,2.17A9,9,0,0,0,103.57,73H136a9,9,0,0,0,8.42-5.83l.81-2.17h3.53a4.34,4.34,0,0,1,4.32,4.33v16a2.27,2.27,0,0,0,2.27,2.27Z" fill="#fff"/><path d="M148.75,197.76a8.87,8.87,0,0,0,8.86-8.87V161a2.27,2.27,0,0,0-4.54,0v27.9a4.33,4.33,0,0,1-4.33,4.33h-7.4a2.27,2.27,0,0,0,0,4.54Z" fill="#fff"/><path d="M132.44,64.18a2.28,2.28,0,0,0,0-4.55h-24a2.28,2.28,0,0,0,0,4.55Z" fill="#fff"/><path d="M186.27,113.83a22.79,22.79,0,0,0-2.29-10l2.25-2.25a7.47,7.47,0,0,0-10.57-10.56l-2.26,2.27a22.93,22.93,0,0,0-20.87.48,2.27,2.27,0,1,0,2.18,4h0a18.27,18.27,0,0,1,21.66,29h0l-9.72,9.72L156,125.81a2.27,2.27,0,1,0-3.21,3.21l11.27,11.27-3.2,9.45a1.07,1.07,0,0,1-1.36.67,1.12,1.12,0,0,1-.42-.25l-31.95-32a1.06,1.06,0,0,1,0-1.51,1,1,0,0,1,.42-.26l10.79-3.65a2.26,2.26,0,0,0,.88-.55l8.58-8.58a2.27,2.27,0,0,0-3.21-3.21l-8.21,8.21-10.29,3.48a5.62,5.62,0,0,0-3.52,7.12,5.71,5.71,0,0,0,1.35,2.17l9.07,9.07a9.81,9.81,0,0,0,13.8,13.8l9.08,9.08a5.6,5.6,0,0,0,4,1.65,5.68,5.68,0,0,0,1.29-.15,5.61,5.61,0,0,0,4-3.67l3.48-10.29,11-10.95a22.66,22.66,0,0,0,6.68-16.13Zm-7.39-19.57a2.93,2.93,0,0,1,4.18,4.1l0,0-1.5,1.5a25.35,25.35,0,0,0-1.94-2.21,22.62,22.62,0,0,0-2.21-1.93Zm-42,46.12a5.28,5.28,0,0,1-.67-6.64l7.31,7.31a5.28,5.28,0,0,1-6.64-.67Z" fill="#fff"/><path d="M145.71,118.74a2.29,2.29,0,0,0,0,3.22h0l1.17,1.17a2.28,2.28,0,1,0,3.22-3.22l-1.17-1.17a2.29,2.29,0,0,0-3.22,0Z" fill="#fff"/><path d="M137,83.33a17.66,17.66,0,0,0-19.18,16c0,.19,0,.39,0,.58a2.26,2.26,0,0,0,2.13,2.4h.14a2.26,2.26,0,0,0,2.26-2.13,13.12,13.12,0,0,1,13.84-12.34l.45,0a2.27,2.27,0,0,0,.4-4.53Z" fill="#fff"/><path d="M136.87,92.45A8.6,8.6,0,0,0,127,99.52a9,9,0,0,0-.11,1.55,2.28,2.28,0,0,0,2.27,2.24h0a2.27,2.27,0,0,0,2.24-2.31h0a4.05,4.05,0,0,1,4-4.12,3.64,3.64,0,0,1,.74.05,2.27,2.27,0,0,0,.74-4.48Z" fill="#fff"/><path d="M194,140.24a2.27,2.27,0,0,0-4.53.4h0a13.1,13.1,0,0,1-11.85,14.24l-.46,0a2.27,2.27,0,0,0,.14,4.54h.13A17.65,17.65,0,0,0,194,140.83c0-.2,0-.4,0-.59Z" fill="#fff"/><path d="M176.34,150.41a8.6,8.6,0,0,0,8.6-8.6,9.33,9.33,0,0,0-.11-1.4,2.28,2.28,0,0,0-4.49.74,4,4,0,0,1-3.33,4.66,4.49,4.49,0,0,1-.73.06,2.27,2.27,0,1,0-.07,4.54Z" fill="#fff"/></svg>