<svg xmlns="http://www.w3.org/2000/svg" width="48.175" height="40.632" viewBox="0 0 48.175 40.632"><g transform="translate(0 -40.081)"><g transform="translate(0 40.081)"><g transform="translate(0 0)"><path d="M45.206,40.081H2.968A2.972,2.972,0,0,0,0,43.049V71.711a2.972,2.972,0,0,0,2.968,2.968H17.254L16.676,79.3H14.282a.706.706,0,1,0,0,1.411H33.893a.706.706,0,1,0,0-1.411H31.5l-.578-4.623H45.206a2.972,2.972,0,0,0,2.968-2.968V43.049A2.972,2.972,0,0,0,45.206,40.081ZM18.1,79.3l.578-4.623h2.6l.255,1.019a2.638,2.638,0,0,0,5.118,0l.255-1.019h2.6l.578,4.623Zm4.63-4.623h2.718l-.169.677a1.226,1.226,0,0,1-2.38,0Zm24.035-2.968h0a1.559,1.559,0,0,1-1.557,1.557H2.968a1.559,1.559,0,0,1-1.557-1.557V43.049a1.559,1.559,0,0,1,1.557-1.557H45.206a1.559,1.559,0,0,1,1.557,1.557V71.711Z" transform="translate(0 -40.081)" fill="#ffa100"/></g></g><g transform="translate(3.017 43.098)"><g transform="translate(0 0)"><path d="M68.974,72.146H32.77a.706.706,0,0,0-.706.706V100a.706.706,0,0,0,.706.706h1.509a.706.706,0,0,0,0-1.411h-.8V73.557h35.5a.706.706,0,0,0,0-1.411Z" transform="translate(-32.064 -72.146)" fill="#ffa100"/></g></g><g transform="translate(7.543 43.098)"><g transform="translate(0 0)"><path d="M117.072,72.146h-1.509a.706.706,0,0,0,0,1.411h.8V99.3h-35.5a.706.706,0,1,0,0,1.411h36.2a.706.706,0,0,0,.706-.706V72.852A.706.706,0,0,0,117.072,72.146Z" transform="translate(-80.162 -72.146)" fill="#ffa100"/></g></g><g transform="translate(12.822 47.623)"><g transform="translate(0 0)"><path d="M157.148,123.529a.705.705,0,0,0-.524-.27l-16.593-.754h-.039a1.462,1.462,0,0,0-.587-.79l-2.032-1.355a.706.706,0,0,0-.783,1.174l2.032,1.355a.049.049,0,0,1,.02.027l2.588,9.059a2.222,2.222,0,0,0,.384.756l-.947,1.894a1.45,1.45,0,0,0,.064,1.42,1.466,1.466,0,0,0,.362.4,2.214,2.214,0,1,0,3.985.294h6.434a2.214,2.214,0,1,0,4.045-.183.7.7,0,0,0-.473-1.228H141.973a.049.049,0,0,1-.043-.07l.872-1.745a2.215,2.215,0,0,0,.552.07,2.273,2.273,0,0,0,.264-.016l9.916-1.167a2.961,2.961,0,0,0,2.564-2.366l1.186-5.931A.706.706,0,0,0,157.148,123.529Zm-3.573,13.209a.8.8,0,1,1-.8.8A.8.8,0,0,1,153.575,136.737Zm-10.559,0a.8.8,0,1,1-.8.8A.8.8,0,0,1,143.016,136.737Zm-1.731-9.708-.884-3.1,2.821.128.489,2.967Zm2.168,5.135a.8.8,0,0,1-.866-.577l-.9-3.147h2.256l.593,3.6Zm4.137-.487-1.65.194-.566-3.431h2.215Zm0-4.648h-2.448l-.478-2.9,2.926.133Zm3.574,4.228-2.162.254v-3.071h2.417Zm.383-4.228H149v-2.7l2.778.126Zm3.168,2.727A1.553,1.553,0,0,1,153.369,131l-.773.091.24-2.648h2.141Zm.545-2.727h-2.3l.228-2.514,2.548.116Z" transform="translate(-136.276 -120.241)" fill="#ffa100"/></g></g></g></svg>