<svg xmlns="http://www.w3.org/2000/svg" viewBox="0 0 243.116 249.962">
  <g id="Groupe_1408" data-name="Groupe 1408" transform="translate(-3584.5 -528.5)">
    <g id="Groupe_1405" data-name="Groupe 1405" transform="translate(3584.5 528.5)">
      <g id="Groupe_1404" data-name="Groupe 1404" transform="translate(0 0)">
        <g id="Groupe_1401" data-name="Groupe 1401" opacity="0.3">
          <g id="Groupe_1394" data-name="Groupe 1394" transform="translate(0 159.29)">
            <g id="Groupe_1392" data-name="Groupe 1392" transform="translate(0 9.643)">
              <path id="Tracé_338" data-name="Tracé 338" d="M3590.386,1206.757h-4.007a1.878,1.878,0,0,1,0-3.757h4.007a1.878,1.878,0,1,1,0,3.757Z" transform="translate(-3584.5 -1203)" fill="#fff"/>
              <path id="Tracé_339" data-name="Tracé 339" d="M3650.887,1206.757h-4.508a1.878,1.878,0,1,1,0-3.757h4.508a1.878,1.878,0,0,1,0,3.757Z" transform="translate(-3629.473 -1203)" fill="#fff"/>
            </g>
            <g id="Groupe_1393" data-name="Groupe 1393" transform="translate(9.643)">
              <path id="Tracé_340" data-name="Tracé 340" d="M3624.879,1234.264a1.878,1.878,0,0,1-1.879-1.878v-4.007a1.879,1.879,0,0,1,3.757,0v4.007A1.878,1.878,0,0,1,3624.879,1234.264Z" transform="translate(-3623 -1210.972)" fill="#fff"/>
              <path id="Tracé_341" data-name="Tracé 341" d="M3624.879,1172.765a1.878,1.878,0,0,1-1.879-1.878v-4.508a1.879,1.879,0,0,1,3.757,0v4.508A1.878,1.878,0,0,1,3624.879,1172.765Z" transform="translate(-3623 -1164.5)" fill="#fff"/>
            </g>
          </g>
          <g id="Groupe_1397" data-name="Groupe 1397" transform="translate(76.389)">
            <g id="Groupe_1395" data-name="Groupe 1395" transform="translate(0 9.643)">
              <path id="Tracé_342" data-name="Tracé 342" d="M3895.386,570.757h-4.008a1.878,1.878,0,0,1,0-3.757h4.008a1.878,1.878,0,0,1,0,3.757Z" transform="translate(-3889.5 -567)" fill="#fff"/>
              <path id="Tracé_343" data-name="Tracé 343" d="M3955.887,570.757h-4.508a1.878,1.878,0,0,1,0-3.757h4.508a1.878,1.878,0,0,1,0,3.757Z" transform="translate(-3934.473 -567)" fill="#fff"/>
            </g>
            <g id="Groupe_1396" data-name="Groupe 1396" transform="translate(9.643)">
              <path id="Tracé_344" data-name="Tracé 344" d="M3929.879,598.264a1.878,1.878,0,0,1-1.878-1.878v-4.007a1.878,1.878,0,0,1,3.757,0v4.007A1.878,1.878,0,0,1,3929.879,598.264Z" transform="translate(-3928 -574.972)" fill="#fff"/>
              <path id="Tracé_345" data-name="Tracé 345" d="M3929.879,536.765a1.878,1.878,0,0,1-1.878-1.878v-4.508a1.878,1.878,0,0,1,3.757,0v4.508A1.878,1.878,0,0,1,3929.879,536.765Z" transform="translate(-3928 -528.5)" fill="#fff"/>
            </g>
          </g>
          <g id="Groupe_1400" data-name="Groupe 1400" transform="translate(217.145 32.559)">
            <g id="Groupe_1398" data-name="Groupe 1398" transform="translate(0 9.643)">
              <path id="Tracé_346" data-name="Tracé 346" d="M4457.386,700.757h-4.007a1.878,1.878,0,1,1,0-3.757h4.007a1.878,1.878,0,0,1,0,3.757Z" transform="translate(-4451.5 -697)" fill="#fff"/>
              <path id="Tracé_347" data-name="Tracé 347" d="M4517.887,700.757h-4.508a1.878,1.878,0,1,1,0-3.757h4.508a1.878,1.878,0,1,1,0,3.757Z" transform="translate(-4496.473 -697)" fill="#fff"/>
            </g>
            <g id="Groupe_1399" data-name="Groupe 1399" transform="translate(9.643)">
              <path id="Tracé_348" data-name="Tracé 348" d="M4491.878,728.264a1.878,1.878,0,0,1-1.878-1.878v-4.007a1.878,1.878,0,0,1,3.757,0v4.007A1.878,1.878,0,0,1,4491.878,728.264Z" transform="translate(-4490 -704.972)" fill="#fff"/>
              <path id="Tracé_349" data-name="Tracé 349" d="M4491.878,666.765a1.878,1.878,0,0,1-1.878-1.878v-4.508a1.878,1.878,0,0,1,3.757,0v4.508A1.878,1.878,0,0,1,4491.878,666.765Z" transform="translate(-4490 -658.5)" fill="#fff"/>
            </g>
          </g>
          <path id="Tracé_350" data-name="Tracé 350" d="M3700.834,1354.545a6.088,6.088,0,1,1,6.088-6.088A6.1,6.1,0,0,1,3700.834,1354.545Zm0-8.42a2.331,2.331,0,1,0,2.331,2.331A2.334,2.334,0,0,0,3700.834,1346.126Z" transform="translate(-3667.135 -1138.531)" fill="#fff"/>
          <path id="Tracé_351" data-name="Tracé 351" d="M4500.779,884.19a6.088,6.088,0,1,1,6.088-6.088A6.1,6.1,0,0,1,4500.779,884.19Zm0-8.42a2.331,2.331,0,1,0,2.331,2.331A2.334,2.334,0,0,0,4500.779,875.77Z" transform="translate(-4266.729 -785.978)" fill="#fff"/>
        </g>
        <g id="Groupe_1402" data-name="Groupe 1402" transform="translate(5.627 27.452)" opacity="0.3">
          <path id="Tracé_352" data-name="Tracé 352" d="M4306.736,643.346a1.87,1.87,0,0,1-.962-.266c-.829-.5-1.674-.986-2.512-1.457a1.878,1.878,0,1,1,1.844-3.273c.865.487,1.738.994,2.594,1.505a1.879,1.879,0,0,1-.965,3.491Z" transform="translate(-4128.155 -638.107)" fill="#fff"/>
          <path id="Tracé_353" data-name="Tracé 353" d="M3609.778,891.259a1.879,1.879,0,0,1-1.861-1.642,120.318,120.318,0,0,1-.009-30.125,117.546,117.546,0,0,1,14.439-43.466,1.879,1.879,0,0,1,3.268,1.853,113.812,113.812,0,0,0-13.981,42.084,116.581,116.581,0,0,0,.01,29.181,1.879,1.879,0,0,1-1.627,2.1A1.915,1.915,0,0,1,3609.778,891.259Z" transform="translate(-3606.966 -770.752)" fill="#fff"/>
          <path id="Tracé_354" data-name="Tracé 354" d="M3803.664,1427.044a1.868,1.868,0,0,1-.938-.252,119.35,119.35,0,0,1-13.152-8.815,1.878,1.878,0,1,1,2.294-2.975,115.621,115.621,0,0,0,12.737,8.537,1.878,1.878,0,0,1-.941,3.505Z" transform="translate(-3743.29 -1220.131)" fill="#fff"/>
          <path id="Tracé_355" data-name="Tracé 355" d="M3983.531,1503.08a119.049,119.049,0,0,1-31.209-4.145,1.878,1.878,0,1,1,.985-3.625,115.93,115.93,0,0,0,54.82,1.377,1.878,1.878,0,0,1,.8,3.671A119.507,119.507,0,0,1,3983.531,1503.08Z" transform="translate(-3864.787 -1280.569)" fill="#fff"/>
          <path id="Tracé_356" data-name="Tracé 356" d="M4304.187,1439.9a1.879,1.879,0,0,1-.924-3.516c2.809-1.583,5.585-3.306,8.252-5.12a1.878,1.878,0,1,1,2.113,3.106c-2.753,1.874-5.62,3.653-8.521,5.287A1.868,1.868,0,0,1,4304.187,1439.9Z" transform="translate(-4128.155 -1232.373)" fill="#fff"/>
          <path id="Tracé_357" data-name="Tracé 357" d="M4421.659,1209.646a1.878,1.878,0,0,1-1.393-3.138,115.088,115.088,0,0,0,26.447-49.933,1.878,1.878,0,1,1,3.651.884,118.848,118.848,0,0,1-27.312,51.568A1.874,1.874,0,0,1,4421.659,1209.646Z" transform="translate(-4216.207 -1025.645)" fill="#fff"/>
          <path id="Tracé_358" data-name="Tracé 358" d="M4537.436,991.572a1.879,1.879,0,0,1-1.878-1.878c0-3.46-.155-6.951-.461-10.376-.251-2.806-.608-5.632-1.063-8.4a1.878,1.878,0,1,1,3.707-.609c.47,2.858.839,5.776,1.1,8.673.316,3.536.477,7.139.477,10.711A1.878,1.878,0,0,1,4537.436,991.572Z" transform="translate(-4301.825 -885.928)" fill="#fff"/>
        </g>
        <g id="Groupe_1403" data-name="Groupe 1403" transform="translate(109.374 12.523)" opacity="0.3">
          <path id="Tracé_359" data-name="Tracé 359" d="M4080.009,590.609a1.874,1.874,0,0,1-.7-.135,115.088,115.088,0,0,0-56.013-7.435,1.878,1.878,0,0,1-.44-3.731,118.86,118.86,0,0,1,57.847,7.677,1.879,1.879,0,0,1-.7,3.623Z" transform="translate(-4021.201 -578.502)" fill="#fff"/>
        </g>
      </g>
    </g>
    <g id="Groupe_1407" data-name="Groupe 1407" transform="translate(3619.846 569.974)">
      <g id="Groupe_1406" data-name="Groupe 1406" transform="translate(103.829 70.219)">
        <path id="Tracé_360" data-name="Tracé 360" d="M4183.278,1070.52h-33.194a9.91,9.91,0,0,1-9.9-9.9V984.359a9.91,9.91,0,0,1,9.9-9.9h33.194a9.91,9.91,0,0,1,9.9,9.9v76.262A9.91,9.91,0,0,1,4183.278,1070.52Zm-33.194-92.3a6.149,6.149,0,0,0-6.143,6.142v76.262a6.149,6.149,0,0,0,6.143,6.142h33.194a6.149,6.149,0,0,0,6.142-6.142V984.359a6.149,6.149,0,0,0-6.142-6.142Z" transform="translate(-4140.184 -974.46)" fill="#fff"/>
        <path id="Tracé_361" data-name="Tracé 361" d="M4194.414,1282.7H4147.4a1.878,1.878,0,0,1,0-3.757h47.011a1.878,1.878,0,0,1,0,3.757Z" transform="translate(-4144.188 -1202.684)" fill="#fff"/>
        <path id="Tracé_362" data-name="Tracé 362" d="M4233.072,1315.474h-6.716a1.878,1.878,0,1,1,0-3.757h6.716a1.878,1.878,0,1,1,0,3.757Z" transform="translate(-4203.366 -1227.249)" fill="#fff"/>
        <path id="Tracé_363" data-name="Tracé 363" d="M4193.671,1020.52h-47.756a1.878,1.878,0,1,1,0-3.757h47.756a1.878,1.878,0,1,1,0,3.757Z" transform="translate(-4143.071 -1006.168)" fill="#fff"/>
      </g>
      <path id="Tracé_364" data-name="Tracé 364" d="M3819.744,826.388H3740.45a14.841,14.841,0,0,1-14.825-14.824V708.918a14.841,14.841,0,0,1,14.825-14.824h145.639a14.841,14.841,0,0,1,14.824,14.824V811.563a14.8,14.8,0,0,1-9.053,13.659,1.879,1.879,0,0,1-1.464-3.46,11.053,11.053,0,0,0,6.76-10.2V708.918a11.08,11.08,0,0,0-11.068-11.067H3740.45a11.08,11.08,0,0,0-11.068,11.067V811.563a11.08,11.08,0,0,0,11.068,11.067h79.294a1.878,1.878,0,1,1,0,3.757Z" transform="translate(-3725.625 -694.094)" fill="#fff"/>
      <path id="Tracé_365" data-name="Tracé 365" d="M3823.938,1142.673h-90.663a1.878,1.878,0,1,1,0-3.757h90.663a1.878,1.878,0,0,1,0,3.757Z" transform="translate(-3729.951 -1027.508)" fill="#fff"/>
      <path id="Tracé_366" data-name="Tracé 366" d="M3911.915,1249.057h-65.424a1.878,1.878,0,1,1,0-3.757h27.037a13.886,13.886,0,0,0,13.87-13.87v-16.9a1.878,1.878,0,1,1,3.757,0v16.9a17.608,17.608,0,0,1-6.76,13.87h27.521a1.878,1.878,0,0,1,0,3.757Z" transform="translate(-3814.811 -1082.778)" fill="#fff"/>
      <path id="Tracé_367" data-name="Tracé 367" d="M3789.879,828.754a1.879,1.879,0,0,1-1.233-3.3l32.1-27.89a1.878,1.878,0,0,1,2.3-.123l17.852,12.425L3870.581,786a1.879,1.879,0,0,1,2.012-.219L3893.8,796.3l29.261-20.891a1.879,1.879,0,0,1,2.183,3.058l-30.178,21.546a1.879,1.879,0,0,1-1.926.154L3872,789.681l-29.833,24a1.879,1.879,0,0,1-2.25.078l-17.805-12.393-31,26.931A1.873,1.873,0,0,1,3789.879,828.754Z" transform="translate(-3772.378 -754.778)" fill="#fff"/>
      <path id="Tracé_368" data-name="Tracé 368" d="M4185.81,1097.278a1.878,1.878,0,0,1-1.333-3.2l8.242-8.31a1.878,1.878,0,0,1,2.034-.42l7.359,2.958,9.673-9.039a1.878,1.878,0,1,1,2.564,2.745l-10.547,9.855a1.878,1.878,0,0,1-1.982.37l-7.313-2.939-7.364,7.425A1.872,1.872,0,0,1,4185.81,1097.278Z" transform="translate(-4069.146 -982.418)" fill="#fff"/>
      <path id="Tracé_369" data-name="Tracé 369" d="M3820.421,1015.343a1.878,1.878,0,0,1-1.878-1.878V992.571a1.878,1.878,0,1,1,3.757,0v20.893A1.878,1.878,0,0,1,3820.421,1015.343Z" transform="translate(-3795.271 -916.408)" fill="#fff"/>
      <path id="Tracé_370" data-name="Tracé 370" d="M3875.54,981.846a1.878,1.878,0,0,1-1.878-1.878V947.881a1.878,1.878,0,1,1,3.757,0v32.086A1.878,1.878,0,0,1,3875.54,981.846Z" transform="translate(-3836.585 -882.911)" fill="#fff"/>
      <path id="Tracé_371" data-name="Tracé 371" d="M3930.657,959.515a1.879,1.879,0,0,1-1.879-1.878V918.089a1.879,1.879,0,0,1,3.757,0v39.548A1.878,1.878,0,0,1,3930.657,959.515Z" transform="translate(-3877.897 -860.58)" fill="#fff"/>
      <path id="Tracé_372" data-name="Tracé 372" d="M3985.775,988.546a1.878,1.878,0,0,1-1.878-1.878V956.819a1.879,1.879,0,0,1,3.757,0v29.848A1.879,1.879,0,0,1,3985.775,988.546Z" transform="translate(-3919.211 -889.61)" fill="#fff"/>
      <path id="Tracé_373" data-name="Tracé 373" d="M4040.893,970.68a1.878,1.878,0,0,1-1.878-1.878V932.984a1.878,1.878,0,1,1,3.756,0V968.8A1.878,1.878,0,0,1,4040.893,970.68Z" transform="translate(-3960.524 -871.745)" fill="#fff"/>
      <path id="Tracé_374" data-name="Tracé 374" d="M4096.011,940.534a1.878,1.878,0,0,1-1.878-1.878V892.764a1.878,1.878,0,0,1,3.757,0v45.891A1.878,1.878,0,0,1,4096.011,940.534Z" transform="translate(-4001.838 -841.598)" fill="#fff"/>
      <path id="Tracé_375" data-name="Tracé 375" d="M4151.128,896.154a1.878,1.878,0,0,1-1.879-1.878V882.336a1.879,1.879,0,0,1,3.757,0v11.939A1.878,1.878,0,0,1,4151.128,896.154Z" transform="translate(-4043.15 -833.782)" fill="#fff"/>
      <path id="Tracé_376" data-name="Tracé 376" d="M4206.246,909.553a1.878,1.878,0,0,1-1.878-1.878v-7.462a1.878,1.878,0,0,1,3.757,0v7.462A1.878,1.878,0,0,1,4206.246,909.553Z" transform="translate(-4084.463 -847.181)" fill="#fff"/>
      <path id="Tracé_377" data-name="Tracé 377" d="M4261.363,889.454a1.878,1.878,0,0,1-1.878-1.878V873.4a1.878,1.878,0,0,1,3.757,0v14.178A1.878,1.878,0,0,1,4261.363,889.454Z" transform="translate(-4125.776 -827.083)" fill="#fff"/>
      <path id="Tracé_378" data-name="Tracé 378" d="M4316.481,866.006a1.878,1.878,0,0,1-1.878-1.878V842.115a1.879,1.879,0,0,1,3.757,0v22.013A1.879,1.879,0,0,1,4316.481,866.006Z" transform="translate(-4167.09 -803.635)" fill="#fff"/>
      <path id="Tracé_379" data-name="Tracé 379" d="M4186.135,1183.671a1.878,1.878,0,0,1-1.878-1.878v-17.909a1.878,1.878,0,0,1,3.757,0v17.909A1.878,1.878,0,0,1,4186.135,1183.671Z" transform="translate(-4069.39 -1044.814)" fill="#fff"/>
      <path id="Tracé_380" data-name="Tracé 380" d="M4220.4,1166.922a1.878,1.878,0,0,1-1.878-1.878v-23.505a1.879,1.879,0,0,1,3.757,0v23.505A1.879,1.879,0,0,1,4220.4,1166.922Z" transform="translate(-4095.072 -1028.065)" fill="#fff"/>
      <path id="Tracé_381" data-name="Tracé 381" d="M4254.659,1169.156a1.879,1.879,0,0,1-1.878-1.879v-22.759a1.879,1.879,0,0,1,3.757,0v22.759A1.879,1.879,0,0,1,4254.659,1169.156Z" transform="translate(-4120.751 -1030.299)" fill="#fff"/>
      <path id="Tracé_382" data-name="Tracé 382" d="M4288.922,1150.173a1.878,1.878,0,0,1-1.878-1.879v-29.1a1.878,1.878,0,0,1,3.757,0v29.1A1.878,1.878,0,0,1,4288.922,1150.173Z" transform="translate(-4146.433 -1011.317)" fill="#fff"/>
    </g>
  </g>
</svg>
