<svg xmlns="http://www.w3.org/2000/svg" width="39.342" height="39.341" viewBox="0 0 39.342 39.341"><path d="M37.037,21.217h-.768V15.838a4.464,4.464,0,0,0-3.476-4.347L29.3,5.434a3.839,3.839,0,0,0-4.426-1.758L22.326,1.133a3.842,3.842,0,0,0-5.428,0L6.65,11.381H4.457A4.462,4.462,0,0,0,0,15.838V34.894a4.462,4.462,0,0,0,4.457,4.457h10.22a.768.768,0,1,0,0-1.537H4.457a2.923,2.923,0,0,1-2.92-2.92V15.838a2.923,2.923,0,0,1,2.92-2.92H31.812a2.923,2.923,0,0,1,2.92,2.92v5.379H29.046a4.149,4.149,0,1,0,0,8.3h5.686v5.379a2.923,2.923,0,0,1-2.92,2.92H21.592a.768.768,0,1,0,0,1.537h10.22a4.462,4.462,0,0,0,4.457-4.457V29.516h.768a2.308,2.308,0,0,0,2.305-2.305V23.522A2.308,2.308,0,0,0,37.037,21.217ZM26.567,5.13a2.286,2.286,0,0,1,1.4,1.072l2.99,5.179H14.392L24.821,5.36a2.286,2.286,0,0,1,1.746-.23ZM17.985,2.22a2.3,2.3,0,0,1,3.254,0L23.416,4.4l-12.1,6.985H8.823ZM37.806,27.21a.769.769,0,0,1-.768.768H29.046a2.613,2.613,0,0,1,0-5.225h7.991a.769.769,0,0,1,.768.768Z" transform="translate(0 -0.011)" fill="#ffa100"/><path d="M367.1,319.988a.769.769,0,1,0,.543.225A.774.774,0,0,0,367.1,319.988Z" transform="translate(-338.181 -295.401)" fill="#ffa100"/><path d="M226.768,491.988a.769.769,0,1,0,.543.225A.774.774,0,0,0,226.768,491.988Z" transform="translate(-208.634 -454.184)" fill="#ffa100"/></svg>