<svg xmlns="http://www.w3.org/2000/svg" viewBox="0 0 200 200">
  <defs/>
  <path fill="#1d1d1b" d="M182.9 40.8h-50.1c-9.4-7.8-21.2-12.1-33.4-12.2-12.3-.3-24.3 4-33.6 12.2H17.1C7.6 40.8 0 48.4 0 57.8v96.5c0 9.4 7.6 17.1 17.1 17.1h165.8c9.4 0 17.1-7.7 17.1-17.1V57.8c-.1-9.4-7.7-17-17.1-17zm-35.4 35.9v-.4c0-9.4-2.5-18.5-7.2-26.6h42.4l-35.2 27zm-21.1 2.1c0 15-12.2 27.2-27.2 27.2S72 93.8 72 78.8s12.2-27.2 27.2-27.2c15 .1 27.1 12.2 27.2 27.2zM58.6 49.6c-4.8 8.1-7.5 17.4-7.7 26.8v1.3L16.8 49.6h41.8zm132.6 104.7c0 4.5-3.7 8.2-8.2 8.2H17.1c-4.5 0-8.2-3.7-8.2-8.2V57.8c0-1 .2-1.9.5-2.9l43 35.5c7.9 38.4 43.8 65.3 43.8 65.3 35.3-29.7 46.5-53.3 49.9-66.8l44.4-34.3c.4 1 .6 2.1.6 3.1v96.6z"/>
</svg>
