<svg xmlns="http://www.w3.org/2000/svg" id="Calque_1" x="0" y="0" version="1.1" viewBox="0 0 200 200" xml:space="preserve">
  <defs/>
  <g id="suzuki_relance" transform="translate(-125.2)">
    <path id="Tracé_270" d="M183.8 168.2h83.8V22.1h-83.8v146.1zM187.7 26h75.9v138.3h-75.9V26z" class="st0"/>
    <path id="Tracé_271" d="M257.2 0h-63.9c-10.8 0-19.6 8.8-19.6 19.6v160.9c0 10.8 8.8 19.6 19.6 19.6h63.8c10.8 0 19.6-8.8 19.6-19.6V19.6C276.7 8.8 268 0 257.2 0zm15.6 180.4c0 8.6-7 15.6-15.6 15.6h-63.9c-8.6 0-15.6-7-15.6-15.6V19.6c0-8.6 7-15.6 15.6-15.6h63.8c8.6 0 15.6 7 15.6 15.6l.1 160.8z" class="st0"/>
    <path id="Tracé_272" d="M214.6 17.8h22.7c2.5 0 4.5-2 4.5-4.5s-2-4.5-4.5-4.5h-22.7c-2.5 0-4.5 2-4.5 4.5s2.1 4.5 4.5 4.5z" class="st0"/>
    <path id="Tracé_273" d="M225.8 170c-6.5 0-11.7 5.3-11.7 11.7 0 6.5 5.3 11.7 11.7 11.7 6.5 0 11.7-5.3 11.7-11.7 0-6.5-5.2-11.7-11.7-11.7zm0 18.8c-3.9 0-7.1-3.2-7.1-7.1s3.2-7.1 7.1-7.1c3.9 0 7.1 3.2 7.1 7.1 0 3.9-3.2 7.1-7.1 7.1z" class="st0"/>
    <path id="Tracé_274" d="M215 78.6l10.2 5.9v-8.7L215 69.7v8.9z" class="st0"/>
    <path id="Tracé_275" d="M228.9 113l9.9-6v-8l-9.9 5.7v8.3z" class="st0"/>
    <path id="Tracé_276" d="M215 121.4l10.2-6.1v-8.5l-10.2 5.8v8.8z" class="st0"/>
    <path id="Tracé_277" d="M228.9 86.7l9.9 5.8v-8.4l-9.9-6v8.6z" class="st0"/>
    <path id="Tracé_278" d="M242.6 94.6l1.9 1.1-1.9 1.1v8l9.4-5.7V92l-9.4-5.7v8.3z" class="st0"/>
    <path id="Tracé_279" d="M200.9 70.5l10.4 6v-9l-10.4-6.2v9.2z" class="st0"/>
    <path id="Tracé_280" d="M200.9 129.8l10.4-6.2v-8.9l-10.4 6v9.1z" class="st0"/>
  </g>
</svg>
