<svg xmlns="http://www.w3.org/2000/svg" id="Calque_1" x="0" y="0" version="1.1" viewBox="0 0 207.4 200" xml:space="preserve">
  <defs/>
  <g id="suzukipro" transform="translate(-2.098 -9.978)">
    <path id="Tracé_266" d="M74.2 66.4l77.3 79.6s-7.5 29 26.1 34.7c0 0 9.1 1.4 5.9-3.9l-8.2-8.9c-1.5-1.5-1.5-3.9-.1-5.4l.1-.1 15.3-13.6c1.7-1.2 4-1.1 5.6.2l8.4 8.4s5.3 5.1 5-5c0 0 1.8-27.4-34.1-27.8L98.6 45.2s7.4-29.7-28.4-35.1c0 0-7.3-.8-3.9 3.9l8.6 9.5c1.1 1.4 1 3.5-.4 4.7l-15.7 14s-2.5 2.9-5.1.5l-8.5-9.5s-5.2-4.1-5.1 4.2c0-.1-1.5 30.7 34.1 29z" class="st0"/>
    <g id="Groupe_1148" transform="translate(2.098 23.979)">
      <path id="Tracé_267" d="M58 102.5c-13.1 0-23.7 10.6-23.7 23.7s10.6 23.7 23.7 23.7 23.7-10.6 23.7-23.7c.1-13.1-10.6-23.7-23.7-23.7zm0 42.8c-10.5 0-19.1-8.5-19.1-19.1 0-10.5 8.5-19.1 19.1-19.1s19.1 8.5 19.1 19.1c0 10.6-8.5 19.1-19.1 19.1z" class="st0"/>
      <path id="Tracé_268" d="M58 95.1c-17.2 0-31.1 13.9-31.1 31.1 0 17.2 13.9 31.1 31.1 31.1s31.1-13.9 31.1-31.1c.1-17.1-13.9-31.1-31.1-31.1zm0 57.6c-14.6 0-26.5-11.9-26.5-26.5S43.4 99.7 58 99.7s26.5 11.9 26.5 26.5-11.8 26.5-26.5 26.5z" class="st0"/>
      <path id="Tracé_269" d="M109.3 132.2l-2.9-1.6c.1-1.4.2-2.8.2-4.1 0-1.6-.1-3.3-.3-4.9l3.2-1.8c5.9-3.4 8.1-10.9 4.7-16.8l-7.1-12.6c-3.3-6-10.9-8.1-16.8-4.7l-3.6 2c-2.8-2.1-5.9-3.8-9.1-5.3v-4.1c0-6.8-5.5-12.3-12.4-12.4H50.8c-6.8 0-12.3 5.5-12.4 12.4v4.3c-3.2 1.5-6.3 3.3-9.1 5.4l-3.6-2c-2.9-1.6-6.2-2-9.4-1.1-3.2.9-5.8 3-7.4 5.9l-7 12.7c-3.3 6-1.1 13.5 4.8 16.8l3.5 1.9c-.1 1.5-.2 2.9-.2 4.3s0 2.7.2 4.1l-3.9 2.2c-6 3.3-8.1 10.9-4.7 16.8l7.1 12.6c3.4 6 10.9 8.1 16.9 4.7l3.6-2c2.9 2.2 6 4.1 9.4 5.6v3.1c0 6.8 5.5 12.3 12.4 12.4h14.5c6.8 0 12.3-5.5 12.4-12.4v-2.9c3.5-1.5 6.8-3.5 9.8-5.8l2.8 1.5c1.8 1 3.9 1.5 6 1.5 4.5 0 8.7-2.4 10.8-6.4l7-12.7c1.6-2.9 2-6.3 1-9.4-1-3-3.2-5.6-6-7.2zm.1 14.3l-7 12.7c-1.2 2.3-3.6 3.6-6.2 3.6-1.2 0-2.4-.3-3.4-.9l-5.9-3.3-1.4 1.1c-3.5 2.8-7.4 5.1-11.5 6.8l-1.7.7v6.5c0 3.9-3.1 7-7 7H50.8c-3.9 0-7-3.1-7-7V167l-1.7-.7c-4-1.6-7.7-3.9-11.1-6.6l-1.4-1.1-6.8 3.8c-3.3 1.9-7.6.8-9.5-2.6v-.1l-7.1-12.6c-.9-1.6-1.1-3.6-.6-5.3.5-1.8 1.7-3.3 3.3-4.2l7-3.9-.2-1.8c-.2-1.7-.3-3.4-.3-5.2 0-1.8.1-3.7.4-5.5l.3-1.8-6.6-3.6c-1.6-.9-2.8-2.4-3.3-4.2-.5-1.8-.3-3.7.6-5.3l6.9-12.8c.9-1.6 2.4-2.8 4.2-3.3 1.8-.5 3.7-.3 5.3.6l6.7 3.7 1.4-1.1c3.3-2.7 6.9-4.8 10.8-6.4l1.7-.7v-7.9c0-3.9 3.2-7 7-7h14.5c3.9 0 7 3.1 7 7v7.7l1.7.7c3.9 1.5 7.6 3.7 10.9 6.3l1.4 1.1 6.6-3.7c1.6-.9 3.6-1.1 5.3-.6 1.8.5 3.3 1.7 4.2 3.3l7.1 12.6c1.9 3.4.7 7.7-2.7 9.6l-6.3 3.6.3 1.8c.3 2 .4 4 .4 6 0 1.8-.1 3.5-.3 5.3l-.2 1.8 5.9 3.3c1.6.9 2.8 2.4 3.3 4.2.7 1.5.4 3.4-.5 5.1z" class="st0"/>
    </g>
  </g>
</svg>
