<svg xmlns="http://www.w3.org/2000/svg" id="Calque_1" x="0" y="0" version="1.1" viewBox="0 0 200 200" xml:space="preserve">
  <defs/>
  <g id="Groupe_1358" transform="translate(-1.856 -36.2)">
    <g id="Groupe_1149" transform="translate(1.856 36.2)">
      <path id="Tracé_281" d="M100.1 120h81.8c3.8 0 4.7-1 4.7-4.7V31.6c0-3.8-1-4.9-4.8-4.9H18.2c-3.8 0-4.8 1-4.8 4.9v83.5c0 4 .9 4.9 5 4.9h81.7m26.1 40c.9 3.3 1.4 6.1 2.5 8.8 1 2.8 2.4 5.3 3.6 8 1.9 3 1 7.1-2.1 9-1.2.8-2.7 1.1-4.2.9H73.9c-3.6.3-6.8-2.3-7.2-5.9-.1-1.4.2-2.9 1-4.1 1.5-3.3 3.1-6.6 4.4-10 .7-2.2 1.2-4.5 1.5-6.8H17.8c-6 .4-11.8-2.6-15.1-7.6-1.8-2.9-2.8-6.2-2.6-9.6v-58C0 66.5 0 48.3 0 30c-.1-7.5 5-14.1 12.4-16 1.7-.4 3.5-.6 5.2-.6h164.8c9.2-.5 17.1 6.5 17.6 15.7v113.6c.3 8-5.1 15-13 16.7-1.8.3-3.6.4-5.4.4h-55.4v.2z" class="st0"/>
    </g>
    <path id="Tracé_282" d="M125.7 115.6c-4.6 1.7-9.1 3.9-13.2 6.6-3.9 2.2-7.5 4.9-10.8 8l-24-16.5s10.1-7.4 18.6-1.7l11.3 7.8 1.4-.9-31.3-22c4.6-1.7 9.1-3.9 13.2-6.6 3.9-2.2 7.5-4.9 10.8-8l24 16.5s-10.1 7.4-18.6 1.7l-11.3-7.8-1.4.9 31.3 22z" class="st0"/>
  </g>
</svg>
