<svg xmlns="http://www.w3.org/2000/svg" width="40.63" height="43.533" viewBox="0 0 40.63 43.533"><path d="M32.378,52.18c.333.181,8.236,4.442,16.309,4.442.8,0,1.617-.037,2.442-.109l-.49,2.122a.726.726,0,0,0,.87.87l6.669-1.539.017,0,.043-.012.027-.01.038-.015.03-.014.033-.017.032-.019.027-.018.033-.024.023-.018.033-.03.013-.012L70.842,45.46l.513-.513A4.353,4.353,0,1,0,65.2,38.79l-.513.513L62.959,41.03A17.36,17.36,0,0,0,57.336,34.6a15.385,15.385,0,0,0-4.709-2.137,8.706,8.706,0,1,0-7.882,0,15.748,15.748,0,0,0-7.891,4.967A21.358,21.358,0,0,0,32,51.543a.726.726,0,0,0,.378.637ZM52.315,57.83l.984-4.263,3.279,3.279Zm13.91-18.014a2.9,2.9,0,1,1,4.1,4.1ZM65.2,40.842l4.1,4.1L58.016,56.233l-4.1-4.1ZM41.432,24.7a7.255,7.255,0,1,1,7.255,7.255A7.255,7.255,0,0,1,41.432,24.7ZM37.948,38.38A14.1,14.1,0,0,1,48.687,33.4c5.63,0,10.537,3.249,13.191,8.706l-9.5,9.5-.012.013-.029.032-.017.021c-.009.012-.018.023-.026.035l-.015.023-.022.037-.014.026-.017.036c0,.01-.009.021-.013.032s-.009.022-.012.034-.007.025-.011.038,0,.014-.006.022l-.705,3.056a27.028,27.028,0,0,1-2.787.149c-6.728,0-13.567-3.227-15.232-4.067A19.779,19.779,0,0,1,37.948,38.38Z" transform="translate(-32 -15.991)" fill="#ffa100"/></svg>