<svg  viewBox="0 0 200 200"><g><path fill="#f6a019" d="M170,0H30A30,30,0,0,0,0,30V171.28H0c0,.48.06.95.1,1.43v.07c0,.46.1.91.16,1.36,0,0,0,.08,0,.12.06.43.13.87.21,1.29l0,.17c.08.41.17.83.27,1.24,0,.06,0,.13,0,.19.1.4.21.79.32,1.18a2,2,0,0,0,.07.23c.11.38.23.76.36,1.13,0,.08,0,.17.08.25.13.36.27.72.41,1.08,0,.09.07.18.11.27.14.35.29.69.44,1l.13.3c.15.32.31.65.48,1,.05.1.1.21.16.31.16.32.33.62.51.93l.18.33.54.87.22.35.56.82c.08.12.16.24.25.35.19.27.38.53.58.78l.28.36c.2.25.4.49.61.73a3.65,3.65,0,0,0,.31.36c.2.24.41.47.62.69l.35.37.63.64.38.36.65.6.42.36.66.55.45.35.67.51.48.34.68.47.52.33c.22.15.45.29.68.42l.55.32.69.39.59.3.68.34.63.28c.22.1.45.21.68.3l.66.26.69.26.69.24.68.22c.24.08.49.14.73.21l.68.19.76.17.67.15.81.15.65.11c.29.05.59.08.89.11l.59.08,1,.08.49,0c.5,0,1,0,1.52,0H170c.51,0,1,0,1.52,0l.49,0,1-.08.59-.08c.3,0,.6-.06.89-.11l.65-.11.81-.15.67-.15.76-.17.68-.19c.24-.07.49-.13.73-.21l.68-.22.69-.24.69-.26.66-.26c.23-.09.46-.2.68-.3l.63-.28.68-.34.59-.3.69-.39.55-.32c.23-.13.46-.27.68-.42l.52-.33.68-.47.48-.34.67-.51.45-.35.66-.55.42-.36.65-.6.38-.36.63-.64.35-.37c.21-.22.42-.45.62-.69a3.65,3.65,0,0,0,.31-.36c.21-.24.41-.48.61-.73l.28-.36c.2-.25.39-.51.58-.78.09-.11.17-.23.25-.35l.56-.82.22-.35.54-.87.18-.33c.18-.31.35-.61.51-.93.06-.1.11-.21.16-.31.17-.32.33-.65.48-1l.13-.3c.15-.34.3-.68.44-1,0-.09.08-.18.11-.27.14-.36.28-.72.41-1.08,0-.08.05-.17.08-.25.13-.37.25-.75.36-1.13a2,2,0,0,0,.07-.23c.11-.39.22-.78.32-1.18,0-.06,0-.13,0-.19.1-.41.19-.83.27-1.24l0-.17c.08-.42.15-.86.21-1.29,0,0,0-.08,0-.12.06-.45.12-.9.16-1.36v-.07c0-.48.08-1,.1-1.43h0V30A30,30,0,0,0,170,0ZM1,129V30A29,29,0,0,1,30,1H170a29,29,0,0,1,29,29v99Z"/></g><g ><path fill="#ffffff" d="M66.62,178.85a.51.51,0,0,1,.45.19.64.64,0,0,0,.26.26.22.22,0,0,0,.32,0,.34.34,0,0,1,.25-.17.69.69,0,0,0,.13.2c.13.13.22.19.26.19a.76.76,0,0,1,.16.1s.1,0,.22-.1c0-.51-.28-.78-.73-.8a1.86,1.86,0,0,1-1.13-.42.25.25,0,0,1-.06.29A.32.32,0,0,0,66.62,178.85Z"/><path fill="#ffffff" d="M45.56,180.38h0S45.58,180.38,45.56,180.38Z"/><path fill="#ffffff" d="M69.51,164a2.64,2.64,0,0,1-.39.26c-.08-.09-.08-.17,0-.23a.26.26,0,0,0,.13-.22s-.06-.11-.19-.2a1.58,1.58,0,0,1-.26-.19.63.63,0,0,1,0-.35.4.4,0,0,0-.1-.36c0-.08-.13-.11-.28-.09s-.23,0-.23-.1A4.58,4.58,0,0,0,68,163c0,.15-.11.33-.2.54a6,6,0,0,0-1.09,1.16l-1,1.35a8.43,8.43,0,0,0-1,1.22s0,0,0,.06v.07s0,0-.16,0-.18,0-.22,0a.3.3,0,0,0,0,.29.24.24,0,0,1-.07.28,2.14,2.14,0,0,1-.57.52,5.84,5.84,0,0,0-.58.38,2.61,2.61,0,0,0-.39.55.58.58,0,0,1-.64.29l.55-.71a4.3,4.3,0,0,0,.41-.64.86.86,0,0,1,.26-.19,1.07,1.07,0,0,0,.26-.2.44.44,0,0,0,0-.28.46.46,0,0,1,0-.29s0-.08.13-.1l.19,0a.16.16,0,0,0,0-.19.53.53,0,0,1-.06-.2s.1,0,.19,0,.15,0,.19,0,0-.1,0-.19-.07-.13,0-.13a.81.81,0,0,1,.29-.19c.1,0,.07-.09-.1-.13-.38.34-.79.69-1.22,1A9.27,9.27,0,0,0,62,168.38c-.08,0-.13,0-.16.06s-.07.07-.16-.06a.44.44,0,0,1,.32-.48.77.77,0,0,0,.45-.29.21.21,0,0,0,.07-.26.21.21,0,0,1,.06-.25c0-.09,0-.12.13-.1a.27.27,0,0,0,.26-.1.3.3,0,0,0,.06-.32.29.29,0,0,1,.07-.32,3.68,3.68,0,0,0,.7-.58c.26-.25.17-.49-.25-.7.08.21.05.3-.1.25a.33.33,0,0,0-.35.07.55.55,0,0,0-.16.22.28.28,0,0,1-.16.16,7,7,0,0,0-.55.61,1.29,1.29,0,0,1-.61.42,1.05,1.05,0,0,1,.42-.51,2.39,2.39,0,0,0,.54-.52,2.2,2.2,0,0,0,.39-.32.5.5,0,0,1,.32-.19.35.35,0,0,0,.29-.32.27.27,0,0,1,.29-.26c.17,0,.28-.06.32-.19a.69.69,0,0,1,.19-.32h.26s.09-.05.16-.13a1.19,1.19,0,0,1,.16-.19c.13-.22.29-.45.48-.71s.12-.51-.22-.77a.23.23,0,0,1,0,.26.26.26,0,0,1-.22.12c-.13,0-.17,0-.13.07a.09.09,0,0,1,0,.13.3.3,0,0,1-.26,0,.23.23,0,0,0-.25,0s-.09,0-.13.12a.69.69,0,0,1-.13.2l-.32.13-.26.06a.26.26,0,0,0-.22.13,2.68,2.68,0,0,1-.23.26.83.83,0,0,0-.25.19.43.43,0,0,1-.26.13c-.17,0-.27.06-.29.19a.86.86,0,0,1-.1.32s-.1,0-.19,0-.15,0-.19,0a.28.28,0,0,0-.16.16.69.69,0,0,1-.16.23c-.09.08-.13.13-.13.16s0,.07-.13.16a.2.2,0,0,1-.19,0l-.2,0a.25.25,0,0,0-.06.19.25.25,0,0,1-.06.19c-.09.09-.16.12-.23.1s-.14,0-.22.1a1.56,1.56,0,0,0-.23.28.55.55,0,0,1-.22.23c-.09.09-.15.13-.2.13a.17.17,0,0,0-.12.06,1.07,1.07,0,0,0-.26.19.36.36,0,0,1-.26.13c-.08,0-.12,0-.09.07s0,.08,0,.13a1.14,1.14,0,0,1-.38.16.52.52,0,0,0-.32.16c-.09.21-.19.34-.32.38a4.52,4.52,0,0,1-.55.45c-.19.13-.4.28-.61.45s-.42.34-.61.52a1.3,1.3,0,0,1-.67.31l-1.83-2.08A6.6,6.6,0,0,1,52,165a.22.22,0,0,1,.1-.2c.06,0,.07-.1,0-.19a.26.26,0,0,0-.13-.26.24.24,0,0,1-.13-.25,3.88,3.88,0,0,0,.65-.68,8.41,8.41,0,0,0,.51-.74,1.13,1.13,0,0,1,.32-.22.35.35,0,0,0,.19-.35c0-.13.05-.24.26-.33H54s0-.09,0-.16-.08-.11,0-.16a1.37,1.37,0,0,1,.35-.45,1.19,1.19,0,0,0,.35-.45,11.23,11.23,0,0,1,.74-.89c.28-.3.53-.58.74-.84a4.45,4.45,0,0,1,.48-.64l.42-.45a1,1,0,0,1,.26-.35.69.69,0,0,0,.19-.23s.11,0,.19,0,.15,0,.2,0,0-.13-.07-.25-.09-.22,0-.26c.26.21.38.23.35.06a.42.42,0,0,1,.1-.38c0-.05.1-.05.16,0a.12.12,0,0,0,.16,0c0-.05,0-.1,0-.16a.17.17,0,0,1,0-.23l.32-.13a3.52,3.52,0,0,0,.22-.58c.07-.21.12-.38.16-.51a.56.56,0,0,0,.32-.13c.13-.08.17-.17.13-.25a.19.19,0,0,1-.13-.07c-.12,0-.14,0-.06-.13a.21.21,0,0,1,.13.07.22.22,0,0,0,.06.13c.09,0,.15,0,.2-.1A.79.79,0,0,1,60,154s.11,0,.2,0,.15,0,.19,0a.15.15,0,0,0,0-.16.16.16,0,0,1,0-.16l.23-.19a1.12,1.12,0,0,0,.22-.19,1.09,1.09,0,0,0,.36-.45c.06-.17.22-.22.48-.13a4.18,4.18,0,0,1,.9-1.44,10.44,10.44,0,0,0,1-1.19.34.34,0,0,0,.13-.23c0-.06.06-.11.19-.16.22.22.26.38.13.48a.43.43,0,0,0-.19.29c0,.09,0,.15.09.2s.16.08.16.12a.4.4,0,0,1-.25.2.38.38,0,0,0-.26.19c-.21.21-.42.44-.61.67a2.64,2.64,0,0,0-.42.74c0-.08.09-.06.13.07s0,.15-.19.06a1,1,0,0,0,.13.29c0,.06,0,.16-.07.29a1.68,1.68,0,0,0,.93-.84,2.22,2.22,0,0,1,.87-.9c.09.22,0,.41-.29.58s-.31.32-.09.45c.08-.13.19-.31.32-.54s.23-.25.32,0c-.09,0-.24.2-.45.58a1.37,1.37,0,0,1-.19.35q-.2.3.12.36a10.43,10.43,0,0,1,.84-1.35,9.32,9.32,0,0,0,.83-1.35,5.49,5.49,0,0,1,.39-.7.22.22,0,0,0,0-.2.42.42,0,0,0-.09-.19.62.62,0,0,1,.19-.13.44.44,0,0,0,.19-.19.47.47,0,0,0,0-.29,1.06,1.06,0,0,1,0-.42s.08-.05.1,0,0,0,0-.1a.53.53,0,0,0,0-.32.25.25,0,0,1,.1-.25v-.71c0-.09,0-.13.07-.13a.05.05,0,0,0,.06-.06,6.09,6.09,0,0,0,.06-2.64,3.68,3.68,0,0,0-1.54-2.11c-.21-.3-.44-.59-.67-.87a3.7,3.7,0,0,0-.87-.74.37.37,0,0,0-.35-.1.43.43,0,0,1-.36-.09,2.33,2.33,0,0,0-.28-.26,2.52,2.52,0,0,1-.29-.26,1.12,1.12,0,0,1-.32-.29,1.9,1.9,0,0,0-.33-.29,1.78,1.78,0,0,0-.32-.25,1.66,1.66,0,0,0-.32-.19.48.48,0,0,0-.42-.1.92.92,0,0,1-.54-.1v-.19s0,0-.1,0a.12.12,0,0,1-.16,0s-.05,0,0-.06a.11.11,0,0,0,0-.13h-.39a2.92,2.92,0,0,0-1.25,0,4.35,4.35,0,0,1-1.44,0c.08.21,0,.31-.26.29a1,1,0,0,0-.58.09,1.43,1.43,0,0,0,0,.23c0,.1,0,.16-.16.16a1.19,1.19,0,0,0-.9.09q-.45.23-.51.36l-.39.13a.57.57,0,0,1-.25.06H53.9l-.67.19a.62.62,0,0,0-.29.32s0,.06-.16,0l-.22,0a1,1,0,0,0-.1.29.56.56,0,0,1-.16.29c0,.05-.1.05-.16,0s-.12,0-.16,0-.07.06-.07.16a.35.35,0,0,1-.06.23,1.08,1.08,0,0,1-.39.16.58.58,0,0,0-.32.16,2.21,2.21,0,0,0-.38.54c-.13.24-.26.46-.39.68a4,4,0,0,1-.48.51,1.76,1.76,0,0,0-.35.39c0,.08-.09.21-.26.38a18.32,18.32,0,0,0-1.19,2.25c-.36.81-.67,1.59-.93,2.31a1.82,1.82,0,0,1-.32.9l-.13.52v.22s0,.07-.13.16l-.06.51a.8.8,0,0,1-.07.39s0,.11,0,.19a.44.44,0,0,1,.07.19,4.16,4.16,0,0,0-.39,1.35,1.41,1.41,0,0,0,0,.58,1.1,1.1,0,0,1,0,.51s-.05.09-.16.13-.14.11-.09.2a.23.23,0,0,0,0,.25.62.62,0,0,1,.06.26.19.19,0,0,1-.06.13V155h-.07a.72.72,0,0,0,0,.48,1.18,1.18,0,0,1,.09.42,5.37,5.37,0,0,0,0,1c0,.36,0,.63,0,.8v1.35a6.42,6.42,0,0,1,.19.83,5.49,5.49,0,0,1,.07.84,13.22,13.22,0,0,0-1.93,1.54,3.61,3.61,0,0,0-.58.77,3.35,3.35,0,0,1-.51.71.69.69,0,0,1-.32.16.92.92,0,0,0-.39.16.78.78,0,0,0-.19.32c0,.13-.09.26-.13.38a1.79,1.79,0,0,1-.32.26,1.79,1.79,0,0,0-.32.26,1.9,1.9,0,0,0-.45.7,2.14,2.14,0,0,1-.39.71,1.67,1.67,0,0,1-.41.51,2.13,2.13,0,0,0-.36.39c-.08.17-.16.31-.22.42a1.25,1.25,0,0,0-.16.35l-.16.13a.38.38,0,0,0-.16.19.44.44,0,0,0-.07.19.53.53,0,0,1-.06.2.31.31,0,0,1-.16.16c-.07,0-.1.07-.1.16a4.58,4.58,0,0,0-.51,1.34,2,2,0,0,1-.51,1.1s-.07.14-.07.29a.48.48,0,0,1-.06.29.4.4,0,0,0,0,.29.87.87,0,0,1,0,.41s0,.1-.13.16a.29.29,0,0,0-.12.23,1.15,1.15,0,0,0,0,.48,2.83,2.83,0,0,1,0,.54,8.92,8.92,0,0,1-.2,1,2.67,2.67,0,0,0-.06,1,4.32,4.32,0,0,0,.19.58,3.1,3.1,0,0,1,.19.77,4,4,0,0,1,.16.87,2.6,2.6,0,0,0,.17.74s0,.06.09.06.1,0,.1.13a.56.56,0,0,0,.25.32.19.19,0,0,1,0,.2.16.16,0,0,0,0,.19s.07.12.22.22L39,181c.19.12.43.3.74.51q.12,0,.09.06c0,.05,0,.07.1.07l.48.29.42.22a3.5,3.5,0,0,0,.58.23l.57.16a.7.7,0,0,0,.55-.07.5.5,0,0,1,.29-.13.18.18,0,0,0,.06.13c0,.13,0,.15.13.07s.05-.13,0-.26a.22.22,0,0,1,.1-.26.36.36,0,0,1,.32-.09.33.33,0,0,0,.32-.1.31.31,0,0,0,.06-.35.51.51,0,0,1,.2-.48,6.69,6.69,0,0,1-1.19.29,5.86,5.86,0,0,1-1.32,0,5,5,0,0,1-1.19-.26,1.44,1.44,0,0,1-.8-.64c-.13-.17-.17-.27-.13-.29s0-.1,0-.23a1,1,0,0,0-.22-.44c-.15-.22-.1-.33.16-.33a.51.51,0,0,1,.35.36c.07.19.12.33.16.41l.2,0a.2.2,0,0,1,.19,0,.46.46,0,0,1,.19.2.27.27,0,0,0,.26.13c.08,0,.13,0,.13.09s0,.1.06.1a.65.65,0,0,0,.39,0,.62.62,0,0,1,.38,0,2.36,2.36,0,0,1,.23.13.55.55,0,0,0,.29.06s.05,0,0-.09,0,0,.1.09.19.11.19-.06v-.13l.45,0a1.09,1.09,0,0,0,.45,0,3.31,3.31,0,0,0,.61-.19c.19-.09.33-.09.41,0l.65.09a3.36,3.36,0,0,1,.38.07.12.12,0,0,1,.07,0v-.12q0-.13.12-.06a.83.83,0,0,0,.55.64c.28.08.59.17.93.25.09-.08.16-.11.22-.09a.82.82,0,0,0,.36,0,3.23,3.23,0,0,0,.32-.26.46.46,0,0,1,.32-.13s.13.07.26.19c.34.09.57,0,.67-.16a1,1,0,0,1,.42-.41.22.22,0,0,1,0,.22c0,.07,0,.12.06.16.05-.17.13-.26.26-.26s.09-.1-.13-.32a1.34,1.34,0,0,1,.23.16c.06.07.16.08.29,0s.09-.06.16-.17.11-.16.16-.16a.37.37,0,0,1,.25-.12.63.63,0,0,0,.26-.07.26.26,0,0,0,.16-.19.28.28,0,0,1,.16-.19.27.27,0,0,1,.26-.1.28.28,0,0,0,.26-.1s.07,0,.09-.09a.28.28,0,0,1,.16-.16.36.36,0,0,1,.26-.13.51.51,0,0,0,.26-.07s.06-.1.19-.19a1,1,0,0,0,.26-.19.44.44,0,0,0,.19-.19.63.63,0,0,1,.13-.2.57.57,0,0,1,.25-.06.62.62,0,0,0,.26-.06.21.21,0,0,0,.13-.2.2.2,0,0,1,.13-.19.53.53,0,0,1,.38-.19c.09,0,.11,0,.07-.07s0-.08.06-.12a2.65,2.65,0,0,1,.39-.23l.45-.23.29-.44a.71.71,0,0,1,.48-.33,9.38,9.38,0,0,0,.7.87,9.25,9.25,0,0,0,.77.74c.3.26.59.51.87.77s.53.49.74.71a5.24,5.24,0,0,1,.55.38,1.46,1.46,0,0,0,.35.26q.31.19.45.06a.21.21,0,0,1,.25-.06c.05,0,0,.13-.06.26s0,.21.13.25.46-.1.48-.06a2,2,0,0,0,.22.26.4.4,0,0,0,.29.09c.07,0,.16,0,.29.1a.54.54,0,0,1,.2.16,1.12,1.12,0,0,0,.19.22.54.54,0,0,0,.29.07.41.41,0,0,1,.29.13.28.28,0,0,1,.22.12.62.62,0,0,0,.23.2,1.14,1.14,0,0,0,.61.19.82.82,0,0,1,.48.13l.38.38a.15.15,0,0,1,0-.16c0-.06.07-.07.16,0s.08.07.1.19.07.17.16.13.12-.18.22-.16a.56.56,0,0,1,.29.16,1.12,1.12,0,0,0-.06-.61c-.09-.23,0-.31.32-.22-.13.13-.15.21-.07.25a1.75,1.75,0,0,0,.33.13l.35.16a.22.22,0,0,1,.1.29s0,.07-.13.07h-.55c-.06,0-.08,0,0,.12a2.43,2.43,0,0,1,1,.17,3.71,3.71,0,0,0,.9.22,1.35,1.35,0,0,0,.13-.29,1.2,1.2,0,0,1,.26-.29.94.94,0,0,1,.45,0q.32,0,0-.48a.47.47,0,0,0-.52-.16.89.89,0,0,1-.51,0,6.64,6.64,0,0,1-1.29-.29c-.47-.15-.77-.12-.89.1,0-.17,0-.27,0-.29a.73.73,0,0,0-.22,0,.78.78,0,0,1-.26,0,.15.15,0,0,1-.13-.16,1.42,1.42,0,0,1,.42-.06c.15,0,.18-.11.1-.32s-.06-.53-.29-.55a.41.41,0,0,1-.42-.35c.13.09.21.08.26,0a.82.82,0,0,0,0-.39,1.47,1.47,0,0,0-.13-.42c-.06-.12-.12-.19-.16-.19,0,.22-.07.2-.22,0a2.48,2.48,0,0,1-.29-.55.84.84,0,0,0-.58-.19c-.26,0-.37-.17-.32-.51,0-.17,0-.25.16-.23a.23.23,0,0,0,.29-.16q-.39.14-.45-.09c0-.15-.22-.21-.52-.17a.57.57,0,0,0-.38-.38c-.09-.08-.09-.15,0-.19s.06-.11-.07-.2c.09.18,0,.26-.35.26s-.46-.08-.42-.26c.3,0,.41-.1.32-.32a3.48,3.48,0,0,1-1.12-.57,9.47,9.47,0,0,0-1-.71c-.35-.21-.7-.45-1.06-.71a3.62,3.62,0,0,1-.93-.9.58.58,0,0,0,.54-.41c.06-.24.29-.34.67-.29.05.08,0,.18-.25.29s-.17.2.13.29c0-.18.12-.24.25-.2a.8.8,0,0,1,.32.2c0-.26,0-.4.23-.42a.74.74,0,0,0,.42-.16c.08-.13.09-.22,0-.26s0-.1.09-.19a.09.09,0,0,0,.13.13s0,0,.13-.13.15-.19.19-.19.05-.05.13,0,.15,0,.2,0,.1-.15.06-.2,0-.1.06-.19a.12.12,0,0,1,.16,0,.23.23,0,0,0,.23,0,.22.22,0,0,0,.13-.19c0-.09,0-.13.13-.13s.18-.07.16-.1,0-.05,0-.09a3.63,3.63,0,0,1,.42-.29,1,1,0,0,0,.28-.29,2.43,2.43,0,0,0,.26-.29.73.73,0,0,1,.26-.22.14.14,0,0,1,.16,0,.51.51,0,0,0,.22,0,.55.55,0,0,1,.07-.33,1.69,1.69,0,0,1,.38-.19.89.89,0,0,0,.33-.19,2,2,0,0,0,.38-.52.91.91,0,0,1,.32-.19,1.4,1.4,0,0,0,.39-.19c0,.17-.06.33-.29.48s-.23.29,0,.42a.28.28,0,0,1,.32-.32.36.36,0,0,0,.26-.13,1.07,1.07,0,0,0,.19-.26,1.89,1.89,0,0,0,.32-.38,2.9,2.9,0,0,0,1.13-.9,4.29,4.29,0,0,1,1-1c-.12-.26-.14-.42,0-.48s.12-.2,0-.42a3.06,3.06,0,0,1,.46-.32C69.66,164.14,69.68,164,69.51,164ZM66.3,143.59a3.52,3.52,0,0,0,.13.45c-.05.22-.12.17-.23-.13a2.16,2.16,0,0,1-.16-.7A.59.59,0,0,1,66.3,143.59Zm-3.79-.26A1.13,1.13,0,0,1,63,144a.31.31,0,0,0,.16-.22c0-.11.14-.14.35-.1a1.74,1.74,0,0,1,0,1.48,7.66,7.66,0,0,0-.45,1.47,1,1,0,0,1-.32-.7c0-.35-.08-.69-.13-1s-.15-.65-.19-.93A.89.89,0,0,1,62.51,143.33Zm-.19,6.23a.56.56,0,0,1,.57-.51,1.13,1.13,0,0,0-.41.64.94.94,0,0,1-.42.58A2.76,2.76,0,0,0,62.32,149.56ZM58,138.78a9.3,9.3,0,0,1,1.67.25c-.08.26-.27.32-.57.19a2.21,2.21,0,0,0-.71-.19,2.93,2.93,0,0,1-1.74.19A1.53,1.53,0,0,1,58,138.78Zm-2.28,1.83a3.81,3.81,0,0,1,.81-.13c.3,0,.6,0,.89,0a2.84,2.84,0,0,0,.84-.12c0,.38-.15.57-.58.57H56.21c-.12.22-.25.25-.38.1s-.32-.12-.58.1A.68.68,0,0,1,55.73,140.61Zm-5.39,15.57a2.43,2.43,0,0,0,.1-1,2,2,0,0,1,0-.35,1.9,1.9,0,0,0,0-.35,5.74,5.74,0,0,1,.06-.71,7.26,7.26,0,0,1,.2-.9.05.05,0,0,1,.06-.06s.09,0,.13-.13a.37.37,0,0,1,0-.32,2.14,2.14,0,0,0,.16-.39,2.08,2.08,0,0,0,.23-.41,1.67,1.67,0,0,0,.16-.61.25.25,0,0,1,.16-.26c.1,0,.14-.13.09-.26a.44.44,0,0,1,.07-.19.55.55,0,0,0,.06-.19.42.42,0,0,1,.2-.1q.12,0,.12-.09a.61.61,0,0,0,0-.17.69.69,0,0,1,0-.22,1.52,1.52,0,0,1,.32-.35,2,2,0,0,0,.39-.48,5.21,5.21,0,0,1,.28-.52,1,1,0,0,1,.49-.38.63.63,0,0,1,.13-.2s0-.1,0-.19.12.06.25.19,0,.28-.09.32-.08.13,0,.26c0,0,.05,0,.13,0a.13.13,0,0,1,.07.19c-.05,0-.12,0-.23,0s-.14,0-.09.13,0,.28,0,.32a.62.62,0,0,0-.13.26c.21,0,.31,0,.29-.1a.34.34,0,0,1,0-.28.22.22,0,0,1,.19-.07.19.19,0,0,0,.19-.13s0-.09,0-.16-.07-.12,0-.16a.09.09,0,0,1,.13,0,.09.09,0,0,0,.13,0s0-.11,0-.19-.07-.15,0-.19a2.83,2.83,0,0,0,.55-.61c.19-.28.37-.53.54-.74.09,0,.13,0,.13.06s0,.07-.13.07c0,.21.15.26.33.16s.25-.21.25-.29a1.5,1.5,0,0,0,.51-.49,6.92,6.92,0,0,1,.46-.6,1.15,1.15,0,0,1,.48-.39,4.67,4.67,0,0,0,.67-.39,4,4,0,0,1,1.13-.35,4.83,4.83,0,0,1,1.7.16,1.78,1.78,0,0,1,.25,1.25,3.17,3.17,0,0,1-.45,1.06.43.43,0,0,1-.22.2.4.4,0,0,0-.23.19.39.39,0,0,0,0,.26.37.37,0,0,1,0,.25.94.94,0,0,1-.29.2.77.77,0,0,0-.29.19.37.37,0,0,0,0,.25.39.39,0,0,1,0,.26,1.16,1.16,0,0,1-.32.39,2.2,2.2,0,0,0-.39.32,1.6,1.6,0,0,0-.32.45,4.49,4.49,0,0,1-.26.45s-.1,0-.19,0-.15,0-.19,0a2.65,2.65,0,0,1-.36.51c-.15.17-.31.37-.48.58a1.56,1.56,0,0,0-.25.38l-.2,0a.2.2,0,0,0-.19,0l-.42.45c-.15.18-.33.37-.54.58a3.19,3.19,0,0,0-.29.32,2.68,2.68,0,0,1-.42.39,1.64,1.64,0,0,1-.32.38l-.19,0a.22.22,0,0,0-.2,0,1,1,0,0,1-.38.65s-.11,0-.19,0-.15,0-.2,0a.52.52,0,0,1-.12.38.6.6,0,0,1-.23.06.55.55,0,0,0-.22.07.39.39,0,0,0-.13.29.39.39,0,0,1-.13.29c-.09.08-.17.12-.26.09a.28.28,0,0,0-.25.1s-.07.06-.07.16,0,.16-.06.16a4,4,0,0,0-.64.39,3.82,3.82,0,0,0-.46.25.67.67,0,0,0-.25.39C50.33,156.86,50.23,156.61,50.34,156.18Zm-.58,13.32a1.7,1.7,0,0,0,.29.61c.09.18.09.27,0,.29s-.13,0-.13-.09a2.73,2.73,0,0,1-.19-.52.59.59,0,0,0-.26-.38C49.56,169.15,49.65,169.18,49.76,169.5Zm-8.51,7.87a3.88,3.88,0,0,1-.64-.19.35.35,0,0,0-.26-.39,1.68,1.68,0,0,1-.06-.77,5.41,5.41,0,0,1,.19-.77.56.56,0,0,1-.1-.19c0-.09,0-.15,0-.19h.19a1.42,1.42,0,0,0,.06-.42.8.8,0,0,1,.13-.42.46.46,0,0,1,.2-.19.13.13,0,0,0,.06-.19,2.07,2.07,0,0,0,.06-.45c0-.13.13-.22.39-.26a.62.62,0,0,1-.06-.26.59.59,0,0,0-.07-.25.17.17,0,0,1,.19.19.42.42,0,0,0,.13.32.3.3,0,0,0,.19.16c.09,0,.15.1.2.22.13,0,.15-.09.06-.16a.29.29,0,0,1-.13-.22c.09-.17.14-.18.16,0s.1.22.23.22a9.71,9.71,0,0,1-.42,1.93,4.5,4.5,0,0,0,0,2.31A2.47,2.47,0,0,1,41.25,177.37Zm10.66-4.82c0,.18-.09.24-.29.2s-.26,0-.22.19,0,.19-.06.19h-.17a.21.21,0,0,0-.16.07s0,.15,0,.32h-.64a1.63,1.63,0,0,0-.64.13.62.62,0,0,0-.13.19.44.44,0,0,1-.19.19,2.13,2.13,0,0,1-.42.13,2.76,2.76,0,0,0-.55.19.19.19,0,0,0-.12.16c0,.07,0,.12-.13.16a.36.36,0,0,1-.26.13.54.54,0,0,0-.26.07.39.39,0,0,0-.19.19.78.78,0,0,1-.13.19.25.25,0,0,1-.25.1.28.28,0,0,0-.26.09.29.29,0,0,0-.16.2.15.15,0,0,1-.16.12,1.35,1.35,0,0,1-.42.2c-.15,0-.33.11-.54.19-.05,0-.07,0-.07.06s0,.09-.13.13l-.16,0a.15.15,0,0,0-.16,0s-.09.1-.13.16a.38.38,0,0,1-.19.16l-.16,0a.15.15,0,0,0-.16,0,.26.26,0,0,0-.19.07.41.41,0,0,1-.26.06,1.91,1.91,0,0,0-.29.2,1.19,1.19,0,0,1-.35.19,1.14,1.14,0,0,1-.52,0c-.17,0-.25,0-.25.19s-.17-.05-.26-.29-.09-.37,0-.42.16-.17.1-.25a1.25,1.25,0,0,1-.1-.65c.13,0,.19,0,.19-.12a.38.38,0,0,1,.13-.39V175a.72.72,0,0,1,.06-.29,2.36,2.36,0,0,1,.33-.25,3,3,0,0,0,.32-.26.46.46,0,0,0,.13-.32.41.41,0,0,1,.13-.32,1.15,1.15,0,0,1,.35-.55,1,1,0,0,0,.29-.74,1.58,1.58,0,0,1,.57-.09c.09,0,.24-.08.45-.29a.15.15,0,0,0,.16-.13.29.29,0,0,1,.17-.19.58.58,0,0,0,.19-.32,1.86,1.86,0,0,0,.32-.39,1.58,1.58,0,0,1,.42-.51,2.65,2.65,0,0,0,.48-.58c.25-.3.48-.59.67-.87l.61-.87a2.81,2.81,0,0,1,.77,1.13,4,4,0,0,0,.71,1.19.28.28,0,0,0,.29.25c.15,0,.18,0,.1-.06.12,0,.18.08.16.13s0,.1.09.19a3,3,0,0,0,.35.29.63.63,0,0,1,.23.55c.21-.13.32-.14.32,0s0,.12-.13,0a.12.12,0,0,1,.07.19c-.05.08-.05.15,0,.19a.7.7,0,0,1,.25-.13.77.77,0,0,1,.52-.06.48.48,0,0,1-.16.45C51.67,172.47,51.7,172.55,51.91,172.55Zm.9-1a.39.39,0,0,1-.58,0,.39.39,0,0,1-.12-.26A.4.4,0,0,0,52,171s-.07-.07-.2-.09-.19-.06-.19-.1a.12.12,0,0,1,0-.16c0-.07,0-.12-.06-.16a1.5,1.5,0,0,0-.45-.39.62.62,0,0,1-.13-.38.41.41,0,0,0-.13-.32.38.38,0,0,0-.13-.1l-.13-.09-.12-.13c-.09-.22-.19-.43-.29-.65a5.24,5.24,0,0,1-.29-.64,3.36,3.36,0,0,1,.83.9c.22.34.45.69.71,1a.45.45,0,0,0,.22.09c.11,0,.16.06.16.1s.16.24.23.32l.29.39a1.69,1.69,0,0,0,.45.41C53,171.2,53,171.36,52.81,171.53Zm5.72,5.65a.17.17,0,0,0,.19.19,2.49,2.49,0,0,0,.74.71,2.29,2.29,0,0,1,.74.77c.13.08.15.12.06.09a1.34,1.34,0,0,1-.26-.09,2.26,2.26,0,0,0-.73-.77,2.49,2.49,0,0,1-.74-.71c-.09,0-.12-.08-.1-.13A.1.1,0,0,1,58.53,177.18Z"/><path fill="#ffffff" d="M66.36,178.65s0-.1-.16-.19a1.13,1.13,0,0,0-.38-.19c-.15,0-.23,0-.23,0s0,.18.13.16a.33.33,0,0,1,.26,0v.19C66.23,178.7,66.36,178.7,66.36,178.65Z"/><path fill="#ffffff" d="M65.46,178.14c-.08,0,0,0,.13.13C65.59,178.18,65.55,178.14,65.46,178.14Z"/><path fill="#ffffff" d="M124.09,178.4c-.08.08,0,.17.2.25a.47.47,0,0,1,.12-.32c.09-.08,0-.15-.12-.19A1.13,1.13,0,0,1,124.09,178.4Z"/><path fill="#ffffff" d="M152.67,163.82c.09,0,.11-.1.06-.16a.35.35,0,0,0-.25-.13c-.13,0-.26.06-.39.23A1.09,1.09,0,0,0,152.67,163.82Z"/><path fill="#ffffff" d="M168.5,167.67a.2.2,0,0,1-.1-.19s0-.07.1-.1.1-.11.1-.28c-.26-.69-1.12-1.1-2.57-1.22a9.33,9.33,0,0,0-1,1L164,168c-.22.35-.42.67-.62,1a2.84,2.84,0,0,1-.6.7s-.06.06,0,.16a2.23,2.23,0,0,1,0,.23h-.2s-.05,0,0,.13a.89.89,0,0,1,0,.19h-.13a.2.2,0,0,0,0,.19,1,1,0,0,1,0,.19,1.69,1.69,0,0,1-.45.33.58.58,0,0,0-.32.38.29.29,0,0,1-.22.32.89.89,0,0,0-.36.2,4.68,4.68,0,0,0-.54.8,1.35,1.35,0,0,1-.68.61,1.41,1.41,0,0,1,.26-.42q.19-.22.39-.42a.85.85,0,0,0,.25-.41c.05-.15,0-.31-.19-.48a1.51,1.51,0,0,0-.25.35,1.86,1.86,0,0,1-.26.35,3.27,3.27,0,0,1-.29.42c-.15.19-.25.16-.29-.1.09,0,.13,0,.13-.06s0-.09-.13-.13a6.58,6.58,0,0,1-.67.9c-.24.26-.49.51-.74.77s-.52.54-.77.84a6.81,6.81,0,0,0-.71,1,2.18,2.18,0,0,0-1.09.83,1.92,1.92,0,0,1-1.22.77,4.5,4.5,0,0,0,.32-1.22,8.07,8.07,0,0,1,.26-1.28,3.92,3.92,0,0,1,.25-.84c.13-.3.22-.51.26-.64a2.64,2.64,0,0,1,.19-.51v-.2c0-.08,0-.12.07-.12s.06,0,.06-.07a1.88,1.88,0,0,0,.13-.74,6.55,6.55,0,0,1,.06-.86c.22-.86.43-1.67.65-2.44s.42-1.52.64-2.25h.58a.93.93,0,0,1,.19-.74,4.16,4.16,0,0,0,.32-.48v-.32c0-.09.05-.16.16-.23a.73.73,0,0,0,.22-.16,3.94,3.94,0,0,1,.33-1.09l.25-.51a.92.92,0,0,0,.13-.39c0-.08,0-.12.07-.09s.06,0,.06-.1a.27.27,0,0,0,.1-.26.29.29,0,0,1,.09-.26.88.88,0,0,1,.23-.38.62.62,0,0,0,.16-.32c0-.09.07-.13.09-.13s.06,0,.1-.06a3.22,3.22,0,0,1,.19-.42,1,1,0,0,0,.13-.29c0-.08.09-.13.13-.13a.05.05,0,0,0,.06-.06.39.39,0,0,0,.13-.29.54.54,0,0,1,.07-.29.38.38,0,0,1,.16-.19.67.67,0,0,0,.16-.2v-.32a.32.32,0,0,1,.22-.06c.11,0,.16,0,.16-.13a.48.48,0,0,0,0-.32,1.72,1.72,0,0,1,0-.39,1.11,1.11,0,0,1,.16-.29l.23-.22a5.52,5.52,0,0,0-1-.32l-1-.26a1.53,1.53,0,0,1-1.13-.13c-.28-.17-.51-.31-.7-.41a.45.45,0,0,0-.58.12,7.18,7.18,0,0,0-.87,1.51,11.94,11.94,0,0,0-1.06,1.67,11.1,11.1,0,0,1-1,1.61l-.19.35a.76.76,0,0,0-.13.35.75.75,0,0,1-.13.39,1.79,1.79,0,0,1-.26.32,1.42,1.42,0,0,0-.13.32.67.67,0,0,1-.16.45,2.33,2.33,0,0,0-.22.32.66.66,0,0,0-.07.32.72.72,0,0,1-.11.36,3,3,0,0,0-.72,0c-.17,0-.27,0-.29.1a.31.31,0,0,0,0,.19.59.59,0,0,0,.07.16s0,.06-.1.06-.16-.15-.23-.06-.2.11-.41.06a9.46,9.46,0,0,0-1.26,0,1.15,1.15,0,0,1-.86-.29,1.26,1.26,0,0,1,.77,0c.3.09.47,0,.51-.19-.13,0-.2-.07-.22-.1s-.08,0-.16.1-.05-.09-.26-.13a3.07,3.07,0,0,0-.45-.06c-.09,0-.13,0-.13-.07a.05.05,0,0,1-.06-.06.18.18,0,0,0-.13.06l-.07.07a2.49,2.49,0,0,1-.86-.26,1.62,1.62,0,0,0-1.06-.06,5.13,5.13,0,0,0,.22-.81c.07-.32.12-.65.16-1a9,9,0,0,0-.06-1.86,3.48,3.48,0,0,1,.06-1.55c-.21.09-.35,0-.42-.22a1,1,0,0,0-.22-.48,5.53,5.53,0,0,0-.32-1,8.49,8.49,0,0,1-.35-1q-.16-.51-.36-1c.17,0,.27.07.29.22s.16.19.42.1a3,3,0,0,1,.19.7c0,.26.09.5.13.71h.26a.42.42,0,0,1,.06.39.32.32,0,0,0,.13.38q.14.14,0,.45c-.09.22,0,.3.19.26a2,2,0,0,0,0-1.25c-.13-.37-.25-.74-.38-1.13a1.82,1.82,0,0,1,.9,1.48c-.05.09-.05.13,0,.13a.55.55,0,0,1,.19.06.88.88,0,0,1,.19.36,2.2,2.2,0,0,0,.13.35,2.4,2.4,0,0,1,0,.83q-.1.52.42.45a2,2,0,0,1-.23-1.09,2.65,2.65,0,0,0-.16-1.09l-.16-.16a1.12,1.12,0,0,1-.16-.22.38.38,0,0,1-.13-.26.62.62,0,0,0-.06-.26,2.3,2.3,0,0,0-.2-.16A.6.6,0,0,1,148,156a1.12,1.12,0,0,1-.06-.35,1,1,0,0,0-.07-.35,1.38,1.38,0,0,0-.38-.26,1.39,1.39,0,0,1-.39-.26.25.25,0,0,1-.06-.19.2.2,0,0,0-.13-.19.29.29,0,0,0-.26-.1.24.24,0,0,1-.25-.09,2.93,2.93,0,0,1-.61-.68,1.49,1.49,0,0,0-.68-.54.21.21,0,0,0,.1.19c.06,0,0,.11-.1.19a.5.5,0,0,1-.16-.29.56.56,0,0,0-.16-.29.78.78,0,0,0-.42-.16,1,1,0,0,1-.48-.16.35.35,0,0,1-.19-.22.44.44,0,0,0-.19-.23h-.33a11.25,11.25,0,0,0-1.82-.12,7.89,7.89,0,0,0-1.64.12.61.61,0,0,1-.32.13,2,2,0,0,0-.39.07c-.21.08-.5.22-.87.41a3.63,3.63,0,0,1-.8.36q-.13,0-.06.06s0,.09-.07.13a.5.5,0,0,1-.38.1.36.36,0,0,0-.32.09c-.05,0-.08.05-.1.13a.31.31,0,0,1-.1.19c0,.05-.1.05-.19,0s-.15,0-.19,0-.08.06-.1.16a1.58,1.58,0,0,0,0,.23s-.11,0-.19,0-.15,0-.2,0a.81.81,0,0,0-.28.35,1.06,1.06,0,0,1-.23.35c-.3.31-.57.56-.8.78a4.53,4.53,0,0,0-.61.64,3.43,3.43,0,0,1-.45.32.3.3,0,0,0-.1.29.32.32,0,0,1-.09.29s-.11.1-.33.19a.32.32,0,0,0-.09.29.3.3,0,0,1-.1.29.87.87,0,0,1-.19.13.19.19,0,0,0-.13.19l-.19.58a9.18,9.18,0,0,0-.71,4.49c-.38.6-.82,1.37-1.31,2.31-.19.35-.34.7-.48,1l-.62.55c-.49.45-1,.94-1.51,1.47s-1,1.05-1.41,1.55-.75.86-1,1.12q-1,1.15-2.22,2.28a24.53,24.53,0,0,0-2.08,2.21c0,.05-.11.05-.2,0s-.15,0-.19,0a.61.61,0,0,0,0,.17.16.16,0,0,1,0,.16s0,0-.13,0-.15-.05-.19,0a4.4,4.4,0,0,0-.58.7,1.62,1.62,0,0,1-.64.58.29.29,0,0,0-.26.1c0,.06-.08,0-.13-.1a10.31,10.31,0,0,0,.33-1.22,6.68,6.68,0,0,1,.38-1.28c.13-.48.29-1,.48-1.48a11.68,11.68,0,0,0,.42-1.29,2.6,2.6,0,0,0,.1-.25,1.34,1.34,0,0,1,.09-.26,1.55,1.55,0,0,0,.13-.71c0-.08.09-.13.13-.13a.05.05,0,0,0,.06-.06c.09-.25.15-.47.2-.64a3.87,3.87,0,0,1,.19-.58,1.17,1.17,0,0,0,.06-.35.72.72,0,0,1,.13-.36.26.26,0,0,1,.13-.22l.19-.16a.49.49,0,0,0,.1-.42c0-.19.07-.24.29-.16a3.12,3.12,0,0,1-.39,1.22,2.18,2.18,0,0,0-.32,1q0,.12-.09.12c-.07,0-.1,0-.1.07a.86.86,0,0,0,0,.45.85.85,0,0,1,0,.45.53.53,0,0,1-.19.38c-.13.13-.07.24.19.32a5.12,5.12,0,0,0,.29-.86,5.07,5.07,0,0,1,.22-.74,1.79,1.79,0,0,1,.23-.45,1.5,1.5,0,0,0,.16-.45,1.52,1.52,0,0,1,.32-.71,1.07,1.07,0,0,1,.26-.19c.08,0,.12-.09.12-.13a1.13,1.13,0,0,0,.1-.58,1.88,1.88,0,0,1,0-.57.81.81,0,0,1,.23-.16,1.21,1.21,0,0,0,.22-.17.65.65,0,0,0,.07-.29.37.37,0,0,1,.13-.28,14.07,14.07,0,0,1,.8-1.51,5.55,5.55,0,0,0,.61-1.32.73.73,0,0,0,0-.22.14.14,0,0,1,0-.17l.16-.16a.73.73,0,0,0,.16-.22,2.5,2.5,0,0,0,.32-.87,2,2,0,0,1,.26-.74.2.2,0,0,1,.13-.19.7.7,0,0,0,.19-.13,4.89,4.89,0,0,0,.38-1c.09-.32.2-.65.33-1a.38.38,0,0,1,.22-.19.21.21,0,0,0,.16-.19.16.16,0,0,0,0-.16.8.8,0,0,1,0-.23,3.86,3.86,0,0,1,.38-.71,5.11,5.11,0,0,1,.39-.51.59.59,0,0,0,.13-.45v-.45a.21.21,0,0,1,.16-.19.42.42,0,0,0,.22-.19.93.93,0,0,0,.1-.26,1.06,1.06,0,0,1,.1-.26,2.49,2.49,0,0,0,.16-.57.93.93,0,0,1,.16-.45c.08-.26.16-.46.22-.61a2.26,2.26,0,0,0,.16-.55,1.93,1.93,0,0,0-.06-1.16,2,2,0,0,0-.51-.64v-.32A1.65,1.65,0,0,0,128,150a.55.55,0,0,0-.61-.12c0-.43-.26-.6-.77-.52,0-.38,0-.64-.19-.77a.3.3,0,0,0-.26,0,.3.3,0,0,1-.26,0,.9.9,0,0,0-.77-.16,3.89,3.89,0,0,0-1,.35,9,9,0,0,0-1,.58c-.32.22-.57.39-.74.52l-.35.32a.71.71,0,0,1-.35.19.35.35,0,0,0-.26.13l-.26.25a1.54,1.54,0,0,0-.29.26,2.53,2.53,0,0,1-.22.26c-.86.73-1.62,1.41-2.28,2s-1.3,1.29-1.9,1.93q-.51.51-1,1t-.93,1c0,.05-.07.08-.07.1a.18.18,0,0,1-.06.1.27.27,0,0,0-.07.19.59.59,0,0,1-.31.45,1.31,1.31,0,0,0-.39.26,2.23,2.23,0,0,0-.48.64,2.67,2.67,0,0,1-.48.64,1,1,0,0,1-.29.29.56.56,0,0,0-.23.23.53.53,0,0,1-.29.48l-.41.22c-.05,0-.05.11,0,.19s0,.16,0,.2a1.54,1.54,0,0,1-.26.29,1.69,1.69,0,0,0-.26.22,5.72,5.72,0,0,1-.48.55,3,3,0,0,0-.42.54,2.52,2.52,0,0,1-.29.26,1.46,1.46,0,0,0-.28.32.57.57,0,0,0-.13.42q0,.28-.39.09c.09-.47,0-.78-.19-.93a1.63,1.63,0,0,1-.51-.54.42.42,0,0,1-.13-.32.75.75,0,0,0-.13-.39.93.93,0,0,1-.74-.26,1,1,0,0,0-.8-.25.65.65,0,0,0-.39-.52,3.5,3.5,0,0,0-.71-.19,5,5,0,0,0-1.41.9l-1.15,1a8.91,8.91,0,0,0-.87.83c-.24.26-.48.54-.74.84a9,9,0,0,1-.8.83,8.73,8.73,0,0,0-.74.77,2.68,2.68,0,0,0-.42.55,3.84,3.84,0,0,1-.35.54,3.89,3.89,0,0,1-.64.52.94.94,0,0,0-.45.51.64.64,0,0,1-.23.42,1.66,1.66,0,0,0-.29.35c-.21.22-.44.43-.67.65s-.44.4-.61.57a.56.56,0,0,0-.16.29.56.56,0,0,1-.16.29.57.57,0,0,1-.19.22c-.09.07-.16.06-.2,0,.43-1,.82-2.05,1.16-3.08s.73-2,1.15-3c.05,0,.08-.06.1-.06s0,0,.1-.13v-.19a.79.79,0,0,1,.19-.39.41.41,0,0,0,.13-.32c0-.13.08-.18.13-.16s.06,0,.06,0a8.24,8.24,0,0,0,.42-1,1.65,1.65,0,0,1,.35-.67s0,0,0-.13,0-.15,0-.19a.27.27,0,0,1,.2-.16c.08,0,.14-.1.19-.23a.44.44,0,0,1,.16-.38.43.43,0,0,0,.16-.32c0-.09,0-.12.06-.1a.11.11,0,0,0,.13,0,4.38,4.38,0,0,0,.51-1.09c.26.08.42.05.49-.1s.2-.18.41-.1c-.08-.3-.07-.5,0-.61a.66.66,0,0,0,.16-.48c0-.3.1-.43.32-.39a.29.29,0,0,0-.07-.19s0-.08.07-.12c.08-.35,0-.51-.16-.49a.28.28,0,0,1-.36-.22c-.17,0-.23-.18-.19-.42s0-.39-.13-.48-.38-.26-.51-.13-.26.11-.39-.06c0-.3,0-.47-.25-.52a1.72,1.72,0,0,0-.64,0,1.14,1.14,0,0,1,0-.58q.06-.26-.39-.12a.46.46,0,0,0-.23-.07.18.18,0,0,1-.16-.13,2.1,2.1,0,0,0-1.09.71.12.12,0,0,0,0,.16c0,.07,0,.12,0,.16s0,.08-.13.1a.42.42,0,0,0-.19.09l-.13.26a.62.62,0,0,0-.06.26c0,.08,0,.12-.07.09s-.08,0-.12.1c-.22.34-.44.72-.68,1.12s-.48.81-.74,1.19a1.26,1.26,0,0,1-.13.23.29.29,0,0,0-.06.16.34.34,0,0,1-.16.29.31.31,0,0,0-.16.29q0,.12-.06.09s-.09,0-.13.1a.33.33,0,0,0-.1.32.49.49,0,0,1-.1.38H94.3a.15.15,0,0,0,0,.17.53.53,0,0,1,0,.16.65.65,0,0,1-.26.06c-.09,0-.13,0-.13.13a.61.61,0,0,0-.13.35.59.59,0,0,1-.13.35s-.06,0-.06.07a.19.19,0,0,1-.06.13c-.09.13-.18.25-.26.38a.61.61,0,0,0-.13.32c0,.13,0,.19-.07.16s-.08,0-.12,0a2.15,2.15,0,0,0-.16.64.87.87,0,0,1-.16.45,3.24,3.24,0,0,0-.42.83l-.29.77a2.36,2.36,0,0,1-.13.23.55.55,0,0,0-.06.29c0,.08,0,.13-.07.13a.22.22,0,0,0-.13.06c-.08.3-.17.61-.25.93a2.53,2.53,0,0,1-.26.68,2.84,2.84,0,0,0-.32.8c-.09.32-.15.54-.19.67a3.76,3.76,0,0,0-.16.45,1.62,1.62,0,0,0,0,.45c0,.09,0,.13-.09.13s-.1,0-.1.06a3.63,3.63,0,0,0-.19.74c0,.28-.09.57-.13.87a14.19,14.19,0,0,0-.45,1.51c-.13.53-.23,1.06-.32,1.57a3.19,3.19,0,0,0,0,.42,1,1,0,0,1,0,.42,2.12,2.12,0,0,1-.06.54c0,.15-.09.27-.13.36a4.89,4.89,0,0,0,.09,1,3.21,3.21,0,0,1,.1.71.85.85,0,0,1,0,.45.82.82,0,0,0,0,.44c0,.09.08.11.1.07s.05,0,.09.13.16.35.48.54a1.84,1.84,0,0,0,.61.29c.09,0,.13,0,.13.1s0,.09.07.09a.27.27,0,0,0,.32-.06.49.49,0,0,1,.38-.13.55.55,0,0,1,.45.16q.14.16.45,0a5.23,5.23,0,0,1,.84-.64,2.32,2.32,0,0,0,.7-.58.16.16,0,0,1,.19,0,.24.24,0,0,0,.26,0,4.45,4.45,0,0,0,.61-.73,5.87,5.87,0,0,1,.61-.74,1.87,1.87,0,0,1,.36-.26,1,1,0,0,0,.35-.32.79.79,0,0,0,.29-.39,1.2,1.2,0,0,1,.29-.45,2.27,2.27,0,0,1,.57-.51,1.27,1.27,0,0,0,.45-.38.31.31,0,0,0,.1-.29.19.19,0,0,1,.1-.23,8.48,8.48,0,0,0,.7-.77l.58-.58a2.17,2.17,0,0,0,.39-.51.72.72,0,0,1,.35-.42.72.72,0,0,0,.35-.29.25.25,0,0,0,.1-.25.27.27,0,0,1,.1-.26.21.21,0,0,1,.16-.06c.06,0,.11-.05.16-.13a.28.28,0,0,0,.09-.26.27.27,0,0,1,.1-.26,1.72,1.72,0,0,1,.32-.35,2.68,2.68,0,0,0,.39-.42l1.25-1.54a16.51,16.51,0,0,1,1.31-1.48c.09,0,.14,0,.16-.09s.08,0,.17.09a21.49,21.49,0,0,1-.26,2.28,19.14,19.14,0,0,0-.26,2.22,1.83,1.83,0,0,0,0,.74,1.18,1.18,0,0,1,0,.74.51.51,0,0,0,.42.41.7.7,0,0,1,.48.42c-.08.39,0,.61.19.68a5.53,5.53,0,0,1,.65.22c.17,0,.26,0,.29-.06a.22.22,0,0,0,0-.16.23.23,0,0,1,0-.2c0-.06.11-.09.28-.09a.5.5,0,0,0,.45.57l1,.13c0-.17,0-.25.19-.25a1,1,0,0,0,.39-.07.45.45,0,0,0,.09-.38.45.45,0,0,1,.1-.39.29.29,0,0,1,.09-.16.24.24,0,0,0,.1-.16.51.51,0,0,1,.13-.42.61.61,0,0,0,.19-.35c0-.09,0-.12.07-.1s.08,0,.12-.09a.92.92,0,0,0,.16-.39,3,3,0,0,1,.17-.51s0-.07.16-.07a.32.32,0,0,0,.22-.06.12.12,0,0,0,0-.16.23.23,0,0,1,0-.23s0-.07.16-.09a.49.49,0,0,0,.23-.1v-.06a.25.25,0,0,1,.06-.19.58.58,0,0,1,.06-.26.31.31,0,0,1,.2-.29c.13-.07.19-.14.19-.23s0-.17.06-.13.09,0,.13-.06l.36-.58a5.16,5.16,0,0,1,.35-.51l.25-.26a1.79,1.79,0,0,0,.26-.32.15.15,0,0,0,0-.16.55.55,0,0,1,0-.16.56.56,0,0,1,.19-.1c.09,0,.13,0,.13-.09a.57.57,0,0,0,.2-.39q.06-.12.09-.09s.06,0,.1,0a5.9,5.9,0,0,1,.67-.89c.24-.26.44-.5.61-.71a3,3,0,0,1,.48-.51l.42-.39a1.4,1.4,0,0,0,.19-.39,1,1,0,0,1,.2-.32,5.3,5.3,0,0,1,.67-.67,6.45,6.45,0,0,0,.55-.48s0,0,0-.13,0-.15,0-.19a5.58,5.58,0,0,0,.51-.58,4.81,4.81,0,0,0,.48-.42,4.81,4.81,0,0,1,.48-.42.84.84,0,0,0,.2-.29.73.73,0,0,1,.19-.28,10.49,10.49,0,0,1,1.16-1.35,13.56,13.56,0,0,1,1.28-1.16l.42-.26a3.63,3.63,0,0,0,.48-.32,1.52,1.52,0,0,0,.48-.38c.15-.17.25-.15.29.06a2,2,0,0,0-.35.48l-.23.42a1.23,1.23,0,0,1-.25.58,1.27,1.27,0,0,0-.26.51,1.13,1.13,0,0,0-.2.26.86.86,0,0,1-.19.26,2.27,2.27,0,0,0-.22.41.89.89,0,0,0-.1.36,1.17,1.17,0,0,1-.25.57,3.63,3.63,0,0,1-.33.45,1.47,1.47,0,0,0-.32.71,1.22,1.22,0,0,1-.25.64,3.63,3.63,0,0,1-.33.45,2.78,2.78,0,0,0-.22.42,1.12,1.12,0,0,0-.1.35,1.47,1.47,0,0,1-.25.55,2.38,2.38,0,0,0-.26.48c-.09.09-.13.15-.13.19a.53.53,0,0,1-.06.2,17.89,17.89,0,0,0-.9,1.89c-.26.62-.52,1.25-.77,1.89-.17.43-.36.93-.55,1.48a11,11,0,0,1-.54,1.35,5.43,5.43,0,0,1-.17.61c-.06.19-.11.38-.16.55a6,6,0,0,0-.32,1.47c0,.52-.1,1-.19,1.54-.09.26-.16.52-.22.77s-.12.54-.17.84a9.93,9.93,0,0,0,0,2.18,1.33,1.33,0,0,0,.13.48c.09.2.17.38.26.55v.64a1.68,1.68,0,0,0,.13.65,8,8,0,0,1,1.09.73,2.68,2.68,0,0,0,1.22.55c.22,0,.34-.06.39-.19s.1-.19.19-.19a.61.61,0,0,1,.48.06,1.1,1.1,0,0,0,.42.13.17.17,0,0,1,.19-.19l.39-.17.32-.16a.52.52,0,0,1,.45,0,.57.57,0,0,0,.45,0l.19-.22c.08-.11.15-.18.19-.23a.62.62,0,0,1,.26-.06.57.57,0,0,0,.25-.06,1.52,1.52,0,0,0,.26-.36,1.77,1.77,0,0,1,.26-.35.61.61,0,0,1,.22-.07.18.18,0,0,0,.16-.12.48.48,0,0,0,.13-.36c0-.15.09-.22.26-.22a.3.3,0,0,0,.32-.19.89.89,0,0,1,.19-.33,2,2,0,0,1,.36-.28l.35-.23a.46.46,0,0,1,.1-.35c.06-.07,0-.12-.1-.16s0,.12-.1.09a.26.26,0,0,0-.22,0,1.39,1.39,0,0,0-.51.48c-.13.19-.26.39-.39.61l-.23.09-.16.1a.12.12,0,0,0,0,.16c0,.07,0,.12,0,.16s-.18.19-.28.32a1.06,1.06,0,0,1-.29.26c-.09.09-.13.06-.13-.07V181c-.09,0-.12,0-.1.09s0,.1-.1.1a2,2,0,0,0-.6.45,1.35,1.35,0,0,1-.68.38,2.86,2.86,0,0,1,.52-.61,4.68,4.68,0,0,0,.57-.61,3.33,3.33,0,0,0,.55-.7,3.7,3.7,0,0,1,.54-.71.71.71,0,0,1,.39-.22,1.08,1.08,0,0,0,.39-.16,1,1,0,0,1,0-.2c0-.08.05-.13.09-.13a.91.91,0,0,1,.29-.19.77.77,0,0,0,.29-.19.53.53,0,0,0,.16-.29.29.29,0,0,1,.16-.22s.11,0,.2,0l.19.16v-.13s.06-.06.19-.06v.12c0,.13,0,.15.13.07a.85.85,0,0,1,.06-.23c0-.1.09-.16.13-.16.22-.21.42-.39.61-.54a5.52,5.52,0,0,0,.48-.42c-.13.21-.18.34-.16.39s.06,0,.1,0a2.91,2.91,0,0,0,.19-.35l.2,0a.2.2,0,0,0,.19,0,.29.29,0,0,0,.32-.32l.29-.32a4.1,4.1,0,0,1,.35-.39,4.59,4.59,0,0,1,.69-.79,1.18,1.18,0,0,0,.14.28,1,1,0,0,1,0,.19c0,.09,0,.13,0,.13h.2s0,.11,0,.19,0,.15,0,.19a.54.54,0,0,0,.22.23l.29.16a.44.44,0,0,1,.1.16,1.71,1.71,0,0,0,.09.22c.05.05.11.05.2,0s.15,0,.19,0,.06.05.06.13a.48.48,0,0,0,.07.26l.19,0a.19.19,0,0,1,.19,0c.09,0,.14.06.16.16s.08.16.16.16a1.6,1.6,0,0,1,.74.23,1.14,1.14,0,0,0,.74.16c.13-.13.17-.2.13-.2s.13,0,.13.07,0,.13.06.13a.12.12,0,0,0,.19-.07.23.23,0,0,1,.2-.13.7.7,0,0,1,.42.13.55.55,0,0,0,.48.07c.08,0,.12-.09.12-.13a.07.07,0,0,1,.07-.07c.13-.08.19-.07.19,0s.07.09.19,0l.26-.12a.51.51,0,0,1,.26-.07.23.23,0,0,1,.19,0,.47.47,0,0,0,.19,0,.49.49,0,0,1,.1-.19.26.26,0,0,1,.22-.13,1.61,1.61,0,0,1,.9-.26,2.67,2.67,0,0,0,.9-.13l.13-.19.32-.19A2.4,2.4,0,0,0,138,176a1.24,1.24,0,0,1,.36-.23l.35-.16a.3.3,0,0,0,.29-.19,1.13,1.13,0,0,1,.22-.32s.11,0,.2,0,.15,0,.19,0a.53.53,0,0,1,.13-.39.63.63,0,0,1,.19,0c.09,0,.15,0,.19,0a2,2,0,0,0,.42-.38l.29-.32a1.12,1.12,0,0,1,.19-.16c.09-.07.13-.12.13-.16s0-.13,0-.13a.42.42,0,0,0,.16-.07c.17-.13.31-.22.42-.29a1.58,1.58,0,0,0,.29-.22.2.2,0,0,0,0-.19,1,1,0,0,1,0-.2,7,7,0,0,1,.61-.54,2.88,2.88,0,0,1,.54-.35.1.1,0,0,0,0-.16.23.23,0,0,1,0-.23,1.2,1.2,0,0,1,.52-.48.75.75,0,0,0,.38-.61.47.47,0,0,1,.1-.26,2.53,2.53,0,0,1,.23-.26.57.57,0,0,0,.06-.25.36.36,0,0,1,.13-.26.48.48,0,0,1,.19-.1c.09,0,.13-.05.13-.09s.12-.17.09-.26a.27.27,0,0,1,.1-.26,1.21,1.21,0,0,1,.35-.32,1.86,1.86,0,0,0,.36-.25,17,17,0,0,0,3.21-.29,27.75,27.75,0,0,1,2.86-.4.71.71,0,0,0,0,.14.44.44,0,0,1-.09.35,4.1,4.1,0,0,1-.26.55,4.67,4.67,0,0,0-.25.54,4,4,0,0,0-.2.65,3.11,3.11,0,0,1-.19.64s-.06,0-.19.13a3,3,0,0,0-.19.61,1.51,1.51,0,0,1-.2.48c-.3.94-.59,1.86-.86,2.76a13.72,13.72,0,0,0-.55,2.63,4.4,4.4,0,0,0,.13,1,8.4,8.4,0,0,0,.35,1.15c.15.39.3.74.45,1.06a1.48,1.48,0,0,0,.42.61.16.16,0,0,1,0,.16.61.61,0,0,0,0,.16h.19a.4.4,0,0,1,.1.36c0,.15,0,.22.22.22s.18,0,.16.07,0,.06,0,.06a2,2,0,0,0,.81.42,1.31,1.31,0,0,1,.67.35.65.65,0,0,0,.32.1l.39,0a.48.48,0,0,0,.51-.19c.13-.17.32-.15.58.06a1.2,1.2,0,0,1,.1-.32c.06-.17.13-.26.22-.26s.07.06.07.16,0,.12.12,0a.83.83,0,0,0,.26-.42q.14-.36.45,0c-.09-.21-.09-.33,0-.35s.19-.14.32-.36c0,.09,0,.13.07.13s0,0,.12-.13.12-.13.1-.16,0-.07.1-.16a2.9,2.9,0,0,1,.67-.51c.24-.13.5-.26.8-.39a2.84,2.84,0,0,1,1-1.15,6.62,6.62,0,0,0,1.15-1,1.11,1.11,0,0,0,.32-.51,2.37,2.37,0,0,1,.26-.58.33.33,0,0,1,.23-.07.64.64,0,0,0,.28-.06.18.18,0,0,0,0-.19.63.63,0,0,1,0-.2.46.46,0,0,1,.2-.09c.08,0,.12,0,.12-.1a1,1,0,0,0,.2-.26.83.83,0,0,1,.19-.25.77.77,0,0,1,.29-.19.94.94,0,0,0,.29-.2c.26-.34.52-.67.8-1s.55-.66.8-1a.77.77,0,0,0,.71-.19c.17-.21.33-.41.48-.58l.42-.45a1.89,1.89,0,0,0,.32-.38.78.78,0,0,0,.58-.2,2.1,2.1,0,0,0,.61-.54c.23-.28.46-.57.67-.87s.43-.67.65-1a5,5,0,0,0,.45-.81C168.6,167.72,168.56,167.72,168.5,167.67ZM147,154.8a.58.58,0,0,1,.16.16,1.15,1.15,0,0,0,.22.22.41.41,0,0,0,.26.1q-.14.32-.39,0a1.51,1.51,0,0,0-.38-.35C146.93,154.83,147,154.78,147,154.8Zm-39.69,7.29c.17-.05.29,0,.35.06a.28.28,0,0,0,.23.13c0,.09,0,.14-.1.16a.15.15,0,0,0-.09.16h-.39Zm.9,3.21a9.13,9.13,0,0,1-.58.77,2.9,2.9,0,0,0-.45.7c-.17-.08-.21-.17-.12-.25a.47.47,0,0,0,.12-.32,14.44,14.44,0,0,0,.07-1.51c0-.54,0-1,.06-1.51a.57.57,0,0,1,.35-.16c.15,0,.23-.1.23-.23.21.13.28.4.19.81a2.69,2.69,0,0,0-.06,1c.21,0,.29-.12.22-.35s-.05-.4,0-.48a1,1,0,0,1,.25.77A2,2,0,0,1,108.23,165.3Zm31.47,3.24a3.35,3.35,0,0,0-.32.42,3.4,3.4,0,0,1-.48.29,2.37,2.37,0,0,0-.42.22.94.94,0,0,0-.2.29.77.77,0,0,1-.19.29.65.65,0,0,1-.29.06.73.73,0,0,0-.29.07,2.55,2.55,0,0,1-.29.38,1.11,1.11,0,0,1-.41.32,1.13,1.13,0,0,1-.26.2.86.86,0,0,0-.26.19,1.37,1.37,0,0,1-.38.29c-.13.06-.3.16-.52.29a4.54,4.54,0,0,0-.45.25,2,2,0,0,1-.64.26l-.29.16a4.33,4.33,0,0,1-.41.23,1,1,0,0,0-.39.12s-.21.07-.51.07a10.1,10.1,0,0,1,.74-3.41,17.39,17.39,0,0,1,1.44-2.69c.13,0,.19,0,.19.19a6.59,6.59,0,0,1,1.22.23c.39.1.77.22,1.16.35a9.07,9.07,0,0,0,1.22.32,6.9,6.9,0,0,0,1.41.13C140,168.23,139.83,168.39,139.7,168.54Zm5.39-7.67a4.77,4.77,0,0,1-.61,1.83c-.32.53-.59,1-.8,1.38-1,0-2.06.09-3.08.16a8.54,8.54,0,0,1-2.89-.29.86.86,0,0,0,0-.39.21.21,0,0,0-.23-.19c.05-.08.09-.12.13-.1s.07.06.07.1a1,1,0,0,0,.32,0s.05-.05,0-.1l-.1-.16a.22.22,0,0,1,0-.22c0-.47-.15-.71-.45-.71s-.35-.29-.29-.48a.59.59,0,0,0-.22-.61.69.69,0,0,0-.51-.19.33.33,0,0,0-.23.09c-.06.07-.12,0-.16-.09a.74.74,0,0,1,.06-.87,7,7,0,0,1,.65-.74,3,3,0,0,1,.83-.61,8.39,8.39,0,0,0,.84-.48.51.51,0,0,0,.19-.16,1.12,1.12,0,0,1,.13-.16.37.37,0,0,1,.29-.13.72.72,0,0,0,.29-.06,3,3,0,0,1,.86-.42l1.06-.35.39,0a.55.55,0,0,0,.32,0s.06,0,.06-.07.05-.08.13-.13a3.6,3.6,0,0,1,.87.16,7.66,7.66,0,0,0,1,.23,6,6,0,0,1,.84,1.7A4.87,4.87,0,0,1,145.09,160.87Zm8,12.52a16.94,16.94,0,0,0-.2,2.05c0,.9,0,1.72,0,2.44a.8.8,0,0,1-.44-.35,4.58,4.58,0,0,1-.26-.54.45.45,0,0,0,.22-.55,1.58,1.58,0,0,1,0-.68c.09-.51.19-1,.29-1.5a10.94,10.94,0,0,0,.22-1.58c.09,0,.13,0,.13-.09a.46.46,0,0,1,.07-.23V172a.23.23,0,0,1,.16.28,1,1,0,0,0,0,.42c-.17,0-.24.15-.19.32A.63.63,0,0,1,153.12,173.39Zm.9-3.63c-.17.49-.37,1-.58,1.51a.82.82,0,0,1,0,.45c0,.08-.09.06-.13-.06l.13-.78a3.58,3.58,0,0,1,.19-.7.32.32,0,0,1,.13-.16.17.17,0,0,0,.07-.16,1,1,0,0,0-.17-.58c-.1-.17,0-.15.36.06a2.74,2.74,0,0,0,0-.45c0-.17,0-.38-.09-.64l.13.32c.08,0,.12-.06.12-.19a1.34,1.34,0,0,1,.07-.39q0-.12.06-.12h.07a.26.26,0,0,0-.07-.2s-.06,0-.06,0,0-.13.16-.13.16,0,.16-.06a.47.47,0,0,0-.06-.38c-.09-.17,0-.22.25-.13v-.39s0,0,0-.05a.22.22,0,0,1,.27.05.75.75,0,0,1,0-.42c0-.15.09-.27.13-.38s0-.17,0-.19h0s0,0,0,0a2.06,2.06,0,0,1,.16-.57.24.24,0,0,0,.13-.07.12.12,0,0,0,.09,0s0,0,0,0c-.17-.17-.19-.23-.06-.16s.21.05.25,0a1,1,0,0,0,.1-.55,2.12,2.12,0,0,1,0-.61s.12,0,.23,0,.16,0,.16,0a.59.59,0,0,0,.09-.45.54.54,0,0,1,.1-.45l.19,0c.09,0,.13,0,.13-.1a.14.14,0,0,0,0-.19.21.21,0,0,1-.1-.19c0-.09,0-.14.16-.16s.16-.08.16-.17v-.19a2.49,2.49,0,0,0,.26-.58,3.73,3.73,0,0,1,.32-.7,6.74,6.74,0,0,0,.35-.64,1,1,0,0,1,.74-.45.91.91,0,0,1-.19.57.88.88,0,0,0-.19.52c0,.13,0,.2-.13.22a.28.28,0,0,0-.19.16c-.05.05-.05.11,0,.2s0,.15,0,.19h-.2s0,0,0,.13,0,.15,0,.19h-.19a.2.2,0,0,0,0,.19,1,1,0,0,1,0,.19h-.19v.33h-.13a.19.19,0,0,0,0,.19,1,1,0,0,1,0,.19h-.26a.5.5,0,0,0,0,.16.13.13,0,0,1,0,.16h-.19a1.43,1.43,0,0,0,0,.23c0,.1,0,.16,0,.16s0,0-.06,0h-.07v.32a1.88,1.88,0,0,0-.38.71q-.19.51-.39,1s0,.05-.06,0-.07,0-.07.16a.59.59,0,0,1-.13.45,1.49,1.49,0,0,0-.25.45.55.55,0,0,0,0,.16.15.15,0,0,1,0,.16,1.83,1.83,0,0,0-.36.68,9.38,9.38,0,0,1-.35.93C154.36,168.74,154.19,169.27,154,169.76Z"/><path fill="#ffffff" d="M160.57,148.05a.63.63,0,0,0,.09-.22,1.12,1.12,0,0,1,.1-.22c0-.07.13-.1.26-.1a1.18,1.18,0,0,0-.13.74,1.48,1.48,0,0,1-.07.74.78.78,0,0,0-.19.12l-.19.2a3,3,0,0,1-.26.51c-.08.13-.17.28-.26.45a.58.58,0,0,0-.19.32c0,.09,0,.13-.09.13s-.1,0-.1.06a1,1,0,0,0-.06.65,1.65,1.65,0,0,1-.07.77,1.8,1.8,0,0,0-.45.8c-.08.32.07.52.45.61a.53.53,0,0,1,.19-.51c.17-.17.28-.17.32,0s-.09.16,0,.22a.93.93,0,0,0,.32.19,2.69,2.69,0,0,0,.45.16l.36.13a4.39,4.39,0,0,1,.35-1,4.19,4.19,0,0,1,.55-.84,1.77,1.77,0,0,0,.57,1.48,5.8,5.8,0,0,1,.52-.83,5.28,5.28,0,0,1,.51-.65s0,0,0-.12,0-.15,0-.2a.61.61,0,0,1,.26-.16c.08,0,.13-.09.13-.22s0-.12.06-.1.07,0,.07,0a.68.68,0,0,0,.06-.29.39.39,0,0,1,.13-.29l.29-.26.29-.25a2.58,2.58,0,0,1,.25-.42c.09-.11.17-.23.26-.35.34-.35.51-.58.51-.71a1.28,1.28,0,0,1,.55-.67.7.7,0,0,0,.22-.94,1.5,1.5,0,0,1,.32-.41c.13-.11.26-.2.39-.29-.34-.09-.45-.2-.32-.36a.93.93,0,0,0,.13-.73,1.92,1.92,0,0,1-.13-.55,1.81,1.81,0,0,1,.13-.54c-.13,0-.24-.13-.32-.39-.3-.13-.52-.07-.65.19s-.23.26-.32,0V143a1.93,1.93,0,0,1-1.6-.51h.58a1.1,1.1,0,0,0-.16-.48.39.39,0,0,0-.29-.1H164a1,1,0,0,1-.45-.13.38.38,0,0,1-.32.2,3.41,3.41,0,0,1-.26.44c-.08.13-.19.28-.32.46a1.45,1.45,0,0,1-.35.35,1.29,1.29,0,0,0-.35.35,1.49,1.49,0,0,0-.2.52.36.36,0,0,1-.38.32v.77c-.09.38-.11.53-.07.45s.13-.05.26.12a3.35,3.35,0,0,0-.71,1.06q-.25.61-.51,1.26C160.44,148.13,160.52,148.12,160.57,148.05Z"/><path fill="#ffffff" d="M160.41,148.41c.06,0,.07-.07,0-.2s-.13,0-.13-.12-.19,0-.19,0a.28.28,0,0,0,.09.19A.28.28,0,0,0,160.41,148.41Z"/><path fill="#ffffff" d="M158.32,151.17a11.9,11.9,0,0,1,.74-1.77c.28-.53.57-1.1.86-1.7a1.16,1.16,0,0,1-.22-.13c-.06,0,0,0,0,.13a.31.31,0,0,0-.13.29c0,.15,0,.22-.06.22s-.11,0-.19-.06a.22.22,0,0,0-.13-.06,2.73,2.73,0,0,0-.13.29.73.73,0,0,0-.06.22c-.09.13-.15.24-.2.32a.63.63,0,0,0,0,.39.49.49,0,0,0-.35.41,4,4,0,0,1-.16.74h-.19q-.13,0,0,.39C158.16,151.11,158.23,151.21,158.32,151.17Z"/></g><g><g><rect fill="#ffffff" x="171.66" y="89.91" width="9.02" height="23.87"/><path fill="#ffffff" d="M170.28,89.91H158.44l-9.62,8.24V89.91h-9v23.87h9v-8.42l8.89,8.42h12.15l-13.23-12.21Z"/><path fill="#ffffff" d="M123.81,114.38c10.88,0,13.7-2.77,13.7-8.9V89.91h-8.66v14.61c0,2.46-2.1,3.91-5,3.91s-5-1.45-5-4V89.91H110.1v15.57C110.1,111.61,112.86,114.38,123.81,114.38Z"/><path fill="#ffffff" d="M107.94,89.91H80.64V96H93.87L80.22,108.73v5h27.65v-6.07H94.11L107.93,95Z"/><path fill="#ffffff" d="M64.59,114.38c10.94,0,13.71-2.77,13.71-8.9V89.91H69.64v14.61c0,2.46-2.1,3.91-5,3.91s-5.05-1.45-5.05-4V89.91H50.89v15.57C50.89,111.61,53.71,114.38,64.59,114.38Z"/><path fill="#ffffff" d="M29.6,96.52c0-1.86,2.77-1.92,3.67-1.92a5.3,5.3,0,0,1,4.46,2.7H48c0-4.51-4.27-8-14.61-8-11.48,0-13.41,5-13.41,7.93,0,5.35,4.15,6.86,13.11,7.82.78.06,5.41-.12,5.41,2.1,0,1.69-2.64,1.75-3.6,1.75a4.66,4.66,0,0,1-4.27-2.77H19.32c0,5.23,3.55,8.24,15.45,8.24,11,0,13.89-4.45,13.89-7.88s-2.28-6.67-11.6-7.87C33.15,98.09,29.6,97.91,29.6,96.52Z"/></g></g></svg>