<svg xmlns="http://www.w3.org/2000/svg" viewBox="0 0 200 200"><rect width="200" height="200" rx="30" fill="#033145"/><path d="M0,129v42.27H0A30,30,0,0,0,30,200H170a30,30,0,0,0,30-28.72h0V129Z" fill="#f6a019"/><path d="M66.62,178.85a.5.5,0,0,1,.45.19.65.65,0,0,0,.26.26.22.22,0,0,0,.31,0h0a.32.32,0,0,1,.25-.17.86.86,0,0,0,.13.2c.13.13.22.19.26.19l.16.1a.38.38,0,0,0,.22-.1.71.71,0,0,0-.73-.8,1.87,1.87,0,0,1-1.13-.42.24.24,0,0,1-.06.29A.33.33,0,0,0,66.62,178.85Z" fill="#fff"/><path d="M45.56,180.38Z" fill="#fff"/><path d="M69.51,164a2,2,0,0,1-.39.26c-.08-.09-.08-.17,0-.23a.26.26,0,0,0,.13-.22.66.66,0,0,0-.19-.2,1.57,1.57,0,0,1-.26-.19.69.69,0,0,1,0-.35.4.4,0,0,0-.1-.36c0-.08-.13-.11-.28-.09s-.23,0-.23-.1A4.78,4.78,0,0,0,68,163a1.73,1.73,0,0,1-.2.54,6.3,6.3,0,0,0-1.09,1.16l-1,1.35a7.83,7.83,0,0,0-1,1.22v.13h-.38a.3.3,0,0,0,0,.29.25.25,0,0,1-.07.28,2.17,2.17,0,0,1-.57.52c-.2.12-.39.24-.58.38a3,3,0,0,0-.39.55.58.58,0,0,1-.64.29l.55-.71a3.87,3.87,0,0,0,.41-.64.83.83,0,0,1,.26-.19,1,1,0,0,0,.26-.2.45.45,0,0,0,0-.28.48.48,0,0,1,0-.29s0-.08.13-.1h.19a.17.17,0,0,0,0-.19.66.66,0,0,1-.06-.2h.38s0-.1,0-.19-.07-.13,0-.13a.81.81,0,0,1,.29-.19c.1,0,.07-.09-.1-.13a15.12,15.12,0,0,1-1.22,1A10.24,10.24,0,0,0,62,168.38c-.08,0-.13,0-.16.06s-.07.07-.16-.06a.44.44,0,0,1,.32-.48.76.76,0,0,0,.45-.29.22.22,0,0,0,.07-.26.21.21,0,0,1,.06-.25c0-.09,0-.12.13-.1a.26.26,0,0,0,.26-.1.31.31,0,0,0,.06-.32.29.29,0,0,1,.07-.32,3.54,3.54,0,0,0,.7-.58c.26-.25.17-.49-.25-.7.08.21.05.3-.1.25a.32.32,0,0,0-.35.07.5.5,0,0,0-.16.22.31.31,0,0,1-.16.16,6.31,6.31,0,0,0-.55.61,1.29,1.29,0,0,1-.61.42,1.05,1.05,0,0,1,.42-.51,2.22,2.22,0,0,0,.54-.52,2.37,2.37,0,0,0,.39-.32.51.51,0,0,1,.32-.19.35.35,0,0,0,.29-.32.27.27,0,0,1,.28-.26h0c.17,0,.28-.06.32-.19a.7.7,0,0,1,.19-.32h.26a.68.68,0,0,0,.16-.13,1.46,1.46,0,0,1,.16-.19c.13-.22.29-.45.48-.71s.12-.51-.22-.77a.24.24,0,0,1,0,.26.27.27,0,0,1-.22.12c-.13,0-.17,0-.13.07a.09.09,0,0,1,0,.13h0a.3.3,0,0,1-.26,0,.23.23,0,0,0-.25,0s-.09,0-.13.12a.86.86,0,0,1-.13.2l-.32.13-.26.06a.26.26,0,0,0-.22.13,2.85,2.85,0,0,1-.23.26.92.92,0,0,0-.25.19.43.43,0,0,1-.26.13c-.17,0-.27.06-.29.19a.92.92,0,0,1-.1.32h-.38a.31.31,0,0,0-.16.16.63.63,0,0,1-.16.23c-.09.08-.13.13-.13.16s0,.07-.13.16a.21.21,0,0,1-.19,0h-.2a.22.22,0,0,0-.06.19.22.22,0,0,1-.06.19c-.09.09-.16.12-.23.1s-.14,0-.22.1a1.56,1.56,0,0,0-.23.28.54.54,0,0,1-.22.23c-.09.09-.15.13-.2.13a.14.14,0,0,0-.12.06,1,1,0,0,0-.26.19.33.33,0,0,1-.26.13c-.08,0-.12,0-.09.07s0,.08,0,.13a1.06,1.06,0,0,1-.38.16.49.49,0,0,0-.32.16c-.09.21-.19.34-.32.38a6,6,0,0,1-.55.45c-.19.13-.4.28-.61.45s-.42.34-.61.52a1.3,1.3,0,0,1-.67.31l-1.83-2.08A6.71,6.71,0,0,1,52,165a.2.2,0,0,1,.1-.2c.06,0,.07-.1,0-.19a.26.26,0,0,0-.13-.26.24.24,0,0,1-.13-.25,4.19,4.19,0,0,0,.65-.68c.18-.24.35-.48.51-.74a1,1,0,0,1,.32-.22.35.35,0,0,0,.19-.35c0-.13.05-.24.26-.33H54v-.16c0-.07-.08-.11,0-.16a1.28,1.28,0,0,1,.35-.45,1.19,1.19,0,0,0,.35-.45,10.58,10.58,0,0,1,.74-.89c.28-.3.53-.58.74-.84a4.28,4.28,0,0,1,.48-.64l.42-.45a1.1,1.1,0,0,1,.26-.35.71.71,0,0,0,.19-.23h.39s0-.13-.07-.25-.09-.22,0-.26c.26.21.38.23.35.06a.43.43,0,0,1,.1-.38c0-.05.1-.05.16,0a.12.12,0,0,0,.16,0v-.16a.17.17,0,0,1,0-.23l.32-.13a4.07,4.07,0,0,0,.22-.58c.07-.21.12-.38.16-.51a.54.54,0,0,0,.32-.13c.13-.08.17-.17.13-.25a.17.17,0,0,1-.13-.07c-.12,0-.14,0-.06-.13a.21.21,0,0,1,.13.07.22.22,0,0,0,.06.13c.09,0,.15,0,.2-.1a1,1,0,0,1,0-.24h.39a.15.15,0,0,0,0-.16.15.15,0,0,1,0-.16l.23-.19a1,1,0,0,0,.22-.19,1.13,1.13,0,0,0,.36-.45c.06-.17.22-.22.48-.13a4.07,4.07,0,0,1,.9-1.44,10.33,10.33,0,0,0,1-1.19.36.36,0,0,0,.13-.23c0-.06.06-.11.19-.16.22.22.26.38.13.48a.44.44,0,0,0-.19.29c0,.09,0,.15.09.2s.16.08.16.12a.39.39,0,0,1-.25.2.36.36,0,0,0-.26.19c-.21.21-.42.44-.61.67a2.58,2.58,0,0,0-.42.74c0-.08.09-.06.13.07s0,.15-.19.06a1.08,1.08,0,0,0,.13.29.56.56,0,0,1-.07.29,1.67,1.67,0,0,0,.93-.84,2.22,2.22,0,0,1,.87-.9c.09.22,0,.41-.29.58s-.31.32-.09.45c.08-.13.19-.31.32-.54s.23-.25.32,0c-.09,0-.24.2-.45.58A1.48,1.48,0,0,1,64,153q-.19.3.12.36a11.71,11.71,0,0,1,.84-1.35,10.4,10.4,0,0,0,.83-1.35,4.8,4.8,0,0,1,.39-.7.23.23,0,0,0,0-.2.34.34,0,0,0-.09-.19.64.64,0,0,1,.19-.13.44.44,0,0,0,.19-.19.48.48,0,0,0,0-.29,1,1,0,0,1,0-.42s.08-.05.1,0,0,0,0-.1a.58.58,0,0,0,0-.32.24.24,0,0,1,.1-.25v-.71c0-.09,0-.13.07-.13s.05,0,.06,0v0a6.19,6.19,0,0,0,.06-2.64,3.7,3.7,0,0,0-1.54-2.11c-.21-.3-.44-.59-.67-.87a3.63,3.63,0,0,0-.87-.74.37.37,0,0,0-.35-.1.42.42,0,0,1-.36-.09,3.45,3.45,0,0,0-.28-.26l-.29-.26a1.26,1.26,0,0,1-.32-.29,1.81,1.81,0,0,0-.33-.29,1.54,1.54,0,0,0-.32-.25,1.5,1.5,0,0,0-.32-.19.46.46,0,0,0-.42-.1.92.92,0,0,1-.54-.1v-.19h-.1a.12.12,0,0,1-.16,0s-.05,0,0-.06a.11.11,0,0,0,0-.13h-.39a2.93,2.93,0,0,0-1.25,0,4.35,4.35,0,0,1-1.44,0c.08.21,0,.31-.26.29a1,1,0,0,0-.58.09.89.89,0,0,0,0,.23c0,.1,0,.16-.16.16a1.18,1.18,0,0,0-.9.09q-.45.23-.51.36l-.39.13a.54.54,0,0,1-.25.06h.07l-.67.19a.65.65,0,0,0-.29.32s0,.06-.16,0h-.22a1,1,0,0,0-.1.29.56.56,0,0,1-.16.29c0,.05-.1.05-.16,0s-.12,0-.16,0-.07.06-.07.16a.32.32,0,0,1-.06.23,1.11,1.11,0,0,1-.39.16.58.58,0,0,0-.32.16,2.29,2.29,0,0,0-.38.54c-.13.24-.26.46-.39.68a4.61,4.61,0,0,1-.48.51,1.63,1.63,0,0,0-.35.39c0,.08-.09.21-.26.38a17.26,17.26,0,0,0-1.19,2.25c-.36.81-.67,1.59-.93,2.31a1.85,1.85,0,0,1-.32.9l-.13.52v.22s0,.07-.13.16l-.06.51a.75.75,0,0,1-.07.39v.19a.44.44,0,0,1,.07.19,4,4,0,0,0-.39,1.35,1.42,1.42,0,0,0,0,.58,1.1,1.1,0,0,1,0,.51.32.32,0,0,1-.16.13c-.11,0-.14.11-.09.2a.23.23,0,0,0,0,.25.58.58,0,0,1,.06.26.16.16,0,0,1-.06.13v0h-.07a.79.79,0,0,0,0,.48,1,1,0,0,1,.09.42,5.57,5.57,0,0,0,0,1v2.15a5.87,5.87,0,0,1,.19.83,6,6,0,0,1,.07.84,13,13,0,0,0-1.93,1.54,3.62,3.62,0,0,0-.58.77,3.28,3.28,0,0,1-.51.71.65.65,0,0,1-.32.16,1,1,0,0,0-.39.16.8.8,0,0,0-.19.32,1.32,1.32,0,0,1-.13.38,1.59,1.59,0,0,1-.32.26,1.59,1.59,0,0,0-.32.26,2,2,0,0,0-.45.7,2.14,2.14,0,0,1-.39.71,1.57,1.57,0,0,1-.41.51,1.9,1.9,0,0,0-.36.39c-.08.17-.16.31-.22.42a1.23,1.23,0,0,0-.16.35l-.16.13a.38.38,0,0,0-.16.19.44.44,0,0,0-.07.19.66.66,0,0,1-.06.2.31.31,0,0,1-.16.16c-.07,0-.1.07-.1.16a4.64,4.64,0,0,0-.51,1.34,2,2,0,0,1-.51,1.1.74.74,0,0,0-.07.29.49.49,0,0,1-.06.29.37.37,0,0,0,0,.29,1,1,0,0,1,0,.41.19.19,0,0,1-.13.16.29.29,0,0,0-.12.23,1.29,1.29,0,0,0,0,.48,2.44,2.44,0,0,1,0,.54,8.43,8.43,0,0,1-.2,1,2.82,2.82,0,0,0-.06,1,3.93,3.93,0,0,0,.19.58,3,3,0,0,1,.19.77,3.61,3.61,0,0,1,.16.87,2.74,2.74,0,0,0,.17.74s0,.06.09.06.1,0,.1.13a.57.57,0,0,0,.25.32.18.18,0,0,1,0,.2.17.17,0,0,0,0,.19.76.76,0,0,0,.22.22l.52.4c.19.12.43.3.74.51q.12,0,.09.06c0,.05,0,.07.1.07l.48.29.42.22a4.12,4.12,0,0,0,.58.23l.57.16a.71.71,0,0,0,.55-.07.51.51,0,0,1,.29-.13.16.16,0,0,0,.06.13c0,.13,0,.15.13.07s.05-.13,0-.26a.22.22,0,0,1,.1-.26.38.38,0,0,1,.32-.09.32.32,0,0,0,.32-.1.3.3,0,0,0,.06-.35A.5.5,0,0,1,44,181a7.12,7.12,0,0,1-1.19.29,5.83,5.83,0,0,1-1.32,0,5.26,5.26,0,0,1-1.19-.26,1.46,1.46,0,0,1-.8-.64c-.13-.17-.17-.27-.13-.29s0-.1,0-.23a1.08,1.08,0,0,0-.22-.44c-.15-.22-.1-.33.16-.33a.53.53,0,0,1,.35.36c.07.19.12.33.16.41H40a.21.21,0,0,1,.19,0,.52.52,0,0,1,.19.2.27.27,0,0,0,.26.13c.08,0,.13,0,.13.09s0,.1.06.1a.65.65,0,0,0,.39,0,.62.62,0,0,1,.38,0,1.71,1.71,0,0,1,.23.13.49.49,0,0,0,.29.06s.05,0,0-.09,0,0,.1.09.19.11.19-.06v-.13h.45a1.14,1.14,0,0,0,.45,0,3.31,3.31,0,0,0,.61-.19c.19-.09.33-.09.41,0l.65.09.38.07a.09.09,0,0,1,.07,0v-.12q0-.13.12-.06a.82.82,0,0,0,.55.64c.28.08.59.17.93.25.09-.08.16-.11.22-.09a.73.73,0,0,0,.36,0l.32-.26a.48.48,0,0,1,.32-.13,1.43,1.43,0,0,1,.26.19c.34.09.57,0,.67-.16a1,1,0,0,1,.42-.41.22.22,0,0,1,0,.22c0,.07,0,.12.06.16.05-.17.13-.26.26-.26s.09-.1-.13-.32a1.88,1.88,0,0,1,.23.16c.06.07.16.08.29,0s.09-.06.16-.17.11-.16.16-.16a.37.37,0,0,1,.25-.12.59.59,0,0,0,.26-.07.26.26,0,0,0,.16-.19.28.28,0,0,1,.16-.19.26.26,0,0,1,.26-.1.26.26,0,0,0,.26-.1s.07,0,.09-.09a.31.31,0,0,1,.16-.16.33.33,0,0,1,.26-.13.48.48,0,0,0,.26-.07.7.7,0,0,1,.19-.19,1,1,0,0,0,.26-.19.44.44,0,0,0,.19-.19.63.63,0,0,1,.13-.2.54.54,0,0,1,.25-.06.58.58,0,0,0,.26-.06.21.21,0,0,0,.13-.2.21.21,0,0,1,.13-.19.54.54,0,0,1,.38-.19c.09,0,.11,0,.07-.07s0-.08.06-.12a2.5,2.5,0,0,1,.39-.23l.45-.23.29-.44a.74.74,0,0,1,.48-.33c.22.3.45.59.7.87a9,9,0,0,0,.77.74c.3.26.59.51.87.77s.53.49.74.71a4.91,4.91,0,0,1,.55.38,1.52,1.52,0,0,0,.35.26q.31.19.45.06a.21.21,0,0,1,.25-.06c.05,0,0,.13-.06.26s0,.21.13.25.46-.1.48-.06a2.75,2.75,0,0,0,.22.26.39.39,0,0,0,.29.09.41.41,0,0,1,.29.1.53.53,0,0,1,.2.16,1,1,0,0,0,.19.22.59.59,0,0,0,.29.07.41.41,0,0,1,.29.13.27.27,0,0,1,.22.12.74.74,0,0,0,.23.2,1.1,1.1,0,0,0,.61.19.81.81,0,0,1,.48.13l.38.38a.15.15,0,0,1,0-.16c0-.06.07-.07.16,0s.08.07.1.19.07.17.16.13.12-.18.22-.16a.56.56,0,0,1,.29.16,1.06,1.06,0,0,0-.06-.61c-.09-.23,0-.31.32-.22-.13.13-.15.21-.07.25a2.26,2.26,0,0,0,.33.13l.35.16a.22.22,0,0,1,.1.29s0,.07-.13.07h-.55c-.06,0-.08,0,0,.12a2.45,2.45,0,0,1,1,.17,4,4,0,0,0,.9.22,1.51,1.51,0,0,0,.13-.29,1.2,1.2,0,0,1,.26-.29.86.86,0,0,1,.45,0q.32,0,0-.48a.47.47,0,0,0-.52-.16.89.89,0,0,1-.51,0,6.34,6.34,0,0,1-1.29-.29c-.47-.15-.77-.12-.89.1V181h-.48a.15.15,0,0,1-.13-.16,1.52,1.52,0,0,1,.42-.06c.15,0,.18-.11.1-.32s-.06-.53-.29-.55a.4.4,0,0,1-.42-.35c.13.09.21.08.26,0a.86.86,0,0,0,0-.39,1.47,1.47,0,0,0-.13-.42c-.06-.12-.12-.19-.16-.19,0,.22-.07.2-.22,0a2.42,2.42,0,0,1-.29-.55.86.86,0,0,0-.58-.19c-.26,0-.37-.17-.32-.51,0-.17,0-.25.16-.23a.23.23,0,0,0,.29-.15h0q-.39.14-.45-.09c0-.15-.22-.21-.52-.17a.6.6,0,0,0-.38-.38c-.09-.08-.09-.15,0-.19s.06-.11-.07-.2c.09.18,0,.26-.35.26s-.46-.08-.42-.26c.3,0,.41-.1.32-.32a3.49,3.49,0,0,1-1.12-.57,8.63,8.63,0,0,0-1-.71c-.35-.21-.7-.45-1.06-.71a3.62,3.62,0,0,1-.93-.9.58.58,0,0,0,.54-.41c.06-.24.29-.34.67-.29.05.08,0,.18-.25.29s-.17.2.13.29c0-.18.12-.24.25-.2a.83.83,0,0,1,.32.2c0-.26,0-.4.23-.42a.73.73,0,0,0,.42-.16c.08-.13.09-.22,0-.26s0-.1.09-.19a.09.09,0,0,0,.13.13h0l.13-.13c.13-.13.15-.19.19-.19s.05-.05.13,0,.15,0,.2,0,.1-.15.06-.2,0-.1.06-.19a.12.12,0,0,1,.16,0,.24.24,0,0,0,.23,0,.21.21,0,0,0,.13-.19c0-.09,0-.13.13-.13s.18-.07.16-.1,0-.05,0-.09a3.13,3.13,0,0,1,.42-.29,1.1,1.1,0,0,0,.28-.29,3.58,3.58,0,0,0,.26-.29.78.78,0,0,1,.26-.22.15.15,0,0,1,.16,0,.41.41,0,0,0,.22,0,.55.55,0,0,1,.07-.33,1.93,1.93,0,0,1,.38-.19.92.92,0,0,0,.33-.19,2.17,2.17,0,0,0,.38-.52.94.94,0,0,1,.32-.19,1.41,1.41,0,0,0,.39-.19.54.54,0,0,1-.29.48q-.34.22,0,.42a.28.28,0,0,1,.23-.32H66a.33.33,0,0,0,.26-.13,1,1,0,0,0,.19-.26,2,2,0,0,0,.32-.38,2.85,2.85,0,0,0,1.13-.9,4.31,4.31,0,0,1,1-1c-.12-.26-.14-.42,0-.48s.12-.2,0-.42a2.91,2.91,0,0,1,.46-.32C69.66,164.14,69.68,164,69.51,164ZM66.3,143.59a3.81,3.81,0,0,0,.13.45c-.05.22-.12.17-.23-.13a2.1,2.1,0,0,1-.16-.7A.6.6,0,0,1,66.3,143.59Zm-3.79-.26A1.11,1.11,0,0,1,63,144a.33.33,0,0,0,.16-.22c0-.11.14-.14.35-.1a1.74,1.74,0,0,1,0,1.48,7.57,7.57,0,0,0-.45,1.47,1,1,0,0,1-.32-.7,6.2,6.2,0,0,0-.13-1c0-.31-.15-.65-.19-.93A.87.87,0,0,1,62.51,143.33Zm-.19,6.23a.57.57,0,0,1,.57-.51,1.13,1.13,0,0,0-.41.64,1,1,0,0,1-.42.58A2.52,2.52,0,0,0,62.32,149.56ZM58,138.78a9.49,9.49,0,0,1,1.67.25c-.08.26-.27.32-.57.19a2.13,2.13,0,0,0-.71-.19,2.89,2.89,0,0,1-1.74.19A1.54,1.54,0,0,1,58,138.78Zm-2.28,1.83a3.7,3.7,0,0,1,.81-.13h.89a3,3,0,0,0,.84-.12c0,.38-.15.57-.58.57H56.21c-.12.22-.25.25-.38.1s-.32-.12-.58.1a.69.69,0,0,1,.48-.52Zm-5.39,15.57a2.41,2.41,0,0,0,.1-1,2,2,0,0,1,0-.35,2,2,0,0,0,0-.35c0-.24,0-.47.06-.71a7.26,7.26,0,0,1,.2-.9s0-.05,0-.06h0s.09,0,.13-.13a.36.36,0,0,1,0-.32A1.88,1.88,0,0,0,51,152a2.38,2.38,0,0,0,.23-.41,1.62,1.62,0,0,0,.16-.61.25.25,0,0,1,.16-.26c.1,0,.14-.13.09-.26a.44.44,0,0,1,.07-.19.6.6,0,0,0,.06-.19.42.42,0,0,1,.2-.1q.12,0,.12-.09a.49.49,0,0,0,0-.17.81.81,0,0,1,0-.22,1.78,1.78,0,0,1,.32-.35,2,2,0,0,0,.39-.48,5.21,5.21,0,0,1,.28-.52,1,1,0,0,1,.49-.38.63.63,0,0,1,.13-.2v-.19c0-.09.12.06.25.19s0,.28-.09.32-.08.13,0,.26H54a.13.13,0,0,1,.08.16v0h-.23c-.11,0-.14,0-.09.13a.66.66,0,0,1,0,.32.64.64,0,0,0-.13.26c.21,0,.31,0,.29-.1a.34.34,0,0,1,0-.28.23.23,0,0,1,.19-.07.2.2,0,0,0,.19-.13v-.16c0-.07-.07-.12,0-.16a.09.09,0,0,1,.13,0h0a.09.09,0,0,0,.13,0h0v-.19c0-.08-.07-.15,0-.19a2.9,2.9,0,0,0,.55-.61c.19-.28.37-.53.54-.74.09,0,.13,0,.13.06s0,.07-.13.07c0,.21.15.26.33.16s.25-.21.25-.29a1.5,1.5,0,0,0,.51-.49,6.8,6.8,0,0,1,.46-.6,1.14,1.14,0,0,1,.48-.39,4.5,4.5,0,0,0,.67-.39,4.11,4.11,0,0,1,1.13-.35,4.87,4.87,0,0,1,1.7.16,1.83,1.83,0,0,1,.25,1.25,3.12,3.12,0,0,1-.45,1.06.47.47,0,0,1-.22.2.39.39,0,0,0-.23.19.39.39,0,0,0,0,.26.36.36,0,0,1,0,.25,1,1,0,0,1-.29.2.81.81,0,0,0-.29.19.36.36,0,0,0,0,.25.39.39,0,0,1,0,.26,1.34,1.34,0,0,1-.32.39,2.37,2.37,0,0,0-.39.32,1.6,1.6,0,0,0-.32.45,4,4,0,0,1-.26.45H58.3a3,3,0,0,1-.36.51c-.15.17-.31.37-.48.58a1.39,1.39,0,0,0-.25.38H57a.21.21,0,0,0-.19,0l-.42.45c-.15.18-.33.37-.54.58s-.2.21-.29.32a3.08,3.08,0,0,1-.42.39,1.66,1.66,0,0,1-.32.38h-.19a.23.23,0,0,0-.2,0,1,1,0,0,1-.38.65h-.39a.53.53,0,0,1-.12.38.46.46,0,0,1-.23.06.57.57,0,0,0-.22.07.39.39,0,0,0-.13.29.39.39,0,0,1-.13.29c-.09.08-.17.12-.26.09a.3.3,0,0,0-.25.1.22.22,0,0,0-.07.16c0,.1,0,.16-.06.16a3.77,3.77,0,0,0-.64.39,4.09,4.09,0,0,0-.46.25.64.64,0,0,0-.25.39c-.52-.06-.62-.31-.51-.74Zm-.58,13.32a1.56,1.56,0,0,0,.29.61c.09.18.09.27,0,.29s-.13,0-.13-.09a3.24,3.24,0,0,1-.19-.52.6.6,0,0,0-.26-.38c.1-.26.19-.23.3.09Zm-8.51,7.87a3.61,3.61,0,0,1-.64-.19.35.35,0,0,0-.26-.39,1.67,1.67,0,0,1-.06-.77,5.09,5.09,0,0,1,.19-.77.5.5,0,0,1-.1-.19v-.19h.19a1.52,1.52,0,0,0,.06-.42.8.8,0,0,1,.13-.42.52.52,0,0,1,.2-.19.12.12,0,0,0,.07-.17v0a1.74,1.74,0,0,0,.06-.45c0-.13.13-.22.39-.26a.58.58,0,0,1-.06-.26.55.55,0,0,0-.07-.25.17.17,0,0,1,.19.15v0a.42.42,0,0,0,.13.32.3.3,0,0,0,.19.16c.09,0,.15.1.2.22s.15-.09.06-.16a.29.29,0,0,1-.13-.22c.09-.17.14-.18.16,0s.1.22.23.22a9.11,9.11,0,0,1-.42,1.93,4.52,4.52,0,0,0,0,2.31,2.66,2.66,0,0,1-.69,0Zm10.66-4.82c0,.18-.09.24-.29.2s-.26,0-.22.19,0,.19-.06.19h-.17a.2.2,0,0,0-.16.07v.32h-.64a1.56,1.56,0,0,0-.64.13.64.64,0,0,0-.13.19.44.44,0,0,1-.19.19,2.25,2.25,0,0,1-.42.13,2.76,2.76,0,0,0-.55.19.2.2,0,0,0-.12.16c0,.07,0,.12-.13.16a.33.33,0,0,1-.26.13.59.59,0,0,0-.26.07.44.44,0,0,0-.19.19.8.8,0,0,1-.13.19.24.24,0,0,1-.25.1.28.28,0,0,0-.26.09.29.29,0,0,0-.16.2.15.15,0,0,1-.16.12,1.35,1.35,0,0,1-.42.2,2,2,0,0,0-.54.19s-.07,0-.07.06,0,.09-.13.13h-.16a.15.15,0,0,0-.16,0,2,2,0,0,0-.13.16.38.38,0,0,1-.19.16h-.16a.15.15,0,0,0-.16,0,.26.26,0,0,0-.19.07.4.4,0,0,1-.26.06,1.87,1.87,0,0,0-.29.2,1.19,1.19,0,0,1-.35.19,1.14,1.14,0,0,1-.52,0c-.17,0-.25,0-.25.19s-.17-.05-.26-.29-.09-.37,0-.42.16-.17.1-.25a1.21,1.21,0,0,1-.1-.65c.13,0,.19,0,.19-.12a.37.37,0,0,1,.13-.39V175a.72.72,0,0,1,.06-.29,2,2,0,0,1,.33-.25l.32-.26a.48.48,0,0,0,.13-.32.39.39,0,0,1,.13-.32,1.16,1.16,0,0,1,.35-.55,1,1,0,0,0,.29-.74,1.58,1.58,0,0,1,.57-.09c.09,0,.24-.08.45-.29a.15.15,0,0,0,.16-.13.27.27,0,0,1,.17-.19.59.59,0,0,0,.19-.32,2,2,0,0,0,.32-.39,1.6,1.6,0,0,1,.42-.51,2.43,2.43,0,0,0,.48-.58c.25-.3.48-.59.67-.87l.61-.87a2.82,2.82,0,0,1,.77,1.13,4.22,4.22,0,0,0,.71,1.19.28.28,0,0,0,.29.25c.15,0,.18,0,.1-.06.12,0,.18.08.16.13s0,.1.09.19a3.17,3.17,0,0,0,.35.29.64.64,0,0,1,.23.55c.21-.13.32-.14.32,0s0,.12-.13,0a.12.12,0,0,1,.09.14.08.08,0,0,1,0,0c-.05.08-.05.15,0,.19a.75.75,0,0,1,.25-.13.77.77,0,0,1,.52-.06.48.48,0,0,1-.16.45c-.14.13-.11.21.1.21Zm.9-1a.39.39,0,0,1-.55,0l0,0a.42.42,0,0,1-.12-.26.33.33,0,0,0-.3-.38c-.13,0-.19-.06-.19-.1a.12.12,0,0,1,0-.16c0-.07,0-.12-.06-.16a1.53,1.53,0,0,0-.45-.39.65.65,0,0,1-.13-.38.39.39,0,0,0-.13-.32.41.41,0,0,0-.13-.1l-.13-.09-.12-.13c-.09-.22-.19-.43-.29-.65a5.24,5.24,0,0,1-.29-.64,3.39,3.39,0,0,1,.83.9,10,10,0,0,0,.71,1,.43.43,0,0,0,.22.09c.11,0,.16.06.16.1a1.52,1.52,0,0,0,.23.32l.29.39a1.76,1.76,0,0,0,.45.41c.23.2.23.36,0,.53Zm5.72,5.65a.17.17,0,0,0,.15.19h0a2.39,2.39,0,0,0,.74.71,2.27,2.27,0,0,1,.74.77c.13.08.15.12.06.09a1.14,1.14,0,0,1-.26-.09,2.34,2.34,0,0,0-.73-.77,2.39,2.39,0,0,1-.74-.71.1.1,0,0,1-.1-.13.1.1,0,0,1,.11-.08Z" fill="#fff"/><path d="M66.36,178.65s0-.1-.16-.19a1,1,0,0,0-.38-.19h-.23s0,.18.13.16a.3.3,0,0,1,.26,0v.19C66.23,178.7,66.36,178.7,66.36,178.65Z" fill="#fff"/><path d="M65.46,178.14c-.08,0,0,0,.13.13C65.59,178.18,65.55,178.14,65.46,178.14Z" fill="#fff"/><path d="M124.09,178.4c-.08.08,0,.17.2.25a.47.47,0,0,1,.12-.32c.09-.08,0-.15-.12-.19A1,1,0,0,1,124.09,178.4Z" fill="#fff"/><path d="M152.67,163.82c.09,0,.11-.1.06-.16a.34.34,0,0,0-.25-.13.49.49,0,0,0-.39.23A1.14,1.14,0,0,0,152.67,163.82Z" fill="#fff"/><path d="M168.5,167.67a.19.19,0,0,1-.1-.19s0-.07.1-.1.1-.11.1-.28c-.26-.69-1.12-1.1-2.57-1.22a9.44,9.44,0,0,0-1,1L164,168l-.62,1a2.86,2.86,0,0,1-.6.7.13.13,0,0,0,0,.16v.23h-.2s-.05,0,0,.13a.61.61,0,0,1,0,.19h-.13a.21.21,0,0,0,0,.19.61.61,0,0,1,0,.19,1.63,1.63,0,0,1-.45.33.56.56,0,0,0-.32.38.29.29,0,0,1-.22.32,1,1,0,0,0-.36.2,4.68,4.68,0,0,0-.54.8,1.35,1.35,0,0,1-.68.61,1.41,1.41,0,0,1,.26-.42l.39-.42a.83.83,0,0,0,.25-.41c.05-.15,0-.31-.19-.48a1.48,1.48,0,0,0-.25.35,1.77,1.77,0,0,1-.26.35,3.13,3.13,0,0,1-.29.42c-.15.19-.25.16-.29-.1.09,0,.13,0,.13-.06s0-.09-.13-.13a6.57,6.57,0,0,1-.67.9c-.24.26-.49.51-.74.77s-.52.54-.77.84a7,7,0,0,0-.71,1,2.14,2.14,0,0,0-1.09.83,1.91,1.91,0,0,1-1.22.77,4.67,4.67,0,0,0,.32-1.22,8.07,8.07,0,0,1,.26-1.28,4.06,4.06,0,0,1,.25-.84c.13-.3.22-.51.26-.64a2.82,2.82,0,0,1,.19-.51V173c0-.08,0-.12.07-.12s.06,0,.06-.07a1.9,1.9,0,0,0,.13-.74,6.22,6.22,0,0,1,.06-.86c.22-.86.43-1.67.65-2.44s.42-1.52.64-2.25h.58a.9.9,0,0,1,.19-.74,4,4,0,0,0,.32-.48v-.32c0-.09.05-.16.16-.23a.69.69,0,0,0,.22-.16,4.16,4.16,0,0,1,.33-1.09l.25-.51a.9.9,0,0,0,.13-.39c0-.08,0-.12.07-.09s.06,0,.06-.1a.26.26,0,0,0,.1-.26.28.28,0,0,1,.09-.26.83.83,0,0,1,.23-.38.65.65,0,0,0,.16-.32.13.13,0,0,1,.09-.13.11.11,0,0,0,.1-.06,3.89,3.89,0,0,1,.19-.42,1.08,1.08,0,0,0,.13-.29.15.15,0,0,1,.13-.13s.05,0,.06,0v0a.39.39,0,0,0,.13-.29.59.59,0,0,1,.07-.29.38.38,0,0,1,.16-.19.62.62,0,0,0,.16-.2v-.32a.29.29,0,0,1,.22-.06c.11,0,.16,0,.16-.13a.44.44,0,0,0,0-.32,2.54,2.54,0,0,1,0-.39,1.18,1.18,0,0,1,.16-.29l.23-.22a5.06,5.06,0,0,0-1-.32l-1-.26a1.53,1.53,0,0,1-1.13-.13c-.28-.17-.51-.31-.7-.41a.45.45,0,0,0-.58.12,7.31,7.31,0,0,0-.87,1.51,12.08,12.08,0,0,0-1.06,1.67,11.66,11.66,0,0,1-1,1.61l-.19.35a.71.71,0,0,0-.13.35.79.79,0,0,1-.13.39,1.59,1.59,0,0,1-.26.32,1.27,1.27,0,0,0-.13.32.69.69,0,0,1-.16.45,2.27,2.27,0,0,0-.22.32.71.71,0,0,0-.07.32.66.66,0,0,1-.11.36,2.89,2.89,0,0,0-.72,0c-.17,0-.27,0-.29.1a.31.31,0,0,0,0,.19.77.77,0,0,0,.07.16s0,.06-.1.06-.16-.15-.23-.06-.2.11-.41.06a8.83,8.83,0,0,0-1.26,0,1.13,1.13,0,0,1-.86-.29,1.27,1.27,0,0,1,.77,0c.3.09.47,0,.51-.19a.26.26,0,0,1-.22-.1s-.08,0-.16.1-.05-.09-.26-.13a3.47,3.47,0,0,0-.45-.06c-.09,0-.13,0-.13-.07s-.05,0-.06,0v0a.16.16,0,0,0-.13.06l-.07.07a2.38,2.38,0,0,1-.86-.26,1.61,1.61,0,0,0-1.06-.06,4.4,4.4,0,0,0,.22-.81,10,10,0,0,0,.16-1,9.65,9.65,0,0,0-.06-1.86,3.39,3.39,0,0,1,.06-1.55c-.21.09-.35,0-.42-.22a1,1,0,0,0-.22-.48,5.06,5.06,0,0,0-.32-1,9.12,9.12,0,0,1-.35-1c-.11-.34-.23-.67-.36-1,.17,0,.27.07.29.22s.16.19.42.1a2.79,2.79,0,0,1,.19.7,3.59,3.59,0,0,0,.13.71h.26a.42.42,0,0,1,.06.39.32.32,0,0,0,.13.38q.14.14,0,.45c-.09.22,0,.3.19.26a2.05,2.05,0,0,0,0-1.25c-.13-.37-.25-.74-.38-1.13a1.82,1.82,0,0,1,.9,1.48c-.05.09-.05.13,0,.13a.6.6,0,0,1,.19.06.84.84,0,0,1,.19.36,2.09,2.09,0,0,0,.13.35,2.32,2.32,0,0,1,0,.83q-.1.53.42.45a2,2,0,0,1-.23-1.09,2.7,2.7,0,0,0-.16-1.09l-.16-.16a1.12,1.12,0,0,1-.16-.22.38.38,0,0,1-.13-.26.58.58,0,0,0-.06-.26,1.56,1.56,0,0,0-.2-.16A.75.75,0,0,1,148,156a1,1,0,0,1-.06-.35,1,1,0,0,0-.07-.35,1.22,1.22,0,0,0-.38-.26,1.27,1.27,0,0,1-.39-.26.22.22,0,0,1-.06-.19.21.21,0,0,0-.13-.19.28.28,0,0,0-.26-.1.25.25,0,0,1-.25-.09,2.83,2.83,0,0,1-.61-.68,1.51,1.51,0,0,0-.68-.54.21.21,0,0,0,.1.19c.06,0,0,.11-.1.19a.56.56,0,0,1-.16-.29.56.56,0,0,0-.16-.29.8.8,0,0,0-.42-.16,1,1,0,0,1-.48-.16.35.35,0,0,1-.19-.22.39.39,0,0,0-.19-.23h-.33a11.06,11.06,0,0,0-1.82-.12,7.51,7.51,0,0,0-1.64.12.61.61,0,0,1-.32.13,1.78,1.78,0,0,0-.39.07c-.21.08-.5.22-.87.41a3.84,3.84,0,0,1-.8.36q-.14,0-.06.06c.07.06,0,.09-.07.13a.52.52,0,0,1-.38.1.38.38,0,0,0-.32.09s-.08,0-.1.13a.35.35,0,0,1-.1.19c0,.05-.1.05-.19,0s-.15,0-.19,0-.08.06-.1.16a.89.89,0,0,0,0,.23h-.39a.87.87,0,0,0-.28.35,1,1,0,0,1-.23.35c-.3.31-.57.56-.8.78a4.62,4.62,0,0,0-.61.64,2.83,2.83,0,0,1-.45.32.31.31,0,0,0-.1.29.31.31,0,0,1-.09.29,1.2,1.2,0,0,1-.33.19.31.31,0,0,0-.09.29.31.31,0,0,1-.1.29.8.8,0,0,1-.19.13.2.2,0,0,0-.13.19l-.19.58a9.21,9.21,0,0,0-.71,4.49c-.38.6-.82,1.37-1.31,2.31-.19.35-.34.7-.48,1l-.62.55c-.49.45-1,.94-1.51,1.47s-1,1-1.41,1.55-.75.86-1,1.12a29.55,29.55,0,0,1-2.22,2.28,24.16,24.16,0,0,0-2.08,2.21c0,.05-.11.05-.2,0s-.15,0-.19,0a.49.49,0,0,0,0,.17.15.15,0,0,1,0,.16H120c-.13,0-.15-.05-.19,0a4.31,4.31,0,0,0-.58.7,1.62,1.62,0,0,1-.64.58.28.28,0,0,0-.26.1c0,.06-.08,0-.13-.1.13-.4.24-.81.33-1.22a6.29,6.29,0,0,1,.38-1.28,14.15,14.15,0,0,1,.48-1.48,11.43,11.43,0,0,0,.42-1.29,1.86,1.86,0,0,0,.1-.25,1.14,1.14,0,0,1,.09-.26,1.57,1.57,0,0,0,.13-.71.15.15,0,0,1,.13-.13s0,0,.06,0v0c.09-.25.15-.47.2-.64a3.93,3.93,0,0,1,.19-.58,1,1,0,0,0,.06-.35.69.69,0,0,1,.13-.36.26.26,0,0,1,.13-.22l.19-.16a.49.49,0,0,0,.1-.42c0-.19.07-.24.29-.16a3.12,3.12,0,0,1-.39,1.22,2.11,2.11,0,0,0-.32,1q0,.12-.09.12c-.07,0-.1,0-.1.07a.86.86,0,0,0,0,.45.86.86,0,0,1,0,.45.54.54,0,0,1-.19.38c-.13.13-.07.24.19.32a5.44,5.44,0,0,0,.29-.86,4.83,4.83,0,0,1,.22-.74,1.6,1.6,0,0,1,.23-.45,1.42,1.42,0,0,0,.16-.45,1.44,1.44,0,0,1,.32-.71,1,1,0,0,1,.26-.19c.08,0,.12-.09.12-.13a1.15,1.15,0,0,0,.1-.58,1.82,1.82,0,0,1,0-.57.73.73,0,0,1,.23-.16,1.84,1.84,0,0,0,.22-.17.59.59,0,0,0,.07-.29.37.37,0,0,1,.13-.28,14.53,14.53,0,0,1,.8-1.51,5.45,5.45,0,0,0,.61-1.32.81.81,0,0,0,0-.22.14.14,0,0,1,0-.17l.16-.16a.69.69,0,0,0,.16-.22,2.47,2.47,0,0,0,.32-.87,2.18,2.18,0,0,1,.26-.74.21.21,0,0,1,.13-.19.8.8,0,0,0,.19-.13,5,5,0,0,0,.38-1c.09-.32.2-.65.33-1a.38.38,0,0,1,.22-.19.21.21,0,0,0,.16-.19.15.15,0,0,0,0-.16.89.89,0,0,1,0-.23,3.72,3.72,0,0,1,.38-.71,4.91,4.91,0,0,1,.39-.51.61.61,0,0,0,.13-.45v-.45a.21.21,0,0,1,.16-.19.45.45,0,0,0,.22-.19.82.82,0,0,0,.1-.26,1.17,1.17,0,0,1,.1-.26,2.19,2.19,0,0,0,.16-.57.91.91,0,0,1,.16-.45c.08-.26.16-.46.22-.61a2.16,2.16,0,0,0,.16-.55,1.92,1.92,0,0,0-.06-1.16,2,2,0,0,0-.51-.64v-.32a1.58,1.58,0,0,0-.38-.6.55.55,0,0,0-.61-.12c0-.43-.26-.6-.77-.52,0-.38,0-.64-.19-.77a.3.3,0,0,0-.26,0,.3.3,0,0,1-.26,0,.89.89,0,0,0-.77-.16,4,4,0,0,0-1,.35,9,9,0,0,0-1,.58c-.32.22-.57.39-.74.52l-.35.32a.71.71,0,0,1-.35.19.33.33,0,0,0-.26.13l-.26.25a1.42,1.42,0,0,0-.29.26,2.75,2.75,0,0,1-.22.26c-.86.73-1.62,1.41-2.28,2s-1.3,1.29-1.9,1.93l-1,1c-.33.33-.64.66-.93,1,0,.05-.07.08-.07.1a.21.21,0,0,1-.06.1.26.26,0,0,0-.07.19.59.59,0,0,1-.31.45,1.27,1.27,0,0,0-.39.26,2.15,2.15,0,0,0-.48.64,2.75,2.75,0,0,1-.48.64,1,1,0,0,1-.29.29.51.51,0,0,0-.23.23.54.54,0,0,1-.29.48l-.41.22s0,.11,0,.19,0,.16,0,.2a1.42,1.42,0,0,1-.26.29,1.78,1.78,0,0,0-.26.22,6.3,6.3,0,0,1-.48.55,2.79,2.79,0,0,0-.42.54l-.29.26a1.43,1.43,0,0,0-.28.32.59.59,0,0,0-.13.42q0,.28-.39.09c.09-.47,0-.78-.19-.93a1.65,1.65,0,0,1-.51-.54.42.42,0,0,1-.13-.32.79.79,0,0,0-.13-.39.93.93,0,0,1-.74-.26,1,1,0,0,0-.8-.25.66.66,0,0,0-.39-.52,3.55,3.55,0,0,0-.71-.19,5,5,0,0,0-1.41.9l-1.15,1a8.53,8.53,0,0,0-.87.83c-.24.26-.48.54-.74.84a10.45,10.45,0,0,1-.8.83,9,9,0,0,0-.74.77,2.86,2.86,0,0,0-.42.55,3.84,3.84,0,0,1-.35.54,3.55,3.55,0,0,1-.64.52.94.94,0,0,0-.45.51.63.63,0,0,1-.23.42,1.64,1.64,0,0,0-.29.35c-.21.22-.44.43-.67.65s-.44.4-.61.57a.56.56,0,0,0-.16.29.56.56,0,0,1-.16.29.57.57,0,0,1-.19.22c-.09.07-.16.06-.2,0,.43-1,.82-2.05,1.16-3.08s.73-2,1.15-3c.05,0,.08-.06.1-.06s0,0,.1-.13v-.19a.79.79,0,0,1,.19-.39.39.39,0,0,0,.13-.32c0-.13.08-.18.13-.16s.06,0,.06,0a8.8,8.8,0,0,0,.42-1,1.54,1.54,0,0,1,.35-.67v-.32a.29.29,0,0,1,.2-.16c.08,0,.14-.1.19-.23a.45.45,0,0,1,.16-.38.42.42,0,0,0,.16-.32c0-.09,0-.12.06-.1a.11.11,0,0,0,.13,0,4.34,4.34,0,0,0,.51-1.09c.26.08.42.05.49-.1s.2-.18.41-.1a.81.81,0,0,1,0-.61.7.7,0,0,0,.16-.48c0-.3.1-.43.32-.39a.26.26,0,0,0-.07-.19.15.15,0,0,1,.07-.12c.08-.35,0-.51-.16-.49a.28.28,0,0,1-.35-.18s0,0,0,0c-.17,0-.23-.18-.19-.42s0-.39-.13-.48-.38-.26-.51-.13-.26.11-.39-.06,0-.47-.25-.52a1.72,1.72,0,0,0-.64,0,1.14,1.14,0,0,1,0-.58q.06-.26-.39-.12a.48.48,0,0,0-.23-.07.18.18,0,0,1-.16-.13,2.11,2.11,0,0,0-1.09.71.12.12,0,0,0,0,.16v.16s0,.08-.13.1a.34.34,0,0,0-.19.09l-.13.26a.58.58,0,0,0-.06.26c0,.08,0,.12-.07.09s-.08,0-.12.1c-.22.34-.44.72-.68,1.12s-.48.81-.74,1.19a1.71,1.71,0,0,1-.13.23.25.25,0,0,0-.06.16.34.34,0,0,1-.16.29.32.32,0,0,0-.16.29q0,.12-.06.09c-.06,0-.09,0-.13.1a.32.32,0,0,0-.1.32.52.52,0,0,1-.1.38h0a.14.14,0,0,0,0,.17.43.43,0,0,1,0,.16.58.58,0,0,1-.26.06c-.09,0-.13,0-.13.13a.63.63,0,0,0-.13.35.56.56,0,0,1-.13.35.06.06,0,0,0-.06.07.16.16,0,0,1-.06.13c-.09.13-.18.25-.26.38a.61.61,0,0,0-.13.32c0,.13,0,.19-.07.16s-.08,0-.12,0a2,2,0,0,0-.16.64.91.91,0,0,1-.16.45,3.09,3.09,0,0,0-.42.83l-.29.77a1.71,1.71,0,0,1-.13.23.49.49,0,0,0-.06.29c0,.08,0,.13-.07.13a.22.22,0,0,0-.13.06c-.08.3-.17.61-.25.93a2.34,2.34,0,0,1-.26.68,2.91,2.91,0,0,0-.32.8c-.09.32-.15.54-.19.67a4,4,0,0,0-.16.45,1.7,1.7,0,0,0,0,.45c0,.09,0,.13-.09.13s-.1,0-.1.06a3.83,3.83,0,0,0-.19.74,7,7,0,0,1-.13.87,13.1,13.1,0,0,0-.45,1.51c-.13.53-.23,1.06-.32,1.57a2.94,2.94,0,0,0,0,.42,1,1,0,0,1,0,.42,2.48,2.48,0,0,1-.06.54.85.85,0,0,1-.13.36,5.55,5.55,0,0,0,.09,1,3.38,3.38,0,0,1,.1.71.86.86,0,0,1,0,.45.82.82,0,0,0,0,.44c0,.09.08.11.1.07s0,0,.09.13a1,1,0,0,0,.48.54,1.91,1.91,0,0,0,.61.29c.09,0,.13,0,.13.1s0,.09.07.09a.27.27,0,0,0,.32-.06.48.48,0,0,1,.38-.13.54.54,0,0,1,.45.16q.14.17.45,0a5.18,5.18,0,0,1,.84-.64,2.31,2.31,0,0,0,.7-.58.17.17,0,0,1,.19,0,.24.24,0,0,0,.26,0,4.72,4.72,0,0,0,.61-.73,6.15,6.15,0,0,1,.61-.74,1.83,1.83,0,0,1,.36-.26,1.07,1.07,0,0,0,.35-.32.75.75,0,0,0,.29-.39,1.2,1.2,0,0,1,.29-.45,2.32,2.32,0,0,1,.57-.51,1.27,1.27,0,0,0,.45-.38.31.31,0,0,0,.1-.29.19.19,0,0,1,.1-.23,8.53,8.53,0,0,0,.7-.77l.58-.58a2.16,2.16,0,0,0,.39-.51.73.73,0,0,1,.35-.42.76.76,0,0,0,.35-.29.24.24,0,0,0,.1-.25.26.26,0,0,1,.1-.26.23.23,0,0,1,.16-.06c.06,0,.11-.05.16-.13a.28.28,0,0,0,.09-.26.26.26,0,0,1,.1-.26,1.78,1.78,0,0,1,.32-.35,3.08,3.08,0,0,0,.39-.42l1.25-1.54a16.69,16.69,0,0,1,1.31-1.48c.09,0,.14,0,.16-.09s.08,0,.17.09a21.79,21.79,0,0,1-.26,2.28,18.41,18.41,0,0,0-.26,2.22,1.84,1.84,0,0,0,0,.74,1.17,1.17,0,0,1,0,.74.51.51,0,0,0,.42.41.68.68,0,0,1,.48.42c-.08.39,0,.61.19.68a5,5,0,0,1,.65.22c.17,0,.26,0,.29-.06a.22.22,0,0,0,0-.16.23.23,0,0,1,0-.2c0-.06.11-.09.28-.09a.51.51,0,0,0,.42.57h0l1,.13c0-.17,0-.25.19-.25a1,1,0,0,0,.39-.07.44.44,0,0,0,.09-.38.46.46,0,0,1,.1-.39.26.26,0,0,1,.09-.16.27.27,0,0,0,.1-.16.53.53,0,0,1,.13-.42.61.61,0,0,0,.19-.35c0-.09,0-.12.07-.1s.08,0,.12-.09a1,1,0,0,0,.16-.39,3.05,3.05,0,0,1,.17-.51s0-.07.16-.07a.29.29,0,0,0,.22-.06.12.12,0,0,0,0-.16.24.24,0,0,1,0-.23s0-.07.16-.09a.52.52,0,0,0,.23-.1v-.06a.22.22,0,0,1,.06-.19.58.58,0,0,1,.06-.26.31.31,0,0,1,.2-.29c.13-.07.19-.14.19-.23s0-.17.06-.13.09,0,.13-.06l.36-.58a4.59,4.59,0,0,1,.35-.51l.25-.26a1.59,1.59,0,0,0,.26-.32.15.15,0,0,0,0-.16.43.43,0,0,1,0-.16.5.5,0,0,1,.19-.1c.09,0,.13,0,.13-.09a.55.55,0,0,0,.2-.39q.06-.12.09-.09s.06,0,.1,0a5.32,5.32,0,0,1,.67-.89c.24-.26.44-.5.61-.71a2.9,2.9,0,0,1,.48-.51l.42-.39a1.41,1.41,0,0,0,.19-.39,1,1,0,0,1,.2-.32,5.3,5.3,0,0,1,.67-.67,6.3,6.3,0,0,0,.55-.48v-.32a7,7,0,0,0,.51-.58,4.81,4.81,0,0,0,.48-.42,4.81,4.81,0,0,1,.48-.42.84.84,0,0,0,.2-.29.77.77,0,0,1,.19-.28,11.47,11.47,0,0,1,1.16-1.35,14.1,14.1,0,0,1,1.28-1.16l.42-.26a3.08,3.08,0,0,0,.48-.32,1.47,1.47,0,0,0,.48-.38c.15-.17.25-.15.29.06a1.85,1.85,0,0,0-.35.48l-.23.42a1.26,1.26,0,0,1-.25.58,1.37,1.37,0,0,0-.26.51,1,1,0,0,0-.2.26.83.83,0,0,1-.19.26,2.32,2.32,0,0,0-.22.41.88.88,0,0,0-.1.36,1.18,1.18,0,0,1-.25.57,3.72,3.72,0,0,1-.33.45,1.44,1.44,0,0,0-.32.71,1.27,1.27,0,0,1-.25.64,3.72,3.72,0,0,1-.33.45,2.1,2.1,0,0,0-.22.42,1.08,1.08,0,0,0-.1.35,1.38,1.38,0,0,1-.25.55,2.77,2.77,0,0,0-.26.48c-.09.09-.13.15-.13.19a.66.66,0,0,1-.06.2,16.35,16.35,0,0,0-.9,1.89c-.26.62-.52,1.25-.77,1.89-.17.43-.36.93-.55,1.48a11.17,11.17,0,0,1-.54,1.35,4.24,4.24,0,0,1-.17.61c-.06.19-.11.38-.16.55a5.68,5.68,0,0,0-.32,1.47,9.25,9.25,0,0,1-.19,1.54c-.09.26-.16.52-.22.77s-.12.54-.17.84a9.93,9.93,0,0,0,0,2.18,1.32,1.32,0,0,0,.13.48c.09.2.17.38.26.55v.64a1.64,1.64,0,0,0,.13.65,8,8,0,0,1,1.09.73,2.71,2.71,0,0,0,1.22.55c.22,0,.34-.06.39-.19s.1-.19.19-.19a.58.58,0,0,1,.48.06,1,1,0,0,0,.42.13.17.17,0,0,1,.15-.19h0l.39-.17.32-.16a.51.51,0,0,1,.45,0,.59.59,0,0,0,.45,0l.19-.22c.08-.11.15-.18.19-.23a.58.58,0,0,1,.26-.06.54.54,0,0,0,.25-.06,1.83,1.83,0,0,0,.26-.36,1.77,1.77,0,0,1,.26-.35.57.57,0,0,1,.22-.07.17.17,0,0,0,.16-.12.49.49,0,0,0,.13-.36c0-.15.09-.22.26-.22a.3.3,0,0,0,.32-.19.84.84,0,0,1,.19-.33,1.93,1.93,0,0,1,.36-.28l.35-.23a.44.44,0,0,1,.1-.35c.06-.07,0-.12-.1-.16s0,.12-.1.09a.28.28,0,0,0-.22,0,1.38,1.38,0,0,0-.51.48c-.13.19-.26.39-.39.61l-.23.09-.16.1a.12.12,0,0,0,0,.16v.16s-.18.19-.28.32a1.2,1.2,0,0,1-.29.26c-.09.09-.13.06-.13-.07V181c-.09,0-.12,0-.1.09s0,.1-.1.1a1.89,1.89,0,0,0-.6.45,1.35,1.35,0,0,1-.68.38,2.76,2.76,0,0,1,.52-.61,4.68,4.68,0,0,0,.57-.61,3.4,3.4,0,0,0,.55-.7,3.41,3.41,0,0,1,.54-.71.73.73,0,0,1,.39-.22,1.11,1.11,0,0,0,.39-.16.67.67,0,0,1,0-.2c0-.08,0-.13.09-.13a.81.81,0,0,1,.29-.19.81.81,0,0,0,.29-.19A.56.56,0,0,0,124,178a.27.27,0,0,1,.16-.22h.2l.19.16v-.13a.28.28,0,0,1,.19-.06v.12c0,.13,0,.15.13.07a.86.86,0,0,1,.06-.23.16.16,0,0,1,.13-.16c.22-.21.42-.39.61-.54a4.81,4.81,0,0,0,.48-.42c-.13.21-.18.34-.16.39s.06,0,.1,0a3.9,3.9,0,0,0,.19-.35h.2a.21.21,0,0,0,.19,0,.29.29,0,0,0,.32-.26v-.06l.29-.32a4.4,4.4,0,0,1,.35-.39,4.71,4.71,0,0,1,.69-.79,1,1,0,0,0,.14.28.61.61,0,0,1,0,.19v.13h.2v.38a.54.54,0,0,0,.22.23l.29.16a.54.54,0,0,1,.1.16.85.85,0,0,0,.09.22c0,.05.11.05.2,0s.15,0,.19,0,.06.05.06.13a.48.48,0,0,0,.07.26H130a.21.21,0,0,1,.19,0c.09,0,.14.06.16.16s.08.16.16.16a1.5,1.5,0,0,1,.74.23,1.13,1.13,0,0,0,.74.16c.13-.13.17-.2.13-.2s.13,0,.13.07,0,.13.06.13a.12.12,0,0,0,.17,0s0,0,0-.05a.22.22,0,0,1,.2-.13.7.7,0,0,1,.42.13.55.55,0,0,0,.48.07c.08,0,.12-.09.12-.13a.07.07,0,0,1,.07-.07h0c.13-.08.19-.07.19,0s.07.09.19,0l.26-.12a.48.48,0,0,1,.26-.07.21.21,0,0,1,.19,0h.19a.5.5,0,0,1,.1-.19.26.26,0,0,1,.22-.13,1.68,1.68,0,0,1,.9-.26,2.73,2.73,0,0,0,.9-.13l.13-.19.32-.19A2.07,2.07,0,0,0,138,176a1.38,1.38,0,0,1,.36-.23l.35-.16a.3.3,0,0,0,.29-.19,1,1,0,0,1,.22-.32h.39a.56.56,0,0,1,.13-.39.61.61,0,0,1,.19,0h.19a1.9,1.9,0,0,0,.42-.38l.29-.32.19-.16c.09-.07.13-.12.13-.16v-.13a.46.46,0,0,0,.16-.07c.17-.13.31-.22.42-.29A2,2,0,0,0,142,173a.21.21,0,0,0,0-.19.67.67,0,0,1,0-.2,7.84,7.84,0,0,1,.61-.54,3.11,3.11,0,0,1,.54-.35.11.11,0,0,0,0-.14l0,0a.24.24,0,0,1,0-.23,1.15,1.15,0,0,1,.52-.48.76.76,0,0,0,.38-.61.49.49,0,0,1,.1-.26,2.85,2.85,0,0,1,.23-.26.54.54,0,0,0,.06-.25.33.33,0,0,1,.13-.26.44.44,0,0,1,.19-.1c.09,0,.13-.05.13-.09s.12-.17.09-.26a.26.26,0,0,1,.1-.26,1.07,1.07,0,0,1,.35-.32,1.78,1.78,0,0,0,.36-.25,16.45,16.45,0,0,0,3.21-.29,27.7,27.7,0,0,1,2.86-.4v.14a.45.45,0,0,1-.09.35,3.94,3.94,0,0,1-.26.55,4.45,4.45,0,0,0-.25.54,4.88,4.88,0,0,0-.2.65,2.94,2.94,0,0,1-.19.64s-.06,0-.19.13a3.31,3.31,0,0,0-.19.61,1.68,1.68,0,0,1-.2.48c-.3.94-.59,1.86-.86,2.76a14,14,0,0,0-.55,2.63,4.22,4.22,0,0,0,.13,1,9,9,0,0,0,.35,1.15c.15.39.3.74.45,1.06a1.46,1.46,0,0,0,.42.61.15.15,0,0,1,0,.16.43.43,0,0,0,0,.16h.19a.4.4,0,0,1,.1.36c0,.15,0,.22.22.22s.18,0,.16.07,0,.06,0,.06a2,2,0,0,0,.81.42,1.32,1.32,0,0,1,.67.35.63.63,0,0,0,.32.1h.39a.48.48,0,0,0,.51-.19c.13-.17.32-.15.58.06a1.19,1.19,0,0,1,.1-.32c.06-.17.13-.26.22-.26s.07.06.07.16,0,.12.12,0a.81.81,0,0,0,.26-.42q.14-.36.45,0c-.09-.21-.09-.33,0-.35s.19-.14.32-.36c0,.09,0,.13.07.13s0,0,.12-.13.12-.13.1-.16,0-.07.1-.16a3,3,0,0,1,.67-.51c.24-.13.5-.26.8-.39a2.85,2.85,0,0,1,1-1.15,6.45,6.45,0,0,0,1.15-1,1.14,1.14,0,0,0,.32-.51,2.51,2.51,0,0,1,.26-.58.33.33,0,0,1,.23-.07.67.67,0,0,0,.28-.06.17.17,0,0,0,0-.19.67.67,0,0,1,0-.2.4.4,0,0,1,.2-.09c.08,0,.12,0,.12-.1a1,1,0,0,0,.2-.26.92.92,0,0,1,.19-.25.81.81,0,0,1,.29-.19,1,1,0,0,0,.29-.2c.26-.34.52-.67.8-1s.55-.66.8-1a.77.77,0,0,0,.71-.19c.17-.21.33-.41.48-.58l.42-.45a2,2,0,0,0,.32-.38.78.78,0,0,0,.58-.2,2.1,2.1,0,0,0,.61-.54c.23-.28.46-.57.67-.87s.43-.67.65-1a5.37,5.37,0,0,0,.45-.81C168.6,167.72,168.56,167.72,168.5,167.67ZM147,154.8a.61.61,0,0,1,.16.16,1.15,1.15,0,0,0,.22.22.4.4,0,0,0,.26.1q-.13.32-.39,0a1.4,1.4,0,0,0-.38-.35C146.93,154.83,147,154.78,147,154.8Zm-39.69,7.29a.34.34,0,0,1,.35.06.28.28,0,0,0,.23.13c0,.09,0,.14-.1.16a.15.15,0,0,0-.09.16h-.39Zm.9,3.21a8.61,8.61,0,0,1-.58.77,3.22,3.22,0,0,0-.45.7c-.17-.08-.21-.17-.12-.25a.47.47,0,0,0,.12-.32c0-.5.07-1,.07-1.51a12.46,12.46,0,0,1,.06-1.51.57.57,0,0,1,.35-.16.22.22,0,0,0,.23-.23c.21.13.28.4.19.81a2.82,2.82,0,0,0-.06,1c.21,0,.29-.12.22-.35a.63.63,0,0,1,0-.48,1,1,0,0,1,.25.77,1.86,1.86,0,0,1-.26.76Zm31.47,3.24a3.32,3.32,0,0,0-.32.42,2.92,2.92,0,0,1-.48.29,2.1,2.1,0,0,0-.42.22,1,1,0,0,0-.2.29.81.81,0,0,1-.19.29.72.72,0,0,1-.29.06.73.73,0,0,0-.29.07,2.12,2.12,0,0,1-.29.38,1.07,1.07,0,0,1-.41.32,1,1,0,0,1-.26.2.83.83,0,0,0-.26.19,1.33,1.33,0,0,1-.38.29c-.13.06-.3.16-.52.29a5.05,5.05,0,0,0-.45.25,2.1,2.1,0,0,1-.64.26l-.29.16-.41.23a.89.89,0,0,0-.39.12,1.77,1.77,0,0,1-.51.07,10.27,10.27,0,0,1,.74-3.41,16.94,16.94,0,0,1,1.44-2.69c.13,0,.19,0,.19.19a7.29,7.29,0,0,1,1.22.23c.39.1.77.22,1.16.35a10.43,10.43,0,0,0,1.22.32,6.67,6.67,0,0,0,1.41.13,1.78,1.78,0,0,1-.36.48Zm5.39-7.67a4.72,4.72,0,0,1-.61,1.83c-.32.53-.59,1-.8,1.38-1,0-2.06.09-3.08.16a8.55,8.55,0,0,1-2.89-.29.86.86,0,0,0,0-.39.21.21,0,0,0-.23-.19h0c0-.08.09-.12.13-.1a.12.12,0,0,1,.07.1.86.86,0,0,0,.32,0,.07.07,0,0,0,0-.1l-.1-.16a.22.22,0,0,1,0-.22c0-.47-.15-.71-.45-.71s-.35-.29-.29-.48a.58.58,0,0,0-.22-.61.69.69,0,0,0-.51-.19.32.32,0,0,0-.23.09c-.06.07-.12,0-.16-.09a.74.74,0,0,1,.06-.87,7.65,7.65,0,0,1,.65-.74,2.92,2.92,0,0,1,.83-.61,7,7,0,0,0,.84-.48.49.49,0,0,0,.19-.16,1,1,0,0,1,.13-.16.39.39,0,0,1,.29-.13.72.72,0,0,0,.29-.06,2.75,2.75,0,0,1,.86-.42l1.06-.35h.39a.58.58,0,0,0,.32,0,.06.06,0,0,0,.06-.07c0-.07,0-.08.13-.13a3.61,3.61,0,0,1,.87.16,6.9,6.9,0,0,0,1,.23,6,6,0,0,1,.84,1.7,5,5,0,0,1,.26,2.06Zm8,12.52a17.56,17.56,0,0,0-.2,2.05v2.44a.8.8,0,0,1-.44-.35,3.36,3.36,0,0,1-.26-.54.46.46,0,0,0,.22-.55,1.56,1.56,0,0,1,0-.68c.09-.51.19-1,.29-1.5a10.54,10.54,0,0,0,.22-1.58c.09,0,.13,0,.13-.09a.48.48,0,0,1,.07-.23V172a.23.23,0,0,1,.16.28,1,1,0,0,0,0,.42c-.17,0-.24.15-.19.32a.67.67,0,0,1,.05.37Zm.9-3.63c-.17.49-.37,1-.58,1.51a.86.86,0,0,1,0,.45c0,.08-.09.06-.13-.06l.13-.78a3.46,3.46,0,0,1,.19-.7.29.29,0,0,1,.13-.16.17.17,0,0,0,.07-.16,1,1,0,0,0-.17-.58c-.1-.17,0-.15.36.06a3.38,3.38,0,0,0,0-.45,1.81,1.81,0,0,0-.09-.64l.13.32c.08,0,.12-.06.12-.19a1.34,1.34,0,0,1,.07-.39q0-.12.06-.12h.07a.25.25,0,0,0-.07-.2h-.06s0-.13.16-.13.16,0,.16-.06a.46.46,0,0,0-.06-.38c-.09-.17,0-.22.25-.13v-.44a.22.22,0,0,1,.27.05.75.75,0,0,1,0-.42,1.07,1.07,0,0,1,.13-.38.27.27,0,0,0,0-.19h0a2.19,2.19,0,0,1,.16-.57.21.21,0,0,0,.13-.07.14.14,0,0,0,.09,0h0c-.17-.17-.19-.23-.06-.16s.21.05.25,0a1,1,0,0,0,.1-.55,2.08,2.08,0,0,1,0-.61h.39a.59.59,0,0,0,.09-.45.52.52,0,0,1,.1-.45h.19c.09,0,.13,0,.13-.1a.14.14,0,0,0,0-.19.21.21,0,0,1-.1-.19c0-.09,0-.14.16-.16s.16-.08.16-.17v-.19a2.51,2.51,0,0,0,.26-.58,3.68,3.68,0,0,1,.32-.7,5.71,5.71,0,0,0,.35-.64,1,1,0,0,1,.74-.45.89.89,0,0,1-.19.57.89.89,0,0,0-.19.52c0,.13,0,.2-.13.22a.28.28,0,0,0-.19.16c-.05,0-.05.11,0,.2s0,.15,0,.19h-.2v.32h-.19a.21.21,0,0,0,0,.19.61.61,0,0,1,0,.19h-.19v.33h-.13a.21.21,0,0,0,0,.19.61.61,0,0,1,0,.19h-.26a.43.43,0,0,0,0,.16.12.12,0,0,1,0,.16h-.19a.89.89,0,0,0,0,.23v.16h-.13v.32a1.82,1.82,0,0,0-.38.71l-.39,1c-.2.49,0,0-.06,0s-.07,0-.07.16a.61.61,0,0,1-.13.45,1.53,1.53,0,0,0-.25.45.43.43,0,0,0,0,.16.15.15,0,0,1,0,.16,1.79,1.79,0,0,0-.36.68,9.38,9.38,0,0,1-.35.93,9.67,9.67,0,0,0-.59,1.4Z" fill="#fff"/><path d="M160.57,148.05a.85.85,0,0,0,.09-.22,1.47,1.47,0,0,1,.1-.22c0-.07.13-.1.26-.1a1.2,1.2,0,0,0-.13.74,1.44,1.44,0,0,1-.07.74.76.76,0,0,0-.19.12l-.19.2a3.06,3.06,0,0,1-.26.51c-.08.13-.17.28-.26.45a.59.59,0,0,0-.19.32c0,.09,0,.13-.09.13s-.1,0-.1.06a1,1,0,0,0-.06.65,1.68,1.68,0,0,1-.07.77,1.77,1.77,0,0,0-.45.8c-.08.32.07.52.45.61a.53.53,0,0,1,.19-.51c.17-.17.28-.17.32,0s-.09.16,0,.22a.94.94,0,0,0,.32.19,2.41,2.41,0,0,0,.45.16l.36.13a4.4,4.4,0,0,1,.35-1A4.19,4.19,0,0,1,162,152a1.79,1.79,0,0,0,.57,1.48,5.5,5.5,0,0,1,.52-.83,4.56,4.56,0,0,1,.51-.65v-.32a.63.63,0,0,1,.26-.16c.08,0,.13-.09.13-.22s0-.12.06-.1.07,0,.07,0a.72.72,0,0,0,.06-.29.39.39,0,0,1,.13-.29l.29-.26.29-.25a2.22,2.22,0,0,1,.25-.42c.09-.11.17-.23.26-.35.34-.35.51-.58.51-.71a1.25,1.25,0,0,1,.55-.67.7.7,0,0,0,.22-.94,1.57,1.57,0,0,1,.32-.41c.13-.11.26-.2.39-.29-.34-.09-.45-.2-.32-.36a.94.94,0,0,0,.13-.73,2.1,2.1,0,0,1-.13-.55,1.94,1.94,0,0,1,.13-.54c-.13,0-.24-.13-.32-.39-.3-.13-.52-.07-.65.19s-.23.26-.32,0V143a1.93,1.93,0,0,1-1.6-.51h.58a1.19,1.19,0,0,0-.16-.48.38.38,0,0,0-.29-.1H164a1,1,0,0,1-.45-.13.39.39,0,0,1-.32.2,3.91,3.91,0,0,1-.26.44c-.08.13-.19.28-.32.46a1.45,1.45,0,0,1-.35.35,1.17,1.17,0,0,0-.35.35,1.44,1.44,0,0,0-.2.52.36.36,0,0,1-.38.32v.77c-.09.38-.11.53-.07.45s.13,0,.26.12a3.35,3.35,0,0,0-.71,1.06q-.25.62-.51,1.26C160.44,148.13,160.52,148.12,160.57,148.05Z" fill="#fff"/><path d="M160.41,148.41c.06,0,.07-.07,0-.2s-.13,0-.13-.12-.19,0-.19,0a.28.28,0,0,0,.09.19A.28.28,0,0,0,160.41,148.41Z" fill="#fff"/><path d="M158.32,151.17a12.48,12.48,0,0,1,.74-1.77c.28-.53.57-1.1.86-1.7l-.22-.13c-.06,0,0,0,0,.13a.33.33,0,0,0-.13.29c0,.15,0,.22-.06.22a.26.26,0,0,1-.19-.06.22.22,0,0,0-.13-.06,2.55,2.55,0,0,0-.13.29.79.79,0,0,0-.06.22c-.09.13-.15.24-.2.32a.65.65,0,0,0,0,.39.48.48,0,0,0-.35.41,3.76,3.76,0,0,1-.16.74h-.19q-.14,0,0,.39C158.16,151.11,158.23,151.21,158.32,151.17Z" fill="#fff"/><rect x="171.66" y="89.91" width="9.02" height="23.87" fill="#fff"/><path d="M170.28,89.91H158.44l-9.62,8.24V89.91h-9v23.87h9v-8.42l8.89,8.42h12.15l-13.23-12.21Z" fill="#fff"/><path d="M123.81,114.38c10.88,0,13.7-2.77,13.7-8.9V89.91h-8.66v14.61c0,2.46-2.1,3.91-5,3.91s-5-1.45-5-4V89.91H110.1v15.57C110.1,111.61,112.86,114.38,123.81,114.38Z" fill="#fff"/><path d="M107.94,89.91H80.64V96H93.87L80.22,108.73v5h27.65v-6.07H94.11L107.93,95Z" fill="#fff"/><path d="M64.59,114.38c10.94,0,13.71-2.77,13.71-8.9V89.91H69.64v14.61c0,2.46-2.1,3.91-5,3.91s-5-1.45-5-4V89.91h-8.7v15.57C50.89,111.61,53.71,114.38,64.59,114.38Z" fill="#fff"/><path d="M29.6,96.52c0-1.86,2.77-1.92,3.67-1.92a5.3,5.3,0,0,1,4.46,2.7H48c0-4.51-4.27-8-14.61-8C21.91,89.3,20,94.3,20,97.23c0,5.35,4.15,6.86,13.11,7.82.78.06,5.41-.12,5.41,2.1,0,1.69-2.64,1.75-3.6,1.75a4.66,4.66,0,0,1-4.27-2.77H19.32c0,5.23,3.55,8.24,15.45,8.24,11,0,13.89-4.45,13.89-7.88s-2.28-6.67-11.6-7.87C33.15,98.09,29.6,97.91,29.6,96.52Z" fill="#fff"/></svg>