<svg xmlns="http://www.w3.org/2000/svg" viewBox="0 0 137.646 189.51"><g fill="#fff"><path d="M129.945 126.34h7.702v20.374h-7.702zM128.731 126.34h-10.092l-8.2 7.019v-7.019h-7.659v20.374h7.7v-7.174l7.588 7.171h10.32l-11.268-10.4zM89.121 147.207c9.3 0 11.686-2.352 11.686-7.588V126.34h-7.36v12.444c0 2.125-1.783 3.339-4.325 3.339-2.618 0-4.287-1.214-4.287-3.377V126.34h-7.361v13.279c-.039 5.236 2.314 7.588 11.647 7.588zM75.577 126.34H52.319v5.2h11.268L51.94 142.389v4.325h23.6v-5.2H63.815l11.8-10.775v-4.399zM38.623 147.207c9.333 0 11.686-2.352 11.686-7.588V126.34h-7.36v12.444c0 2.125-1.783 3.339-4.287 3.339-2.618 0-4.287-1.214-4.287-3.377V126.34h-7.4v13.279c-.076 5.236 2.352 7.588 11.648 7.588zM8.764 131.955c0-1.594 2.352-1.631 3.111-1.631a4.413 4.413 0 013.794 2.314H24.4c0-3.832-3.642-6.867-12.444-6.867-9.789 0-11.42 4.325-11.42 6.753 0 4.553 3.528 5.843 11.192 6.677.645.038 4.629-.114 4.629 1.783 0 1.442-2.276 1.48-3.073 1.48a4 4 0 01-3.642-2.352H0c0 4.477 3.035 7.019 13.165 7.019 9.371 0 11.837-3.794 11.837-6.715 0-2.808-1.935-5.691-9.9-6.715-3.302-.38-6.338-.57-6.338-1.746z"/></g><path fill="#f99a21" d="M46.704 173.652l-2.087-2.125a10.093 10.093 0 01-1.442 1.062c-.417.228-.835.455-1.252.645a4.9 4.9 0 01-1.062.3c-.3.038-.569.076-.759.114a4.714 4.714 0 01-1.783-.228 4.487 4.487 0 01-2.58-2.049 4.134 4.134 0 01-.531-1.631 3.767 3.767 0 01.379-2.314 5.816 5.816 0 011.518-1.821 5.941 5.941 0 01.645-.455l.645-.455a5.457 5.457 0 01-1.1-1.935 4.325 4.325 0 01-.19-2.087 4.159 4.159 0 01.569-1.669 4.238 4.238 0 011.214-1.252 4.75 4.75 0 011.707-.683 4.2 4.2 0 011.821.076 4.269 4.269 0 012.732 2.314 3.909 3.909 0 01.379 1.745 3.776 3.776 0 01-.455 1.783 3.532 3.532 0 01-.986 1.252 10.242 10.242 0 01-1.48 1.024l1.935 2.011a26.26 26.26 0 001.176-1.821 4.335 4.335 0 00.379-.721l2.656 1.29-.455.873a25.232 25.232 0 01-1.366 2.125c-.076.076-.114.152-.152.19-.038.076-.076.114-.114.19l2.352 2.5zm-6.753-7.019a6.545 6.545 0 00-1.062.721l-.228.228a2.3 2.3 0 00-.266.379 3.56 3.56 0 00-.228.569 2.8 2.8 0 000 .8 1.641 1.641 0 00.569 1.062 2.144 2.144 0 001.252.493 1.989 1.989 0 00.949-.114 2.74 2.74 0 00.759-.341 3.436 3.436 0 00.607-.417 2.477 2.477 0 00.455-.417zm-.074-5.843a2.665 2.665 0 00.228 1.328 3.081 3.081 0 00.721 1.1c.19-.114.417-.266.645-.417a3.54 3.54 0 00.569-.493 2.291 2.291 0 00.683-1.669 1.212 1.212 0 00-.417-.911 1.626 1.626 0 00-.911-.379 1.6 1.6 0 00-.986.3 1.978 1.978 0 00-.532 1.141zM75.159 157.224v16.087h-3.073v-8.157l-5.046 6.07-5.008-6.07v8.157h-3.073v-16.125h.19l7.892 9.3 7.929-9.3h.19zM86.237 173.651a8.58 8.58 0 01-3.225-.645 8.209 8.209 0 01-4.439-4.439 8.461 8.461 0 010-6.526 8.21 8.21 0 014.439-4.439 8.34 8.34 0 0110.932 4.439 8.46 8.46 0 010 6.526 8.209 8.209 0 01-4.439 4.439 8.626 8.626 0 01-3.268.645zm0-13.848a4.753 4.753 0 00-2.049.455 5.5 5.5 0 00-2.808 2.959 5.517 5.517 0 001.138 5.919 5.9 5.9 0 001.669 1.214 4.837 4.837 0 004.1 0 5.409 5.409 0 001.669-1.214 5.517 5.517 0 001.138-5.919 5.627 5.627 0 00-2.808-2.959 4.633 4.633 0 00-2.049-.455zM100.882 173.348h-3.073v-16.087h3.073z"/><path fill="#fff" d="M55.658 187.386h26.33v2.125h-26.33z"/><path fill="#fb4e70" d="M78.194 9.144a45.018 45.018 0 0135.246 38.7h9.03A54.088 54.088 0 0078.194 0z"/><path fill="#fff" d="M92.043 62.108a58.2 58.2 0 00-12.748 6.412 56.62 56.62 0 00-10.471 7.74l-23.22-16.011s9.789-7.171 17.984-1.707l10.965 7.512 1.328-.911-30.277-21.132a58.2 58.2 0 0012.748-6.412 56.62 56.62 0 0010.471-7.74L92.042 45.87s-9.789 7.171-17.984 1.669l-10.927-7.512-1.327.91z"/><path fill="#2fd5cd" d="M24.206 47.842a45.018 45.018 0 0135.246-38.7V0a54.008 54.008 0 00-44.238 47.842z"/><path fill="#3d61e2" d="M112.302 64.27a45.048 45.048 0 01-34.146 32.7v9.144a54.015 54.015 0 0043.328-41.844h-9.181z"/><path fill="#f99a21" d="M59.453 97.008a45.048 45.048 0 01-34.146-32.7h-9.182a54.114 54.114 0 0043.328 41.848z"/></svg>