<svg xmlns="http://www.w3.org/2000/svg" viewBox="0 0 500 500"><path d="M293.9,43.5A209.66,209.66,0,0,1,458.1,223.6h42A251.57,251.57,0,0,0,294,1Z" style="fill:#FFA100"/><path d="M42.7,223.7a209.58,209.58,0,0,1,164-180.1V1A251.58,251.58,0,0,0,.7,223.7Z" style="fill:#FFA100"/><path d="M452.8,300.3A209.92,209.92,0,0,1,293.9,452.5V495A251.41,251.41,0,0,0,495.6,300.2Z" style="fill:#FFA100"/><path d="M206.7,452.5A209.9,209.9,0,0,1,47.8,300.2H5A251.67,251.67,0,0,0,206.7,495Z" style="fill:#FFA100"/></svg>